G04 #@! TF.FileFunction,Copper,L1,Top,Signal*
%FSLAX46Y46*%
G04 Gerber Fmt 4.6, Leading zero omitted, Abs format (unit mm)*
G04 Created by KiCad (PCBNEW 4.0.5) date 02/22/17 14:43:09*
%MOMM*%
%LPD*%
G01*
G04 APERTURE LIST*
%ADD10C,0.100000*%
%ADD11C,1.350000*%
%ADD12R,1.350000X1.350000*%
%ADD13R,1.500000X1.250000*%
%ADD14R,0.900000X0.800000*%
%ADD15R,0.400000X1.350000*%
%ADD16O,1.250000X0.950000*%
%ADD17O,1.000000X1.550000*%
%ADD18C,1.500000*%
%ADD19C,3.000000*%
%ADD20R,1.700000X1.700000*%
%ADD21O,1.700000X1.700000*%
%ADD22R,1.500000X1.300000*%
%ADD23R,3.800000X2.000000*%
%ADD24R,1.500000X2.000000*%
%ADD25R,3.200000X1.500000*%
%ADD26R,1.500000X3.200000*%
%ADD27C,0.600000*%
%ADD28C,0.250000*%
%ADD29C,0.254000*%
G04 APERTURE END LIST*
D10*
D11*
X138692000Y-129314000D03*
X138692000Y-127314000D03*
X138692000Y-125314000D03*
X138692000Y-123314000D03*
X138692000Y-121314000D03*
X138692000Y-119314000D03*
X138692000Y-117314000D03*
X138692000Y-115314000D03*
X138692000Y-113314000D03*
X138692000Y-111314000D03*
X138692000Y-109314000D03*
X138692000Y-107314000D03*
X138692000Y-105314000D03*
X138692000Y-103314000D03*
X138692000Y-101314000D03*
D12*
X138692000Y-99314000D03*
X114292000Y-99314000D03*
D11*
X114292000Y-101314000D03*
X114292000Y-103314000D03*
X114292000Y-105314000D03*
X114292000Y-107314000D03*
X114292000Y-109314000D03*
X114292000Y-111314000D03*
X114292000Y-113314000D03*
X114292000Y-115314000D03*
X114292000Y-117314000D03*
X114292000Y-119314000D03*
X114292000Y-121314000D03*
X114292000Y-123314000D03*
X114292000Y-125314000D03*
X114292000Y-127314000D03*
X114292000Y-129314000D03*
D13*
X133330000Y-113030000D03*
X130830000Y-113030000D03*
X133330000Y-124460000D03*
X130830000Y-124460000D03*
D14*
X120920000Y-113350000D03*
X120920000Y-115250000D03*
X122920000Y-114300000D03*
X120920000Y-119700000D03*
X120920000Y-121600000D03*
X122920000Y-120650000D03*
D15*
X132110000Y-81360000D03*
X131460000Y-81360000D03*
X130810000Y-81360000D03*
X130160000Y-81360000D03*
X129510000Y-81360000D03*
D16*
X133310000Y-81360000D03*
X128310000Y-81360000D03*
D17*
X134310000Y-78660000D03*
X127310000Y-78660000D03*
D18*
X112270000Y-88900000D03*
X114810000Y-88900000D03*
X116840000Y-88900000D03*
X119380000Y-88900000D03*
D19*
X109220000Y-86230000D03*
X122940000Y-86230000D03*
D20*
X109220000Y-96520000D03*
D21*
X109220000Y-99060000D03*
X109220000Y-101600000D03*
X109220000Y-104140000D03*
X109220000Y-106680000D03*
X109220000Y-109220000D03*
X109220000Y-111760000D03*
X109220000Y-114300000D03*
X109220000Y-116840000D03*
X109220000Y-119380000D03*
X109220000Y-121920000D03*
X109220000Y-124460000D03*
X109220000Y-127000000D03*
X109220000Y-129540000D03*
X109220000Y-132080000D03*
X109220000Y-134620000D03*
D20*
X142240000Y-96520000D03*
D21*
X142240000Y-99060000D03*
X142240000Y-101600000D03*
X142240000Y-104140000D03*
X142240000Y-106680000D03*
X142240000Y-109220000D03*
X142240000Y-111760000D03*
X142240000Y-114300000D03*
X142240000Y-116840000D03*
X142240000Y-119380000D03*
X142240000Y-121920000D03*
X142240000Y-124460000D03*
X142240000Y-127000000D03*
X142240000Y-129540000D03*
X142240000Y-132080000D03*
X142240000Y-134620000D03*
D22*
X133430000Y-116840000D03*
X130730000Y-116840000D03*
X133430000Y-120650000D03*
X130730000Y-120650000D03*
D23*
X125730000Y-107290000D03*
D24*
X125730000Y-100990000D03*
X123430000Y-100990000D03*
X128030000Y-100990000D03*
D25*
X123920000Y-96520000D03*
X119920000Y-96520000D03*
X130080000Y-96520000D03*
X134080000Y-96520000D03*
D26*
X132080000Y-106140000D03*
X132080000Y-102140000D03*
D20*
X139700000Y-81280000D03*
D21*
X142240000Y-81280000D03*
X139700000Y-83820000D03*
X142240000Y-83820000D03*
X139700000Y-86360000D03*
X142240000Y-86360000D03*
X139700000Y-88900000D03*
X142240000Y-88900000D03*
D27*
X128270000Y-99060000D03*
X134620000Y-93980000D03*
X135890000Y-113030000D03*
X135890000Y-120650000D03*
X120650000Y-111760000D03*
X120650000Y-118110000D03*
X119380000Y-93980000D03*
X116840000Y-115570000D03*
X116840000Y-105410000D03*
X119380000Y-114300000D03*
X118110000Y-105410000D03*
X118110000Y-118110000D03*
D28*
X123190000Y-121970000D02*
X122870000Y-121650000D01*
X128030000Y-100990000D02*
X128030000Y-99300000D01*
X128030000Y-99300000D02*
X128270000Y-99060000D01*
X132080000Y-102140000D02*
X132080000Y-98520000D01*
X132080000Y-98520000D02*
X134620000Y-95980000D01*
X134620000Y-95980000D02*
X134620000Y-93980000D01*
X133430000Y-116840000D02*
X133430000Y-113130000D01*
X133430000Y-113130000D02*
X133530000Y-113030000D01*
X133530000Y-113030000D02*
X135890000Y-113030000D01*
X133330000Y-124460000D02*
X133330000Y-120750000D01*
X133330000Y-120750000D02*
X133430000Y-120650000D01*
X133430000Y-120650000D02*
X135890000Y-120650000D01*
X120920000Y-113350000D02*
X120920000Y-112030000D01*
X120920000Y-112030000D02*
X120650000Y-111760000D01*
X120920000Y-119700000D02*
X120920000Y-118380000D01*
X120920000Y-118380000D02*
X120650000Y-118110000D01*
X119920000Y-96520000D02*
X119920000Y-94520000D01*
X119920000Y-94520000D02*
X119380000Y-93980000D01*
X129510000Y-81360000D02*
X128310000Y-81360000D01*
X133430000Y-113130000D02*
X133330000Y-113030000D01*
X142240000Y-101600000D02*
X140406000Y-101600000D01*
X140406000Y-101600000D02*
X138692000Y-103314000D01*
X130830000Y-113030000D02*
X130830000Y-111176000D01*
X130830000Y-111176000D02*
X138692000Y-103314000D01*
X114810000Y-88900000D02*
X114810000Y-97030000D01*
X115570000Y-105410000D02*
X124460000Y-114300000D01*
X115570000Y-97790000D02*
X115570000Y-105410000D01*
X114810000Y-97030000D02*
X115570000Y-97790000D01*
X130830000Y-113030000D02*
X129460000Y-113030000D01*
X129460000Y-113030000D02*
X128190000Y-114300000D01*
X122920000Y-114300000D02*
X124460000Y-114300000D01*
X124460000Y-114300000D02*
X128190000Y-114300000D01*
X128190000Y-114300000D02*
X130730000Y-116840000D01*
X130830000Y-113030000D02*
X130830000Y-113010000D01*
X130730000Y-113130000D02*
X130830000Y-113030000D01*
X138692000Y-105314000D02*
X141066000Y-105314000D01*
X141066000Y-105314000D02*
X142240000Y-104140000D01*
X130730000Y-120650000D02*
X130810000Y-120650000D01*
X130810000Y-120650000D02*
X133350000Y-118110000D01*
X137160000Y-106846000D02*
X138692000Y-105314000D01*
X137160000Y-115570000D02*
X137160000Y-106846000D01*
X134620000Y-118110000D02*
X137160000Y-115570000D01*
X133350000Y-118110000D02*
X134620000Y-118110000D01*
X116840000Y-88900000D02*
X116840000Y-105410000D01*
X123210000Y-116840000D02*
X127020000Y-120650000D01*
X118110000Y-116840000D02*
X123210000Y-116840000D01*
X116840000Y-115570000D02*
X118110000Y-116840000D01*
X130730000Y-120650000D02*
X127020000Y-120650000D01*
X122920000Y-120650000D02*
X127020000Y-120650000D01*
X127020000Y-120650000D02*
X130830000Y-124460000D01*
X120920000Y-115250000D02*
X120330000Y-115250000D01*
X120330000Y-115250000D02*
X119380000Y-114300000D01*
X120920000Y-121600000D02*
X119060000Y-121600000D01*
X122530000Y-100990000D02*
X123430000Y-100990000D01*
X118110000Y-105410000D02*
X122530000Y-100990000D01*
X118110000Y-120650000D02*
X118110000Y-118110000D01*
X119060000Y-121600000D02*
X118110000Y-120650000D01*
X123920000Y-96520000D02*
X123920000Y-100500000D01*
X123920000Y-100500000D02*
X123430000Y-100990000D01*
X123920000Y-96520000D02*
X123920000Y-93440000D01*
X123920000Y-93440000D02*
X119380000Y-88900000D01*
X119380000Y-88900000D02*
X128270000Y-88900000D01*
X128270000Y-88900000D02*
X133350000Y-83820000D01*
X139700000Y-83820000D02*
X133350000Y-83820000D01*
X132110000Y-82580000D02*
X132110000Y-81360000D01*
X133350000Y-83820000D02*
X132110000Y-82580000D01*
X139700000Y-83820000D02*
X139700000Y-81280000D01*
X125730000Y-107290000D02*
X125730000Y-109220000D01*
X125730000Y-100990000D02*
X125730000Y-99060000D01*
X109220000Y-99060000D02*
X112038000Y-99060000D01*
X112038000Y-99060000D02*
X114292000Y-101314000D01*
X109220000Y-101600000D02*
X112578000Y-101600000D01*
X112578000Y-101600000D02*
X114292000Y-103314000D01*
X109220000Y-104140000D02*
X113118000Y-104140000D01*
X113118000Y-104140000D02*
X114292000Y-105314000D01*
X109220000Y-106680000D02*
X113658000Y-106680000D01*
X113658000Y-106680000D02*
X114292000Y-107314000D01*
X109220000Y-109220000D02*
X114198000Y-109220000D01*
X114198000Y-109220000D02*
X114292000Y-109314000D01*
X109220000Y-111760000D02*
X113846000Y-111760000D01*
X113846000Y-111760000D02*
X114292000Y-111314000D01*
X109220000Y-114300000D02*
X113306000Y-114300000D01*
X113306000Y-114300000D02*
X114292000Y-113314000D01*
X109220000Y-116840000D02*
X112766000Y-116840000D01*
X112766000Y-116840000D02*
X114292000Y-115314000D01*
X109220000Y-119380000D02*
X112226000Y-119380000D01*
X112226000Y-119380000D02*
X114292000Y-117314000D01*
X109220000Y-121920000D02*
X111686000Y-121920000D01*
X111686000Y-121920000D02*
X114292000Y-119314000D01*
X109220000Y-124460000D02*
X111146000Y-124460000D01*
X111146000Y-124460000D02*
X114292000Y-121314000D01*
X109220000Y-127000000D02*
X110606000Y-127000000D01*
X110606000Y-127000000D02*
X114292000Y-123314000D01*
X109220000Y-129540000D02*
X110066000Y-129540000D01*
X110066000Y-129540000D02*
X114292000Y-125314000D01*
X109220000Y-132080000D02*
X109526000Y-132080000D01*
X109526000Y-132080000D02*
X114292000Y-127314000D01*
X109220000Y-134620000D02*
X109220000Y-134386000D01*
X109220000Y-134386000D02*
X114292000Y-129314000D01*
X142240000Y-106680000D02*
X139326000Y-106680000D01*
X139326000Y-106680000D02*
X138692000Y-107314000D01*
X142240000Y-109220000D02*
X138786000Y-109220000D01*
X138786000Y-109220000D02*
X138692000Y-109314000D01*
X138786000Y-109220000D02*
X138692000Y-109314000D01*
X142240000Y-111760000D02*
X139138000Y-111760000D01*
X139138000Y-111760000D02*
X138692000Y-111314000D01*
X139138000Y-111760000D02*
X138692000Y-111314000D01*
X142240000Y-114300000D02*
X139678000Y-114300000D01*
X139678000Y-114300000D02*
X138692000Y-113314000D01*
X142240000Y-116840000D02*
X140218000Y-116840000D01*
X140218000Y-116840000D02*
X138692000Y-115314000D01*
X142240000Y-119380000D02*
X140758000Y-119380000D01*
X140758000Y-119380000D02*
X138692000Y-117314000D01*
X142240000Y-121920000D02*
X141298000Y-121920000D01*
X141298000Y-121920000D02*
X138692000Y-119314000D01*
X142240000Y-124460000D02*
X141838000Y-124460000D01*
X141838000Y-124460000D02*
X138692000Y-121314000D01*
X142240000Y-127000000D02*
X142240000Y-126862000D01*
X142240000Y-126862000D02*
X138692000Y-123314000D01*
X142240000Y-129540000D02*
X140335000Y-127635000D01*
X140335000Y-126957000D02*
X138692000Y-125314000D01*
X140335000Y-127635000D02*
X140335000Y-126957000D01*
X142240000Y-132080000D02*
X140335000Y-130175000D01*
X140335000Y-128957000D02*
X138692000Y-127314000D01*
X140335000Y-130175000D02*
X140335000Y-128957000D01*
X138692000Y-129314000D02*
X138692000Y-131072000D01*
X138692000Y-131072000D02*
X142240000Y-134620000D01*
D29*
G36*
X126261397Y-77923030D02*
X126175000Y-78357376D01*
X126175000Y-78962624D01*
X126261397Y-79396970D01*
X126507434Y-79765190D01*
X126875654Y-80011227D01*
X127310000Y-80097624D01*
X127744346Y-80011227D01*
X128112566Y-79765190D01*
X128358603Y-79396970D01*
X128445000Y-78962624D01*
X128445000Y-78357376D01*
X128358603Y-77923030D01*
X128140756Y-77597000D01*
X133479244Y-77597000D01*
X133261397Y-77923030D01*
X133175000Y-78357376D01*
X133175000Y-78962624D01*
X133261397Y-79396970D01*
X133507434Y-79765190D01*
X133875654Y-80011227D01*
X134310000Y-80097624D01*
X134744346Y-80011227D01*
X135112566Y-79765190D01*
X135358603Y-79396970D01*
X135445000Y-78962624D01*
X135445000Y-78357376D01*
X135358603Y-77923030D01*
X135140756Y-77597000D01*
X143383000Y-77597000D01*
X143383000Y-80371915D01*
X143121358Y-80084817D01*
X142596892Y-79838514D01*
X142367000Y-79959181D01*
X142367000Y-81153000D01*
X142387000Y-81153000D01*
X142387000Y-81407000D01*
X142367000Y-81407000D01*
X142367000Y-83693000D01*
X142387000Y-83693000D01*
X142387000Y-83947000D01*
X142367000Y-83947000D01*
X142367000Y-86233000D01*
X142387000Y-86233000D01*
X142387000Y-86487000D01*
X142367000Y-86487000D01*
X142367000Y-88773000D01*
X142387000Y-88773000D01*
X142387000Y-89027000D01*
X142367000Y-89027000D01*
X142367000Y-90220819D01*
X142596892Y-90341486D01*
X143121358Y-90095183D01*
X143383000Y-89808085D01*
X143383000Y-95101658D01*
X143341890Y-95073569D01*
X143090000Y-95022560D01*
X141390000Y-95022560D01*
X141154683Y-95066838D01*
X140938559Y-95205910D01*
X140793569Y-95418110D01*
X140742560Y-95670000D01*
X140742560Y-97370000D01*
X140786838Y-97605317D01*
X140925910Y-97821441D01*
X141138110Y-97966431D01*
X141246107Y-97988301D01*
X140968355Y-98293076D01*
X140798524Y-98703110D01*
X140919845Y-98933000D01*
X142113000Y-98933000D01*
X142113000Y-98913000D01*
X142367000Y-98913000D01*
X142367000Y-98933000D01*
X142387000Y-98933000D01*
X142387000Y-99187000D01*
X142367000Y-99187000D01*
X142367000Y-99207000D01*
X142113000Y-99207000D01*
X142113000Y-99187000D01*
X140919845Y-99187000D01*
X140798524Y-99416890D01*
X140968355Y-99826924D01*
X141358642Y-100255183D01*
X141501553Y-100322298D01*
X141160853Y-100549946D01*
X140967046Y-100840000D01*
X140406000Y-100840000D01*
X140115161Y-100897852D01*
X139985591Y-100984427D01*
X139985375Y-100980566D01*
X139842328Y-100635219D01*
X139621776Y-100579640D01*
X139818441Y-100453090D01*
X139963431Y-100240890D01*
X140014440Y-99989000D01*
X140014440Y-98639000D01*
X139970162Y-98403683D01*
X139831090Y-98187559D01*
X139618890Y-98042569D01*
X139367000Y-97991560D01*
X138017000Y-97991560D01*
X137781683Y-98035838D01*
X137565559Y-98174910D01*
X137420569Y-98387110D01*
X137369560Y-98639000D01*
X137369560Y-99989000D01*
X137413838Y-100224317D01*
X137552910Y-100440441D01*
X137758141Y-100580669D01*
X137541672Y-100635219D01*
X137369478Y-101127100D01*
X137398625Y-101647434D01*
X137541672Y-101992781D01*
X137774853Y-102051542D01*
X138512395Y-101314000D01*
X138498253Y-101299858D01*
X138677858Y-101120253D01*
X138692000Y-101134395D01*
X138706143Y-101120253D01*
X138885748Y-101299858D01*
X138871605Y-101314000D01*
X138885748Y-101328143D01*
X138706143Y-101507748D01*
X138692000Y-101493605D01*
X138005279Y-102180326D01*
X137950914Y-102202789D01*
X137582084Y-102570976D01*
X137382228Y-103052282D01*
X137381795Y-103549403D01*
X133465000Y-107466198D01*
X133465000Y-106425750D01*
X133306250Y-106267000D01*
X132207000Y-106267000D01*
X132207000Y-108216250D01*
X132365750Y-108375000D01*
X132556198Y-108375000D01*
X130292599Y-110638599D01*
X130127852Y-110885161D01*
X130070000Y-111176000D01*
X130070000Y-111759442D01*
X129844683Y-111801838D01*
X129628559Y-111940910D01*
X129483569Y-112153110D01*
X129459894Y-112270021D01*
X129169160Y-112327852D01*
X128922599Y-112492599D01*
X127875198Y-113540000D01*
X124774802Y-113540000D01*
X118810552Y-107575750D01*
X123195000Y-107575750D01*
X123195000Y-108416309D01*
X123291673Y-108649698D01*
X123470301Y-108828327D01*
X123703690Y-108925000D01*
X125444250Y-108925000D01*
X125603000Y-108766250D01*
X125603000Y-107417000D01*
X125857000Y-107417000D01*
X125857000Y-108766250D01*
X126015750Y-108925000D01*
X127756310Y-108925000D01*
X127989699Y-108828327D01*
X128168327Y-108649698D01*
X128265000Y-108416309D01*
X128265000Y-107575750D01*
X128106250Y-107417000D01*
X125857000Y-107417000D01*
X125603000Y-107417000D01*
X123353750Y-107417000D01*
X123195000Y-107575750D01*
X118810552Y-107575750D01*
X117403461Y-106168659D01*
X117474954Y-106097290D01*
X117579673Y-106202192D01*
X117923201Y-106344838D01*
X118295167Y-106345162D01*
X118638943Y-106203117D01*
X118678437Y-106163691D01*
X123195000Y-106163691D01*
X123195000Y-107004250D01*
X123353750Y-107163000D01*
X125603000Y-107163000D01*
X125603000Y-105813750D01*
X125857000Y-105813750D01*
X125857000Y-107163000D01*
X128106250Y-107163000D01*
X128265000Y-107004250D01*
X128265000Y-106425750D01*
X130695000Y-106425750D01*
X130695000Y-107866309D01*
X130791673Y-108099698D01*
X130970301Y-108278327D01*
X131203690Y-108375000D01*
X131794250Y-108375000D01*
X131953000Y-108216250D01*
X131953000Y-106267000D01*
X130853750Y-106267000D01*
X130695000Y-106425750D01*
X128265000Y-106425750D01*
X128265000Y-106163691D01*
X128168327Y-105930302D01*
X127989699Y-105751673D01*
X127756310Y-105655000D01*
X126015750Y-105655000D01*
X125857000Y-105813750D01*
X125603000Y-105813750D01*
X125444250Y-105655000D01*
X123703690Y-105655000D01*
X123470301Y-105751673D01*
X123291673Y-105930302D01*
X123195000Y-106163691D01*
X118678437Y-106163691D01*
X118902192Y-105940327D01*
X119044838Y-105596799D01*
X119044879Y-105549923D01*
X122191420Y-102403382D01*
X122215910Y-102441441D01*
X122428110Y-102586431D01*
X122680000Y-102637440D01*
X124180000Y-102637440D01*
X124415317Y-102593162D01*
X124579492Y-102487518D01*
X124620301Y-102528327D01*
X124853690Y-102625000D01*
X125444250Y-102625000D01*
X125603000Y-102466250D01*
X125603000Y-101117000D01*
X125583000Y-101117000D01*
X125583000Y-100863000D01*
X125603000Y-100863000D01*
X125603000Y-99513750D01*
X125857000Y-99513750D01*
X125857000Y-100863000D01*
X125877000Y-100863000D01*
X125877000Y-101117000D01*
X125857000Y-101117000D01*
X125857000Y-102466250D01*
X126015750Y-102625000D01*
X126606310Y-102625000D01*
X126839699Y-102528327D01*
X126881660Y-102486366D01*
X127028110Y-102586431D01*
X127280000Y-102637440D01*
X128780000Y-102637440D01*
X129015317Y-102593162D01*
X129231441Y-102454090D01*
X129376431Y-102241890D01*
X129427440Y-101990000D01*
X129427440Y-99990000D01*
X129383162Y-99754683D01*
X129244090Y-99538559D01*
X129119139Y-99453184D01*
X129204838Y-99246799D01*
X129205162Y-98874833D01*
X129063117Y-98531057D01*
X128800327Y-98267808D01*
X128456799Y-98125162D01*
X128084833Y-98124838D01*
X127741057Y-98266883D01*
X127477808Y-98529673D01*
X127335162Y-98873201D01*
X127335053Y-98998384D01*
X127327852Y-99009161D01*
X127270000Y-99300000D01*
X127270000Y-99344442D01*
X127044683Y-99386838D01*
X126880508Y-99492482D01*
X126839699Y-99451673D01*
X126606310Y-99355000D01*
X126015750Y-99355000D01*
X125857000Y-99513750D01*
X125603000Y-99513750D01*
X125444250Y-99355000D01*
X124853690Y-99355000D01*
X124680000Y-99426945D01*
X124680000Y-97917440D01*
X125520000Y-97917440D01*
X125755317Y-97873162D01*
X125971441Y-97734090D01*
X126116431Y-97521890D01*
X126167440Y-97270000D01*
X126167440Y-96805750D01*
X127845000Y-96805750D01*
X127845000Y-97396310D01*
X127941673Y-97629699D01*
X128120302Y-97808327D01*
X128353691Y-97905000D01*
X129794250Y-97905000D01*
X129953000Y-97746250D01*
X129953000Y-96647000D01*
X128003750Y-96647000D01*
X127845000Y-96805750D01*
X126167440Y-96805750D01*
X126167440Y-95770000D01*
X126143674Y-95643690D01*
X127845000Y-95643690D01*
X127845000Y-96234250D01*
X128003750Y-96393000D01*
X129953000Y-96393000D01*
X129953000Y-95293750D01*
X130207000Y-95293750D01*
X130207000Y-96393000D01*
X130227000Y-96393000D01*
X130227000Y-96647000D01*
X130207000Y-96647000D01*
X130207000Y-97746250D01*
X130365750Y-97905000D01*
X131620198Y-97905000D01*
X131542599Y-97982599D01*
X131377852Y-98229161D01*
X131320000Y-98520000D01*
X131320000Y-99894442D01*
X131094683Y-99936838D01*
X130878559Y-100075910D01*
X130733569Y-100288110D01*
X130682560Y-100540000D01*
X130682560Y-103740000D01*
X130726838Y-103975317D01*
X130832482Y-104139493D01*
X130791673Y-104180302D01*
X130695000Y-104413691D01*
X130695000Y-105854250D01*
X130853750Y-106013000D01*
X131953000Y-106013000D01*
X131953000Y-105993000D01*
X132207000Y-105993000D01*
X132207000Y-106013000D01*
X133306250Y-106013000D01*
X133465000Y-105854250D01*
X133465000Y-104413691D01*
X133368327Y-104180302D01*
X133326366Y-104138340D01*
X133426431Y-103991890D01*
X133477440Y-103740000D01*
X133477440Y-100540000D01*
X133433162Y-100304683D01*
X133294090Y-100088559D01*
X133081890Y-99943569D01*
X132840000Y-99894585D01*
X132840000Y-98834802D01*
X133757362Y-97917440D01*
X135680000Y-97917440D01*
X135915317Y-97873162D01*
X136131441Y-97734090D01*
X136276431Y-97521890D01*
X136327440Y-97270000D01*
X136327440Y-95770000D01*
X136283162Y-95534683D01*
X136144090Y-95318559D01*
X135931890Y-95173569D01*
X135680000Y-95122560D01*
X135380000Y-95122560D01*
X135380000Y-94542463D01*
X135412192Y-94510327D01*
X135554838Y-94166799D01*
X135555162Y-93794833D01*
X135413117Y-93451057D01*
X135150327Y-93187808D01*
X134806799Y-93045162D01*
X134434833Y-93044838D01*
X134091057Y-93186883D01*
X133827808Y-93449673D01*
X133685162Y-93793201D01*
X133684838Y-94165167D01*
X133826883Y-94508943D01*
X133860000Y-94542118D01*
X133860000Y-95122560D01*
X132480000Y-95122560D01*
X132244683Y-95166838D01*
X132080507Y-95272482D01*
X132039698Y-95231673D01*
X131806309Y-95135000D01*
X130365750Y-95135000D01*
X130207000Y-95293750D01*
X129953000Y-95293750D01*
X129794250Y-95135000D01*
X128353691Y-95135000D01*
X128120302Y-95231673D01*
X127941673Y-95410301D01*
X127845000Y-95643690D01*
X126143674Y-95643690D01*
X126123162Y-95534683D01*
X125984090Y-95318559D01*
X125771890Y-95173569D01*
X125520000Y-95122560D01*
X124680000Y-95122560D01*
X124680000Y-93440000D01*
X124622148Y-93149161D01*
X124457401Y-92902599D01*
X121214802Y-89660000D01*
X128270000Y-89660000D01*
X128560839Y-89602148D01*
X128807401Y-89437401D01*
X133664802Y-84580000D01*
X138427046Y-84580000D01*
X138620853Y-84870054D01*
X138950026Y-85090000D01*
X138620853Y-85309946D01*
X138298946Y-85791715D01*
X138185907Y-86360000D01*
X138298946Y-86928285D01*
X138620853Y-87410054D01*
X138950026Y-87630000D01*
X138620853Y-87849946D01*
X138298946Y-88331715D01*
X138185907Y-88900000D01*
X138298946Y-89468285D01*
X138620853Y-89950054D01*
X139102622Y-90271961D01*
X139670907Y-90385000D01*
X139729093Y-90385000D01*
X140297378Y-90271961D01*
X140779147Y-89950054D01*
X140968345Y-89666899D01*
X140968355Y-89666924D01*
X141358642Y-90095183D01*
X141883108Y-90341486D01*
X142113000Y-90220819D01*
X142113000Y-89027000D01*
X142093000Y-89027000D01*
X142093000Y-88773000D01*
X142113000Y-88773000D01*
X142113000Y-86487000D01*
X142093000Y-86487000D01*
X142093000Y-86233000D01*
X142113000Y-86233000D01*
X142113000Y-83947000D01*
X142093000Y-83947000D01*
X142093000Y-83693000D01*
X142113000Y-83693000D01*
X142113000Y-81407000D01*
X142093000Y-81407000D01*
X142093000Y-81153000D01*
X142113000Y-81153000D01*
X142113000Y-79959181D01*
X141883108Y-79838514D01*
X141358642Y-80084817D01*
X141171192Y-80290504D01*
X141153162Y-80194683D01*
X141014090Y-79978559D01*
X140801890Y-79833569D01*
X140550000Y-79782560D01*
X138850000Y-79782560D01*
X138614683Y-79826838D01*
X138398559Y-79965910D01*
X138253569Y-80178110D01*
X138202560Y-80430000D01*
X138202560Y-82130000D01*
X138246838Y-82365317D01*
X138385910Y-82581441D01*
X138598110Y-82726431D01*
X138665541Y-82740086D01*
X138620853Y-82769946D01*
X138427046Y-83060000D01*
X133664802Y-83060000D01*
X133059776Y-82454974D01*
X133135315Y-82470000D01*
X133484685Y-82470000D01*
X133909464Y-82385506D01*
X134269574Y-82144889D01*
X134510191Y-81784779D01*
X134594685Y-81360000D01*
X134510191Y-80935221D01*
X134269574Y-80575111D01*
X133909464Y-80334494D01*
X133484685Y-80250000D01*
X133135315Y-80250000D01*
X132824458Y-80311833D01*
X132774090Y-80233559D01*
X132561890Y-80088569D01*
X132310000Y-80037560D01*
X131910000Y-80037560D01*
X131780411Y-80061944D01*
X131660000Y-80037560D01*
X131260000Y-80037560D01*
X131130411Y-80061944D01*
X131010000Y-80037560D01*
X130610000Y-80037560D01*
X130480411Y-80061944D01*
X130360000Y-80037560D01*
X129960000Y-80037560D01*
X129830411Y-80061944D01*
X129710000Y-80037560D01*
X129310000Y-80037560D01*
X129074683Y-80081838D01*
X128858559Y-80220910D01*
X128796327Y-80311990D01*
X128484685Y-80250000D01*
X128135315Y-80250000D01*
X127710536Y-80334494D01*
X127350426Y-80575111D01*
X127109809Y-80935221D01*
X127025315Y-81360000D01*
X127109809Y-81784779D01*
X127350426Y-82144889D01*
X127710536Y-82385506D01*
X128135315Y-82470000D01*
X128484685Y-82470000D01*
X128795542Y-82408167D01*
X128845910Y-82486441D01*
X129058110Y-82631431D01*
X129310000Y-82682440D01*
X129710000Y-82682440D01*
X129839589Y-82658056D01*
X129960000Y-82682440D01*
X130360000Y-82682440D01*
X130489589Y-82658056D01*
X130610000Y-82682440D01*
X131010000Y-82682440D01*
X131139589Y-82658056D01*
X131260000Y-82682440D01*
X131370377Y-82682440D01*
X131407852Y-82870839D01*
X131572599Y-83117401D01*
X132275198Y-83820000D01*
X127955198Y-88140000D01*
X123908251Y-88140000D01*
X124147800Y-88041020D01*
X124748909Y-87440959D01*
X125074628Y-86656541D01*
X125075370Y-85807185D01*
X124751020Y-85022200D01*
X124150959Y-84421091D01*
X123366541Y-84095372D01*
X122517185Y-84094630D01*
X121732200Y-84418980D01*
X121131091Y-85019041D01*
X120805372Y-85803459D01*
X120804630Y-86652815D01*
X121128980Y-87437800D01*
X121729041Y-88038909D01*
X121972495Y-88140000D01*
X120564547Y-88140000D01*
X120554831Y-88116485D01*
X120165564Y-87726539D01*
X119656702Y-87515241D01*
X119105715Y-87514760D01*
X118596485Y-87725169D01*
X118206539Y-88114436D01*
X118110024Y-88346870D01*
X118014831Y-88116485D01*
X117625564Y-87726539D01*
X117116702Y-87515241D01*
X116565715Y-87514760D01*
X116056485Y-87725169D01*
X115824938Y-87956313D01*
X115595564Y-87726539D01*
X115086702Y-87515241D01*
X114535715Y-87514760D01*
X114026485Y-87725169D01*
X113636539Y-88114436D01*
X113540024Y-88346870D01*
X113444831Y-88116485D01*
X113055564Y-87726539D01*
X112546702Y-87515241D01*
X111995715Y-87514760D01*
X111486485Y-87725169D01*
X111096539Y-88114436D01*
X110885241Y-88623298D01*
X110884760Y-89174285D01*
X111095169Y-89683515D01*
X111484436Y-90073461D01*
X111993298Y-90284759D01*
X112544285Y-90285240D01*
X113053515Y-90074831D01*
X113443461Y-89685564D01*
X113539976Y-89453130D01*
X113635169Y-89683515D01*
X114024436Y-90073461D01*
X114050000Y-90084076D01*
X114050000Y-97030000D01*
X114107852Y-97320839D01*
X114272599Y-97567401D01*
X114696758Y-97991560D01*
X113617000Y-97991560D01*
X113381683Y-98035838D01*
X113165559Y-98174910D01*
X113020569Y-98387110D01*
X112969560Y-98639000D01*
X112969560Y-98916758D01*
X112575401Y-98522599D01*
X112328839Y-98357852D01*
X112038000Y-98300000D01*
X110492954Y-98300000D01*
X110299147Y-98009946D01*
X110257548Y-97982150D01*
X110305317Y-97973162D01*
X110521441Y-97834090D01*
X110666431Y-97621890D01*
X110717440Y-97370000D01*
X110717440Y-95670000D01*
X110673162Y-95434683D01*
X110534090Y-95218559D01*
X110321890Y-95073569D01*
X110070000Y-95022560D01*
X108370000Y-95022560D01*
X108134683Y-95066838D01*
X108077000Y-95103956D01*
X108077000Y-88067128D01*
X108793459Y-88364628D01*
X109642815Y-88365370D01*
X110427800Y-88041020D01*
X111028909Y-87440959D01*
X111354628Y-86656541D01*
X111355370Y-85807185D01*
X111031020Y-85022200D01*
X110430959Y-84421091D01*
X109646541Y-84095372D01*
X108797185Y-84094630D01*
X108077000Y-84392205D01*
X108077000Y-77597000D01*
X126479244Y-77597000D01*
X126261397Y-77923030D01*
X126261397Y-77923030D01*
G37*
X126261397Y-77923030D02*
X126175000Y-78357376D01*
X126175000Y-78962624D01*
X126261397Y-79396970D01*
X126507434Y-79765190D01*
X126875654Y-80011227D01*
X127310000Y-80097624D01*
X127744346Y-80011227D01*
X128112566Y-79765190D01*
X128358603Y-79396970D01*
X128445000Y-78962624D01*
X128445000Y-78357376D01*
X128358603Y-77923030D01*
X128140756Y-77597000D01*
X133479244Y-77597000D01*
X133261397Y-77923030D01*
X133175000Y-78357376D01*
X133175000Y-78962624D01*
X133261397Y-79396970D01*
X133507434Y-79765190D01*
X133875654Y-80011227D01*
X134310000Y-80097624D01*
X134744346Y-80011227D01*
X135112566Y-79765190D01*
X135358603Y-79396970D01*
X135445000Y-78962624D01*
X135445000Y-78357376D01*
X135358603Y-77923030D01*
X135140756Y-77597000D01*
X143383000Y-77597000D01*
X143383000Y-80371915D01*
X143121358Y-80084817D01*
X142596892Y-79838514D01*
X142367000Y-79959181D01*
X142367000Y-81153000D01*
X142387000Y-81153000D01*
X142387000Y-81407000D01*
X142367000Y-81407000D01*
X142367000Y-83693000D01*
X142387000Y-83693000D01*
X142387000Y-83947000D01*
X142367000Y-83947000D01*
X142367000Y-86233000D01*
X142387000Y-86233000D01*
X142387000Y-86487000D01*
X142367000Y-86487000D01*
X142367000Y-88773000D01*
X142387000Y-88773000D01*
X142387000Y-89027000D01*
X142367000Y-89027000D01*
X142367000Y-90220819D01*
X142596892Y-90341486D01*
X143121358Y-90095183D01*
X143383000Y-89808085D01*
X143383000Y-95101658D01*
X143341890Y-95073569D01*
X143090000Y-95022560D01*
X141390000Y-95022560D01*
X141154683Y-95066838D01*
X140938559Y-95205910D01*
X140793569Y-95418110D01*
X140742560Y-95670000D01*
X140742560Y-97370000D01*
X140786838Y-97605317D01*
X140925910Y-97821441D01*
X141138110Y-97966431D01*
X141246107Y-97988301D01*
X140968355Y-98293076D01*
X140798524Y-98703110D01*
X140919845Y-98933000D01*
X142113000Y-98933000D01*
X142113000Y-98913000D01*
X142367000Y-98913000D01*
X142367000Y-98933000D01*
X142387000Y-98933000D01*
X142387000Y-99187000D01*
X142367000Y-99187000D01*
X142367000Y-99207000D01*
X142113000Y-99207000D01*
X142113000Y-99187000D01*
X140919845Y-99187000D01*
X140798524Y-99416890D01*
X140968355Y-99826924D01*
X141358642Y-100255183D01*
X141501553Y-100322298D01*
X141160853Y-100549946D01*
X140967046Y-100840000D01*
X140406000Y-100840000D01*
X140115161Y-100897852D01*
X139985591Y-100984427D01*
X139985375Y-100980566D01*
X139842328Y-100635219D01*
X139621776Y-100579640D01*
X139818441Y-100453090D01*
X139963431Y-100240890D01*
X140014440Y-99989000D01*
X140014440Y-98639000D01*
X139970162Y-98403683D01*
X139831090Y-98187559D01*
X139618890Y-98042569D01*
X139367000Y-97991560D01*
X138017000Y-97991560D01*
X137781683Y-98035838D01*
X137565559Y-98174910D01*
X137420569Y-98387110D01*
X137369560Y-98639000D01*
X137369560Y-99989000D01*
X137413838Y-100224317D01*
X137552910Y-100440441D01*
X137758141Y-100580669D01*
X137541672Y-100635219D01*
X137369478Y-101127100D01*
X137398625Y-101647434D01*
X137541672Y-101992781D01*
X137774853Y-102051542D01*
X138512395Y-101314000D01*
X138498253Y-101299858D01*
X138677858Y-101120253D01*
X138692000Y-101134395D01*
X138706143Y-101120253D01*
X138885748Y-101299858D01*
X138871605Y-101314000D01*
X138885748Y-101328143D01*
X138706143Y-101507748D01*
X138692000Y-101493605D01*
X138005279Y-102180326D01*
X137950914Y-102202789D01*
X137582084Y-102570976D01*
X137382228Y-103052282D01*
X137381795Y-103549403D01*
X133465000Y-107466198D01*
X133465000Y-106425750D01*
X133306250Y-106267000D01*
X132207000Y-106267000D01*
X132207000Y-108216250D01*
X132365750Y-108375000D01*
X132556198Y-108375000D01*
X130292599Y-110638599D01*
X130127852Y-110885161D01*
X130070000Y-111176000D01*
X130070000Y-111759442D01*
X129844683Y-111801838D01*
X129628559Y-111940910D01*
X129483569Y-112153110D01*
X129459894Y-112270021D01*
X129169160Y-112327852D01*
X128922599Y-112492599D01*
X127875198Y-113540000D01*
X124774802Y-113540000D01*
X118810552Y-107575750D01*
X123195000Y-107575750D01*
X123195000Y-108416309D01*
X123291673Y-108649698D01*
X123470301Y-108828327D01*
X123703690Y-108925000D01*
X125444250Y-108925000D01*
X125603000Y-108766250D01*
X125603000Y-107417000D01*
X125857000Y-107417000D01*
X125857000Y-108766250D01*
X126015750Y-108925000D01*
X127756310Y-108925000D01*
X127989699Y-108828327D01*
X128168327Y-108649698D01*
X128265000Y-108416309D01*
X128265000Y-107575750D01*
X128106250Y-107417000D01*
X125857000Y-107417000D01*
X125603000Y-107417000D01*
X123353750Y-107417000D01*
X123195000Y-107575750D01*
X118810552Y-107575750D01*
X117403461Y-106168659D01*
X117474954Y-106097290D01*
X117579673Y-106202192D01*
X117923201Y-106344838D01*
X118295167Y-106345162D01*
X118638943Y-106203117D01*
X118678437Y-106163691D01*
X123195000Y-106163691D01*
X123195000Y-107004250D01*
X123353750Y-107163000D01*
X125603000Y-107163000D01*
X125603000Y-105813750D01*
X125857000Y-105813750D01*
X125857000Y-107163000D01*
X128106250Y-107163000D01*
X128265000Y-107004250D01*
X128265000Y-106425750D01*
X130695000Y-106425750D01*
X130695000Y-107866309D01*
X130791673Y-108099698D01*
X130970301Y-108278327D01*
X131203690Y-108375000D01*
X131794250Y-108375000D01*
X131953000Y-108216250D01*
X131953000Y-106267000D01*
X130853750Y-106267000D01*
X130695000Y-106425750D01*
X128265000Y-106425750D01*
X128265000Y-106163691D01*
X128168327Y-105930302D01*
X127989699Y-105751673D01*
X127756310Y-105655000D01*
X126015750Y-105655000D01*
X125857000Y-105813750D01*
X125603000Y-105813750D01*
X125444250Y-105655000D01*
X123703690Y-105655000D01*
X123470301Y-105751673D01*
X123291673Y-105930302D01*
X123195000Y-106163691D01*
X118678437Y-106163691D01*
X118902192Y-105940327D01*
X119044838Y-105596799D01*
X119044879Y-105549923D01*
X122191420Y-102403382D01*
X122215910Y-102441441D01*
X122428110Y-102586431D01*
X122680000Y-102637440D01*
X124180000Y-102637440D01*
X124415317Y-102593162D01*
X124579492Y-102487518D01*
X124620301Y-102528327D01*
X124853690Y-102625000D01*
X125444250Y-102625000D01*
X125603000Y-102466250D01*
X125603000Y-101117000D01*
X125583000Y-101117000D01*
X125583000Y-100863000D01*
X125603000Y-100863000D01*
X125603000Y-99513750D01*
X125857000Y-99513750D01*
X125857000Y-100863000D01*
X125877000Y-100863000D01*
X125877000Y-101117000D01*
X125857000Y-101117000D01*
X125857000Y-102466250D01*
X126015750Y-102625000D01*
X126606310Y-102625000D01*
X126839699Y-102528327D01*
X126881660Y-102486366D01*
X127028110Y-102586431D01*
X127280000Y-102637440D01*
X128780000Y-102637440D01*
X129015317Y-102593162D01*
X129231441Y-102454090D01*
X129376431Y-102241890D01*
X129427440Y-101990000D01*
X129427440Y-99990000D01*
X129383162Y-99754683D01*
X129244090Y-99538559D01*
X129119139Y-99453184D01*
X129204838Y-99246799D01*
X129205162Y-98874833D01*
X129063117Y-98531057D01*
X128800327Y-98267808D01*
X128456799Y-98125162D01*
X128084833Y-98124838D01*
X127741057Y-98266883D01*
X127477808Y-98529673D01*
X127335162Y-98873201D01*
X127335053Y-98998384D01*
X127327852Y-99009161D01*
X127270000Y-99300000D01*
X127270000Y-99344442D01*
X127044683Y-99386838D01*
X126880508Y-99492482D01*
X126839699Y-99451673D01*
X126606310Y-99355000D01*
X126015750Y-99355000D01*
X125857000Y-99513750D01*
X125603000Y-99513750D01*
X125444250Y-99355000D01*
X124853690Y-99355000D01*
X124680000Y-99426945D01*
X124680000Y-97917440D01*
X125520000Y-97917440D01*
X125755317Y-97873162D01*
X125971441Y-97734090D01*
X126116431Y-97521890D01*
X126167440Y-97270000D01*
X126167440Y-96805750D01*
X127845000Y-96805750D01*
X127845000Y-97396310D01*
X127941673Y-97629699D01*
X128120302Y-97808327D01*
X128353691Y-97905000D01*
X129794250Y-97905000D01*
X129953000Y-97746250D01*
X129953000Y-96647000D01*
X128003750Y-96647000D01*
X127845000Y-96805750D01*
X126167440Y-96805750D01*
X126167440Y-95770000D01*
X126143674Y-95643690D01*
X127845000Y-95643690D01*
X127845000Y-96234250D01*
X128003750Y-96393000D01*
X129953000Y-96393000D01*
X129953000Y-95293750D01*
X130207000Y-95293750D01*
X130207000Y-96393000D01*
X130227000Y-96393000D01*
X130227000Y-96647000D01*
X130207000Y-96647000D01*
X130207000Y-97746250D01*
X130365750Y-97905000D01*
X131620198Y-97905000D01*
X131542599Y-97982599D01*
X131377852Y-98229161D01*
X131320000Y-98520000D01*
X131320000Y-99894442D01*
X131094683Y-99936838D01*
X130878559Y-100075910D01*
X130733569Y-100288110D01*
X130682560Y-100540000D01*
X130682560Y-103740000D01*
X130726838Y-103975317D01*
X130832482Y-104139493D01*
X130791673Y-104180302D01*
X130695000Y-104413691D01*
X130695000Y-105854250D01*
X130853750Y-106013000D01*
X131953000Y-106013000D01*
X131953000Y-105993000D01*
X132207000Y-105993000D01*
X132207000Y-106013000D01*
X133306250Y-106013000D01*
X133465000Y-105854250D01*
X133465000Y-104413691D01*
X133368327Y-104180302D01*
X133326366Y-104138340D01*
X133426431Y-103991890D01*
X133477440Y-103740000D01*
X133477440Y-100540000D01*
X133433162Y-100304683D01*
X133294090Y-100088559D01*
X133081890Y-99943569D01*
X132840000Y-99894585D01*
X132840000Y-98834802D01*
X133757362Y-97917440D01*
X135680000Y-97917440D01*
X135915317Y-97873162D01*
X136131441Y-97734090D01*
X136276431Y-97521890D01*
X136327440Y-97270000D01*
X136327440Y-95770000D01*
X136283162Y-95534683D01*
X136144090Y-95318559D01*
X135931890Y-95173569D01*
X135680000Y-95122560D01*
X135380000Y-95122560D01*
X135380000Y-94542463D01*
X135412192Y-94510327D01*
X135554838Y-94166799D01*
X135555162Y-93794833D01*
X135413117Y-93451057D01*
X135150327Y-93187808D01*
X134806799Y-93045162D01*
X134434833Y-93044838D01*
X134091057Y-93186883D01*
X133827808Y-93449673D01*
X133685162Y-93793201D01*
X133684838Y-94165167D01*
X133826883Y-94508943D01*
X133860000Y-94542118D01*
X133860000Y-95122560D01*
X132480000Y-95122560D01*
X132244683Y-95166838D01*
X132080507Y-95272482D01*
X132039698Y-95231673D01*
X131806309Y-95135000D01*
X130365750Y-95135000D01*
X130207000Y-95293750D01*
X129953000Y-95293750D01*
X129794250Y-95135000D01*
X128353691Y-95135000D01*
X128120302Y-95231673D01*
X127941673Y-95410301D01*
X127845000Y-95643690D01*
X126143674Y-95643690D01*
X126123162Y-95534683D01*
X125984090Y-95318559D01*
X125771890Y-95173569D01*
X125520000Y-95122560D01*
X124680000Y-95122560D01*
X124680000Y-93440000D01*
X124622148Y-93149161D01*
X124457401Y-92902599D01*
X121214802Y-89660000D01*
X128270000Y-89660000D01*
X128560839Y-89602148D01*
X128807401Y-89437401D01*
X133664802Y-84580000D01*
X138427046Y-84580000D01*
X138620853Y-84870054D01*
X138950026Y-85090000D01*
X138620853Y-85309946D01*
X138298946Y-85791715D01*
X138185907Y-86360000D01*
X138298946Y-86928285D01*
X138620853Y-87410054D01*
X138950026Y-87630000D01*
X138620853Y-87849946D01*
X138298946Y-88331715D01*
X138185907Y-88900000D01*
X138298946Y-89468285D01*
X138620853Y-89950054D01*
X139102622Y-90271961D01*
X139670907Y-90385000D01*
X139729093Y-90385000D01*
X140297378Y-90271961D01*
X140779147Y-89950054D01*
X140968345Y-89666899D01*
X140968355Y-89666924D01*
X141358642Y-90095183D01*
X141883108Y-90341486D01*
X142113000Y-90220819D01*
X142113000Y-89027000D01*
X142093000Y-89027000D01*
X142093000Y-88773000D01*
X142113000Y-88773000D01*
X142113000Y-86487000D01*
X142093000Y-86487000D01*
X142093000Y-86233000D01*
X142113000Y-86233000D01*
X142113000Y-83947000D01*
X142093000Y-83947000D01*
X142093000Y-83693000D01*
X142113000Y-83693000D01*
X142113000Y-81407000D01*
X142093000Y-81407000D01*
X142093000Y-81153000D01*
X142113000Y-81153000D01*
X142113000Y-79959181D01*
X141883108Y-79838514D01*
X141358642Y-80084817D01*
X141171192Y-80290504D01*
X141153162Y-80194683D01*
X141014090Y-79978559D01*
X140801890Y-79833569D01*
X140550000Y-79782560D01*
X138850000Y-79782560D01*
X138614683Y-79826838D01*
X138398559Y-79965910D01*
X138253569Y-80178110D01*
X138202560Y-80430000D01*
X138202560Y-82130000D01*
X138246838Y-82365317D01*
X138385910Y-82581441D01*
X138598110Y-82726431D01*
X138665541Y-82740086D01*
X138620853Y-82769946D01*
X138427046Y-83060000D01*
X133664802Y-83060000D01*
X133059776Y-82454974D01*
X133135315Y-82470000D01*
X133484685Y-82470000D01*
X133909464Y-82385506D01*
X134269574Y-82144889D01*
X134510191Y-81784779D01*
X134594685Y-81360000D01*
X134510191Y-80935221D01*
X134269574Y-80575111D01*
X133909464Y-80334494D01*
X133484685Y-80250000D01*
X133135315Y-80250000D01*
X132824458Y-80311833D01*
X132774090Y-80233559D01*
X132561890Y-80088569D01*
X132310000Y-80037560D01*
X131910000Y-80037560D01*
X131780411Y-80061944D01*
X131660000Y-80037560D01*
X131260000Y-80037560D01*
X131130411Y-80061944D01*
X131010000Y-80037560D01*
X130610000Y-80037560D01*
X130480411Y-80061944D01*
X130360000Y-80037560D01*
X129960000Y-80037560D01*
X129830411Y-80061944D01*
X129710000Y-80037560D01*
X129310000Y-80037560D01*
X129074683Y-80081838D01*
X128858559Y-80220910D01*
X128796327Y-80311990D01*
X128484685Y-80250000D01*
X128135315Y-80250000D01*
X127710536Y-80334494D01*
X127350426Y-80575111D01*
X127109809Y-80935221D01*
X127025315Y-81360000D01*
X127109809Y-81784779D01*
X127350426Y-82144889D01*
X127710536Y-82385506D01*
X128135315Y-82470000D01*
X128484685Y-82470000D01*
X128795542Y-82408167D01*
X128845910Y-82486441D01*
X129058110Y-82631431D01*
X129310000Y-82682440D01*
X129710000Y-82682440D01*
X129839589Y-82658056D01*
X129960000Y-82682440D01*
X130360000Y-82682440D01*
X130489589Y-82658056D01*
X130610000Y-82682440D01*
X131010000Y-82682440D01*
X131139589Y-82658056D01*
X131260000Y-82682440D01*
X131370377Y-82682440D01*
X131407852Y-82870839D01*
X131572599Y-83117401D01*
X132275198Y-83820000D01*
X127955198Y-88140000D01*
X123908251Y-88140000D01*
X124147800Y-88041020D01*
X124748909Y-87440959D01*
X125074628Y-86656541D01*
X125075370Y-85807185D01*
X124751020Y-85022200D01*
X124150959Y-84421091D01*
X123366541Y-84095372D01*
X122517185Y-84094630D01*
X121732200Y-84418980D01*
X121131091Y-85019041D01*
X120805372Y-85803459D01*
X120804630Y-86652815D01*
X121128980Y-87437800D01*
X121729041Y-88038909D01*
X121972495Y-88140000D01*
X120564547Y-88140000D01*
X120554831Y-88116485D01*
X120165564Y-87726539D01*
X119656702Y-87515241D01*
X119105715Y-87514760D01*
X118596485Y-87725169D01*
X118206539Y-88114436D01*
X118110024Y-88346870D01*
X118014831Y-88116485D01*
X117625564Y-87726539D01*
X117116702Y-87515241D01*
X116565715Y-87514760D01*
X116056485Y-87725169D01*
X115824938Y-87956313D01*
X115595564Y-87726539D01*
X115086702Y-87515241D01*
X114535715Y-87514760D01*
X114026485Y-87725169D01*
X113636539Y-88114436D01*
X113540024Y-88346870D01*
X113444831Y-88116485D01*
X113055564Y-87726539D01*
X112546702Y-87515241D01*
X111995715Y-87514760D01*
X111486485Y-87725169D01*
X111096539Y-88114436D01*
X110885241Y-88623298D01*
X110884760Y-89174285D01*
X111095169Y-89683515D01*
X111484436Y-90073461D01*
X111993298Y-90284759D01*
X112544285Y-90285240D01*
X113053515Y-90074831D01*
X113443461Y-89685564D01*
X113539976Y-89453130D01*
X113635169Y-89683515D01*
X114024436Y-90073461D01*
X114050000Y-90084076D01*
X114050000Y-97030000D01*
X114107852Y-97320839D01*
X114272599Y-97567401D01*
X114696758Y-97991560D01*
X113617000Y-97991560D01*
X113381683Y-98035838D01*
X113165559Y-98174910D01*
X113020569Y-98387110D01*
X112969560Y-98639000D01*
X112969560Y-98916758D01*
X112575401Y-98522599D01*
X112328839Y-98357852D01*
X112038000Y-98300000D01*
X110492954Y-98300000D01*
X110299147Y-98009946D01*
X110257548Y-97982150D01*
X110305317Y-97973162D01*
X110521441Y-97834090D01*
X110666431Y-97621890D01*
X110717440Y-97370000D01*
X110717440Y-95670000D01*
X110673162Y-95434683D01*
X110534090Y-95218559D01*
X110321890Y-95073569D01*
X110070000Y-95022560D01*
X108370000Y-95022560D01*
X108134683Y-95066838D01*
X108077000Y-95103956D01*
X108077000Y-88067128D01*
X108793459Y-88364628D01*
X109642815Y-88365370D01*
X110427800Y-88041020D01*
X111028909Y-87440959D01*
X111354628Y-86656541D01*
X111355370Y-85807185D01*
X111031020Y-85022200D01*
X110430959Y-84421091D01*
X109646541Y-84095372D01*
X108797185Y-84094630D01*
X108077000Y-84392205D01*
X108077000Y-77597000D01*
X126479244Y-77597000D01*
X126261397Y-77923030D01*
M02*
