G04 #@! TF.FileFunction,Copper,L2,Bot,Signal*
%FSLAX46Y46*%
G04 Gerber Fmt 4.6, Leading zero omitted, Abs format (unit mm)*
G04 Created by KiCad (PCBNEW 4.0.5) date 02/22/17 14:43:09*
%MOMM*%
%LPD*%
G01*
G04 APERTURE LIST*
%ADD10C,0.100000*%
%ADD11C,1.350000*%
%ADD12R,1.350000X1.350000*%
%ADD13O,1.250000X0.950000*%
%ADD14O,1.000000X1.550000*%
%ADD15C,1.500000*%
%ADD16C,3.000000*%
%ADD17R,1.700000X1.700000*%
%ADD18O,1.700000X1.700000*%
%ADD19C,0.600000*%
%ADD20C,0.250000*%
%ADD21C,0.254000*%
G04 APERTURE END LIST*
D10*
D11*
X138692000Y-129314000D03*
X138692000Y-127314000D03*
X138692000Y-125314000D03*
X138692000Y-123314000D03*
X138692000Y-121314000D03*
X138692000Y-119314000D03*
X138692000Y-117314000D03*
X138692000Y-115314000D03*
X138692000Y-113314000D03*
X138692000Y-111314000D03*
X138692000Y-109314000D03*
X138692000Y-107314000D03*
X138692000Y-105314000D03*
X138692000Y-103314000D03*
X138692000Y-101314000D03*
D12*
X138692000Y-99314000D03*
X114292000Y-99314000D03*
D11*
X114292000Y-101314000D03*
X114292000Y-103314000D03*
X114292000Y-105314000D03*
X114292000Y-107314000D03*
X114292000Y-109314000D03*
X114292000Y-111314000D03*
X114292000Y-113314000D03*
X114292000Y-115314000D03*
X114292000Y-117314000D03*
X114292000Y-119314000D03*
X114292000Y-121314000D03*
X114292000Y-123314000D03*
X114292000Y-125314000D03*
X114292000Y-127314000D03*
X114292000Y-129314000D03*
D13*
X133310000Y-81360000D03*
X128310000Y-81360000D03*
D14*
X134310000Y-78660000D03*
X127310000Y-78660000D03*
D15*
X112270000Y-88900000D03*
X114810000Y-88900000D03*
X116840000Y-88900000D03*
X119380000Y-88900000D03*
D16*
X109220000Y-86230000D03*
X122940000Y-86230000D03*
D17*
X109220000Y-96520000D03*
D18*
X109220000Y-99060000D03*
X109220000Y-101600000D03*
X109220000Y-104140000D03*
X109220000Y-106680000D03*
X109220000Y-109220000D03*
X109220000Y-111760000D03*
X109220000Y-114300000D03*
X109220000Y-116840000D03*
X109220000Y-119380000D03*
X109220000Y-121920000D03*
X109220000Y-124460000D03*
X109220000Y-127000000D03*
X109220000Y-129540000D03*
X109220000Y-132080000D03*
X109220000Y-134620000D03*
D17*
X142240000Y-96520000D03*
D18*
X142240000Y-99060000D03*
X142240000Y-101600000D03*
X142240000Y-104140000D03*
X142240000Y-106680000D03*
X142240000Y-109220000D03*
X142240000Y-111760000D03*
X142240000Y-114300000D03*
X142240000Y-116840000D03*
X142240000Y-119380000D03*
X142240000Y-121920000D03*
X142240000Y-124460000D03*
X142240000Y-127000000D03*
X142240000Y-129540000D03*
X142240000Y-132080000D03*
X142240000Y-134620000D03*
D17*
X139700000Y-81280000D03*
D18*
X142240000Y-81280000D03*
X139700000Y-83820000D03*
X142240000Y-83820000D03*
X139700000Y-86360000D03*
X142240000Y-86360000D03*
X139700000Y-88900000D03*
X142240000Y-88900000D03*
D19*
X128270000Y-99060000D03*
X134620000Y-93980000D03*
X135890000Y-113030000D03*
X135890000Y-120650000D03*
X120650000Y-111760000D03*
X120650000Y-118110000D03*
X119380000Y-93980000D03*
X116840000Y-115570000D03*
X116840000Y-105410000D03*
X119380000Y-114300000D03*
X118110000Y-105410000D03*
X118110000Y-118110000D03*
D20*
X116840000Y-105410000D02*
X116840000Y-115570000D01*
X119380000Y-114300000D02*
X118110000Y-113030000D01*
X118110000Y-118110000D02*
X118110000Y-113030000D01*
X118110000Y-113030000D02*
X118110000Y-105410000D01*
D21*
G36*
X126309998Y-77833322D02*
X126175000Y-78258000D01*
X126175000Y-78533000D01*
X127183000Y-78533000D01*
X127183000Y-78513000D01*
X127437000Y-78513000D01*
X127437000Y-78533000D01*
X128445000Y-78533000D01*
X128445000Y-78258000D01*
X128310002Y-77833322D01*
X128110757Y-77597000D01*
X133509243Y-77597000D01*
X133309998Y-77833322D01*
X133175000Y-78258000D01*
X133175000Y-78533000D01*
X134183000Y-78533000D01*
X134183000Y-78513000D01*
X134437000Y-78513000D01*
X134437000Y-78533000D01*
X135445000Y-78533000D01*
X135445000Y-78258000D01*
X135310002Y-77833322D01*
X135110757Y-77597000D01*
X143383000Y-77597000D01*
X143383000Y-80325509D01*
X143319147Y-80229946D01*
X142837378Y-79908039D01*
X142269093Y-79795000D01*
X142210907Y-79795000D01*
X141642622Y-79908039D01*
X141160853Y-80229946D01*
X141160029Y-80231179D01*
X141153162Y-80194683D01*
X141014090Y-79978559D01*
X140801890Y-79833569D01*
X140550000Y-79782560D01*
X138850000Y-79782560D01*
X138614683Y-79826838D01*
X138398559Y-79965910D01*
X138253569Y-80178110D01*
X138202560Y-80430000D01*
X138202560Y-82130000D01*
X138246838Y-82365317D01*
X138385910Y-82581441D01*
X138598110Y-82726431D01*
X138665541Y-82740086D01*
X138620853Y-82769946D01*
X138298946Y-83251715D01*
X138185907Y-83820000D01*
X138298946Y-84388285D01*
X138620853Y-84870054D01*
X138961553Y-85097702D01*
X138818642Y-85164817D01*
X138428355Y-85593076D01*
X138258524Y-86003110D01*
X138379845Y-86233000D01*
X139573000Y-86233000D01*
X139573000Y-86213000D01*
X139827000Y-86213000D01*
X139827000Y-86233000D01*
X139847000Y-86233000D01*
X139847000Y-86487000D01*
X139827000Y-86487000D01*
X139827000Y-88773000D01*
X139847000Y-88773000D01*
X139847000Y-89027000D01*
X139827000Y-89027000D01*
X139827000Y-90220819D01*
X140056892Y-90341486D01*
X140581358Y-90095183D01*
X140971645Y-89666924D01*
X140971655Y-89666899D01*
X141160853Y-89950054D01*
X141642622Y-90271961D01*
X142210907Y-90385000D01*
X142269093Y-90385000D01*
X142837378Y-90271961D01*
X143319147Y-89950054D01*
X143383000Y-89854491D01*
X143383000Y-95104046D01*
X143216309Y-95035000D01*
X142525750Y-95035000D01*
X142367000Y-95193750D01*
X142367000Y-96393000D01*
X142387000Y-96393000D01*
X142387000Y-96647000D01*
X142367000Y-96647000D01*
X142367000Y-96667000D01*
X142113000Y-96667000D01*
X142113000Y-96647000D01*
X140913750Y-96647000D01*
X140755000Y-96805750D01*
X140755000Y-97496310D01*
X140851673Y-97729699D01*
X141030302Y-97908327D01*
X141204777Y-97980597D01*
X141160853Y-98009946D01*
X140838946Y-98491715D01*
X140725907Y-99060000D01*
X140838946Y-99628285D01*
X141160853Y-100110054D01*
X141490026Y-100330000D01*
X141160853Y-100549946D01*
X140838946Y-101031715D01*
X140725907Y-101600000D01*
X140838946Y-102168285D01*
X141160853Y-102650054D01*
X141490026Y-102870000D01*
X141160853Y-103089946D01*
X140838946Y-103571715D01*
X140725907Y-104140000D01*
X140838946Y-104708285D01*
X141160853Y-105190054D01*
X141490026Y-105410000D01*
X141160853Y-105629946D01*
X140838946Y-106111715D01*
X140725907Y-106680000D01*
X140838946Y-107248285D01*
X141160853Y-107730054D01*
X141490026Y-107950000D01*
X141160853Y-108169946D01*
X140838946Y-108651715D01*
X140725907Y-109220000D01*
X140838946Y-109788285D01*
X141160853Y-110270054D01*
X141490026Y-110490000D01*
X141160853Y-110709946D01*
X140838946Y-111191715D01*
X140725907Y-111760000D01*
X140838946Y-112328285D01*
X141160853Y-112810054D01*
X141490026Y-113030000D01*
X141160853Y-113249946D01*
X140838946Y-113731715D01*
X140725907Y-114300000D01*
X140838946Y-114868285D01*
X141160853Y-115350054D01*
X141490026Y-115570000D01*
X141160853Y-115789946D01*
X140838946Y-116271715D01*
X140725907Y-116840000D01*
X140838946Y-117408285D01*
X141160853Y-117890054D01*
X141490026Y-118110000D01*
X141160853Y-118329946D01*
X140838946Y-118811715D01*
X140725907Y-119380000D01*
X140838946Y-119948285D01*
X141160853Y-120430054D01*
X141490026Y-120650000D01*
X141160853Y-120869946D01*
X140838946Y-121351715D01*
X140725907Y-121920000D01*
X140838946Y-122488285D01*
X141160853Y-122970054D01*
X141490026Y-123190000D01*
X141160853Y-123409946D01*
X140838946Y-123891715D01*
X140725907Y-124460000D01*
X140838946Y-125028285D01*
X141160853Y-125510054D01*
X141490026Y-125730000D01*
X141160853Y-125949946D01*
X140838946Y-126431715D01*
X140725907Y-127000000D01*
X140838946Y-127568285D01*
X141160853Y-128050054D01*
X141490026Y-128270000D01*
X141160853Y-128489946D01*
X140838946Y-128971715D01*
X140725907Y-129540000D01*
X140838946Y-130108285D01*
X141160853Y-130590054D01*
X141490026Y-130810000D01*
X141160853Y-131029946D01*
X140838946Y-131511715D01*
X140725907Y-132080000D01*
X140838946Y-132648285D01*
X141160853Y-133130054D01*
X141490026Y-133350000D01*
X141160853Y-133569946D01*
X140838946Y-134051715D01*
X140725907Y-134620000D01*
X140838946Y-135188285D01*
X141160853Y-135670054D01*
X141299957Y-135763000D01*
X110160043Y-135763000D01*
X110299147Y-135670054D01*
X110621054Y-135188285D01*
X110734093Y-134620000D01*
X110621054Y-134051715D01*
X110299147Y-133569946D01*
X109969974Y-133350000D01*
X110299147Y-133130054D01*
X110621054Y-132648285D01*
X110734093Y-132080000D01*
X110621054Y-131511715D01*
X110299147Y-131029946D01*
X109969974Y-130810000D01*
X110299147Y-130590054D01*
X110621054Y-130108285D01*
X110734093Y-129540000D01*
X110621054Y-128971715D01*
X110299147Y-128489946D01*
X109969974Y-128270000D01*
X110299147Y-128050054D01*
X110621054Y-127568285D01*
X110734093Y-127000000D01*
X110621054Y-126431715D01*
X110299147Y-125949946D01*
X109969974Y-125730000D01*
X110299147Y-125510054D01*
X110621054Y-125028285D01*
X110734093Y-124460000D01*
X110621054Y-123891715D01*
X110299147Y-123409946D01*
X109969974Y-123190000D01*
X110299147Y-122970054D01*
X110621054Y-122488285D01*
X110734093Y-121920000D01*
X110621054Y-121351715D01*
X110299147Y-120869946D01*
X109969974Y-120650000D01*
X110299147Y-120430054D01*
X110621054Y-119948285D01*
X110734093Y-119380000D01*
X110621054Y-118811715D01*
X110299147Y-118329946D01*
X109969974Y-118110000D01*
X110299147Y-117890054D01*
X110621054Y-117408285D01*
X110734093Y-116840000D01*
X110621054Y-116271715D01*
X110299147Y-115789946D01*
X109969974Y-115570000D01*
X110299147Y-115350054D01*
X110621054Y-114868285D01*
X110734093Y-114300000D01*
X110621054Y-113731715D01*
X110299147Y-113249946D01*
X109969974Y-113030000D01*
X110299147Y-112810054D01*
X110621054Y-112328285D01*
X110734093Y-111760000D01*
X110621054Y-111191715D01*
X110299147Y-110709946D01*
X109969974Y-110490000D01*
X110299147Y-110270054D01*
X110621054Y-109788285D01*
X110734093Y-109220000D01*
X110621054Y-108651715D01*
X110299147Y-108169946D01*
X109969974Y-107950000D01*
X110299147Y-107730054D01*
X110621054Y-107248285D01*
X110734093Y-106680000D01*
X110621054Y-106111715D01*
X110299147Y-105629946D01*
X109969974Y-105410000D01*
X110299147Y-105190054D01*
X110621054Y-104708285D01*
X110734093Y-104140000D01*
X110621054Y-103571715D01*
X110299147Y-103089946D01*
X109969974Y-102870000D01*
X110299147Y-102650054D01*
X110621054Y-102168285D01*
X110734093Y-101600000D01*
X110728809Y-101573432D01*
X112981774Y-101573432D01*
X113180789Y-102055086D01*
X113439380Y-102314129D01*
X113182084Y-102570976D01*
X112982228Y-103052282D01*
X112981774Y-103573432D01*
X113180789Y-104055086D01*
X113439380Y-104314129D01*
X113182084Y-104570976D01*
X112982228Y-105052282D01*
X112981774Y-105573432D01*
X113180789Y-106055086D01*
X113439380Y-106314129D01*
X113182084Y-106570976D01*
X112982228Y-107052282D01*
X112981774Y-107573432D01*
X113180789Y-108055086D01*
X113439380Y-108314129D01*
X113182084Y-108570976D01*
X112982228Y-109052282D01*
X112981774Y-109573432D01*
X113180789Y-110055086D01*
X113439380Y-110314129D01*
X113182084Y-110570976D01*
X112982228Y-111052282D01*
X112981774Y-111573432D01*
X113180789Y-112055086D01*
X113439380Y-112314129D01*
X113182084Y-112570976D01*
X112982228Y-113052282D01*
X112981774Y-113573432D01*
X113180789Y-114055086D01*
X113439380Y-114314129D01*
X113182084Y-114570976D01*
X112982228Y-115052282D01*
X112981774Y-115573432D01*
X113180789Y-116055086D01*
X113439380Y-116314129D01*
X113182084Y-116570976D01*
X112982228Y-117052282D01*
X112981774Y-117573432D01*
X113180789Y-118055086D01*
X113439380Y-118314129D01*
X113182084Y-118570976D01*
X112982228Y-119052282D01*
X112981774Y-119573432D01*
X113180789Y-120055086D01*
X113439380Y-120314129D01*
X113182084Y-120570976D01*
X112982228Y-121052282D01*
X112981774Y-121573432D01*
X113180789Y-122055086D01*
X113439380Y-122314129D01*
X113182084Y-122570976D01*
X112982228Y-123052282D01*
X112981774Y-123573432D01*
X113180789Y-124055086D01*
X113439380Y-124314129D01*
X113182084Y-124570976D01*
X112982228Y-125052282D01*
X112981774Y-125573432D01*
X113180789Y-126055086D01*
X113439380Y-126314129D01*
X113182084Y-126570976D01*
X112982228Y-127052282D01*
X112981774Y-127573432D01*
X113180789Y-128055086D01*
X113439380Y-128314129D01*
X113182084Y-128570976D01*
X112982228Y-129052282D01*
X112981774Y-129573432D01*
X113180789Y-130055086D01*
X113548976Y-130423916D01*
X114030282Y-130623772D01*
X114551432Y-130624226D01*
X115033086Y-130425211D01*
X115401916Y-130057024D01*
X115601772Y-129575718D01*
X115602226Y-129054568D01*
X115403211Y-128572914D01*
X115144620Y-128313871D01*
X115401916Y-128057024D01*
X115601772Y-127575718D01*
X115602226Y-127054568D01*
X115403211Y-126572914D01*
X115144620Y-126313871D01*
X115401916Y-126057024D01*
X115601772Y-125575718D01*
X115602226Y-125054568D01*
X115403211Y-124572914D01*
X115144620Y-124313871D01*
X115401916Y-124057024D01*
X115601772Y-123575718D01*
X115602226Y-123054568D01*
X115403211Y-122572914D01*
X115144620Y-122313871D01*
X115401916Y-122057024D01*
X115601772Y-121575718D01*
X115602226Y-121054568D01*
X115403211Y-120572914D01*
X115144620Y-120313871D01*
X115401916Y-120057024D01*
X115601772Y-119575718D01*
X115602226Y-119054568D01*
X115403211Y-118572914D01*
X115144620Y-118313871D01*
X115401916Y-118057024D01*
X115601772Y-117575718D01*
X115602226Y-117054568D01*
X115403211Y-116572914D01*
X115144620Y-116313871D01*
X115401916Y-116057024D01*
X115601772Y-115575718D01*
X115602226Y-115054568D01*
X115403211Y-114572914D01*
X115144620Y-114313871D01*
X115401916Y-114057024D01*
X115601772Y-113575718D01*
X115602226Y-113054568D01*
X115403211Y-112572914D01*
X115144620Y-112313871D01*
X115401916Y-112057024D01*
X115601772Y-111575718D01*
X115602226Y-111054568D01*
X115403211Y-110572914D01*
X115144620Y-110313871D01*
X115401916Y-110057024D01*
X115601772Y-109575718D01*
X115602226Y-109054568D01*
X115403211Y-108572914D01*
X115144620Y-108313871D01*
X115401916Y-108057024D01*
X115601772Y-107575718D01*
X115602226Y-107054568D01*
X115403211Y-106572914D01*
X115144620Y-106313871D01*
X115401916Y-106057024D01*
X115593696Y-105595167D01*
X115904838Y-105595167D01*
X116046883Y-105938943D01*
X116080000Y-105972118D01*
X116080000Y-115007537D01*
X116047808Y-115039673D01*
X115905162Y-115383201D01*
X115904838Y-115755167D01*
X116046883Y-116098943D01*
X116309673Y-116362192D01*
X116653201Y-116504838D01*
X117025167Y-116505162D01*
X117350000Y-116370944D01*
X117350000Y-117547537D01*
X117317808Y-117579673D01*
X117175162Y-117923201D01*
X117174838Y-118295167D01*
X117316883Y-118638943D01*
X117579673Y-118902192D01*
X117923201Y-119044838D01*
X118295167Y-119045162D01*
X118638943Y-118903117D01*
X118902192Y-118640327D01*
X119044838Y-118296799D01*
X119045162Y-117924833D01*
X118903117Y-117581057D01*
X118870000Y-117547882D01*
X118870000Y-115100633D01*
X119193201Y-115234838D01*
X119565167Y-115235162D01*
X119908943Y-115093117D01*
X120172192Y-114830327D01*
X120314838Y-114486799D01*
X120315162Y-114114833D01*
X120173117Y-113771057D01*
X119910327Y-113507808D01*
X119566799Y-113365162D01*
X119519923Y-113365121D01*
X118870000Y-112715198D01*
X118870000Y-105972463D01*
X118902192Y-105940327D01*
X119044838Y-105596799D01*
X119045162Y-105224833D01*
X118903117Y-104881057D01*
X118640327Y-104617808D01*
X118296799Y-104475162D01*
X117924833Y-104474838D01*
X117581057Y-104616883D01*
X117475046Y-104722710D01*
X117370327Y-104617808D01*
X117026799Y-104475162D01*
X116654833Y-104474838D01*
X116311057Y-104616883D01*
X116047808Y-104879673D01*
X115905162Y-105223201D01*
X115904838Y-105595167D01*
X115593696Y-105595167D01*
X115601772Y-105575718D01*
X115602226Y-105054568D01*
X115403211Y-104572914D01*
X115144620Y-104313871D01*
X115401916Y-104057024D01*
X115601772Y-103575718D01*
X115602226Y-103054568D01*
X115403211Y-102572914D01*
X115144620Y-102313871D01*
X115401916Y-102057024D01*
X115601772Y-101575718D01*
X115601773Y-101573432D01*
X137381774Y-101573432D01*
X137580789Y-102055086D01*
X137839380Y-102314129D01*
X137582084Y-102570976D01*
X137382228Y-103052282D01*
X137381774Y-103573432D01*
X137580789Y-104055086D01*
X137839380Y-104314129D01*
X137582084Y-104570976D01*
X137382228Y-105052282D01*
X137381774Y-105573432D01*
X137580789Y-106055086D01*
X137839380Y-106314129D01*
X137582084Y-106570976D01*
X137382228Y-107052282D01*
X137381774Y-107573432D01*
X137580789Y-108055086D01*
X137839380Y-108314129D01*
X137582084Y-108570976D01*
X137382228Y-109052282D01*
X137381774Y-109573432D01*
X137580789Y-110055086D01*
X137839380Y-110314129D01*
X137582084Y-110570976D01*
X137382228Y-111052282D01*
X137381774Y-111573432D01*
X137580789Y-112055086D01*
X137839380Y-112314129D01*
X137582084Y-112570976D01*
X137382228Y-113052282D01*
X137381774Y-113573432D01*
X137580789Y-114055086D01*
X137839380Y-114314129D01*
X137582084Y-114570976D01*
X137382228Y-115052282D01*
X137381774Y-115573432D01*
X137580789Y-116055086D01*
X137839380Y-116314129D01*
X137582084Y-116570976D01*
X137382228Y-117052282D01*
X137381774Y-117573432D01*
X137580789Y-118055086D01*
X137839380Y-118314129D01*
X137582084Y-118570976D01*
X137382228Y-119052282D01*
X137381774Y-119573432D01*
X137580789Y-120055086D01*
X137839380Y-120314129D01*
X137582084Y-120570976D01*
X137382228Y-121052282D01*
X137381774Y-121573432D01*
X137580789Y-122055086D01*
X137839380Y-122314129D01*
X137582084Y-122570976D01*
X137382228Y-123052282D01*
X137381774Y-123573432D01*
X137580789Y-124055086D01*
X137839380Y-124314129D01*
X137582084Y-124570976D01*
X137382228Y-125052282D01*
X137381774Y-125573432D01*
X137580789Y-126055086D01*
X137839380Y-126314129D01*
X137582084Y-126570976D01*
X137382228Y-127052282D01*
X137381774Y-127573432D01*
X137580789Y-128055086D01*
X137839380Y-128314129D01*
X137582084Y-128570976D01*
X137382228Y-129052282D01*
X137381774Y-129573432D01*
X137580789Y-130055086D01*
X137948976Y-130423916D01*
X138430282Y-130623772D01*
X138951432Y-130624226D01*
X139433086Y-130425211D01*
X139801916Y-130057024D01*
X140001772Y-129575718D01*
X140002226Y-129054568D01*
X139803211Y-128572914D01*
X139544620Y-128313871D01*
X139801916Y-128057024D01*
X140001772Y-127575718D01*
X140002226Y-127054568D01*
X139803211Y-126572914D01*
X139544620Y-126313871D01*
X139801916Y-126057024D01*
X140001772Y-125575718D01*
X140002226Y-125054568D01*
X139803211Y-124572914D01*
X139544620Y-124313871D01*
X139801916Y-124057024D01*
X140001772Y-123575718D01*
X140002226Y-123054568D01*
X139803211Y-122572914D01*
X139544620Y-122313871D01*
X139801916Y-122057024D01*
X140001772Y-121575718D01*
X140002226Y-121054568D01*
X139803211Y-120572914D01*
X139544620Y-120313871D01*
X139801916Y-120057024D01*
X140001772Y-119575718D01*
X140002226Y-119054568D01*
X139803211Y-118572914D01*
X139544620Y-118313871D01*
X139801916Y-118057024D01*
X140001772Y-117575718D01*
X140002226Y-117054568D01*
X139803211Y-116572914D01*
X139544620Y-116313871D01*
X139801916Y-116057024D01*
X140001772Y-115575718D01*
X140002226Y-115054568D01*
X139803211Y-114572914D01*
X139544620Y-114313871D01*
X139801916Y-114057024D01*
X140001772Y-113575718D01*
X140002226Y-113054568D01*
X139803211Y-112572914D01*
X139544620Y-112313871D01*
X139801916Y-112057024D01*
X140001772Y-111575718D01*
X140002226Y-111054568D01*
X139803211Y-110572914D01*
X139544620Y-110313871D01*
X139801916Y-110057024D01*
X140001772Y-109575718D01*
X140002226Y-109054568D01*
X139803211Y-108572914D01*
X139544620Y-108313871D01*
X139801916Y-108057024D01*
X140001772Y-107575718D01*
X140002226Y-107054568D01*
X139803211Y-106572914D01*
X139544620Y-106313871D01*
X139801916Y-106057024D01*
X140001772Y-105575718D01*
X140002226Y-105054568D01*
X139803211Y-104572914D01*
X139544620Y-104313871D01*
X139801916Y-104057024D01*
X140001772Y-103575718D01*
X140002226Y-103054568D01*
X139803211Y-102572914D01*
X139544620Y-102313871D01*
X139801916Y-102057024D01*
X140001772Y-101575718D01*
X140002226Y-101054568D01*
X139803211Y-100572914D01*
X139742214Y-100511811D01*
X139905327Y-100348699D01*
X140002000Y-100115310D01*
X140002000Y-99599750D01*
X139843250Y-99441000D01*
X138819000Y-99441000D01*
X138819000Y-99461000D01*
X138565000Y-99461000D01*
X138565000Y-99441000D01*
X137540750Y-99441000D01*
X137382000Y-99599750D01*
X137382000Y-100115310D01*
X137478673Y-100348699D01*
X137641569Y-100511594D01*
X137582084Y-100570976D01*
X137382228Y-101052282D01*
X137381774Y-101573432D01*
X115601773Y-101573432D01*
X115602226Y-101054568D01*
X115403211Y-100572914D01*
X115342214Y-100511811D01*
X115505327Y-100348699D01*
X115602000Y-100115310D01*
X115602000Y-99599750D01*
X115443250Y-99441000D01*
X114419000Y-99441000D01*
X114419000Y-99461000D01*
X114165000Y-99461000D01*
X114165000Y-99441000D01*
X113140750Y-99441000D01*
X112982000Y-99599750D01*
X112982000Y-100115310D01*
X113078673Y-100348699D01*
X113241569Y-100511594D01*
X113182084Y-100570976D01*
X112982228Y-101052282D01*
X112981774Y-101573432D01*
X110728809Y-101573432D01*
X110621054Y-101031715D01*
X110299147Y-100549946D01*
X109969974Y-100330000D01*
X110299147Y-100110054D01*
X110621054Y-99628285D01*
X110734093Y-99060000D01*
X110625227Y-98512690D01*
X112982000Y-98512690D01*
X112982000Y-99028250D01*
X113140750Y-99187000D01*
X114165000Y-99187000D01*
X114165000Y-98162750D01*
X114419000Y-98162750D01*
X114419000Y-99187000D01*
X115443250Y-99187000D01*
X115602000Y-99028250D01*
X115602000Y-98512690D01*
X137382000Y-98512690D01*
X137382000Y-99028250D01*
X137540750Y-99187000D01*
X138565000Y-99187000D01*
X138565000Y-98162750D01*
X138819000Y-98162750D01*
X138819000Y-99187000D01*
X139843250Y-99187000D01*
X140002000Y-99028250D01*
X140002000Y-98512690D01*
X139905327Y-98279301D01*
X139726698Y-98100673D01*
X139493309Y-98004000D01*
X138977750Y-98004000D01*
X138819000Y-98162750D01*
X138565000Y-98162750D01*
X138406250Y-98004000D01*
X137890691Y-98004000D01*
X137657302Y-98100673D01*
X137478673Y-98279301D01*
X137382000Y-98512690D01*
X115602000Y-98512690D01*
X115505327Y-98279301D01*
X115326698Y-98100673D01*
X115093309Y-98004000D01*
X114577750Y-98004000D01*
X114419000Y-98162750D01*
X114165000Y-98162750D01*
X114006250Y-98004000D01*
X113490691Y-98004000D01*
X113257302Y-98100673D01*
X113078673Y-98279301D01*
X112982000Y-98512690D01*
X110625227Y-98512690D01*
X110621054Y-98491715D01*
X110299147Y-98009946D01*
X110255223Y-97980597D01*
X110429698Y-97908327D01*
X110608327Y-97729699D01*
X110705000Y-97496310D01*
X110705000Y-96805750D01*
X110546250Y-96647000D01*
X109347000Y-96647000D01*
X109347000Y-96667000D01*
X109093000Y-96667000D01*
X109093000Y-96647000D01*
X109073000Y-96647000D01*
X109073000Y-96393000D01*
X109093000Y-96393000D01*
X109093000Y-95193750D01*
X109347000Y-95193750D01*
X109347000Y-96393000D01*
X110546250Y-96393000D01*
X110705000Y-96234250D01*
X110705000Y-95543690D01*
X140755000Y-95543690D01*
X140755000Y-96234250D01*
X140913750Y-96393000D01*
X142113000Y-96393000D01*
X142113000Y-95193750D01*
X141954250Y-95035000D01*
X141263691Y-95035000D01*
X141030302Y-95131673D01*
X140851673Y-95310301D01*
X140755000Y-95543690D01*
X110705000Y-95543690D01*
X110608327Y-95310301D01*
X110429698Y-95131673D01*
X110196309Y-95035000D01*
X109505750Y-95035000D01*
X109347000Y-95193750D01*
X109093000Y-95193750D01*
X108934250Y-95035000D01*
X108243691Y-95035000D01*
X108077000Y-95104046D01*
X108077000Y-89871517D01*
X111478088Y-89871517D01*
X111546077Y-90112460D01*
X112065171Y-90297201D01*
X112615448Y-90269230D01*
X112993923Y-90112460D01*
X113061912Y-89871517D01*
X112270000Y-89079605D01*
X111478088Y-89871517D01*
X108077000Y-89871517D01*
X108077000Y-88695171D01*
X110872799Y-88695171D01*
X110900770Y-89245448D01*
X111057540Y-89623923D01*
X111298483Y-89691912D01*
X112090395Y-88900000D01*
X112449605Y-88900000D01*
X113241517Y-89691912D01*
X113482460Y-89623923D01*
X113541732Y-89457379D01*
X113635169Y-89683515D01*
X114024436Y-90073461D01*
X114533298Y-90284759D01*
X115084285Y-90285240D01*
X115593515Y-90074831D01*
X115825062Y-89843687D01*
X116054436Y-90073461D01*
X116563298Y-90284759D01*
X117114285Y-90285240D01*
X117623515Y-90074831D01*
X118013461Y-89685564D01*
X118109976Y-89453130D01*
X118205169Y-89683515D01*
X118594436Y-90073461D01*
X119103298Y-90284759D01*
X119654285Y-90285240D01*
X120163515Y-90074831D01*
X120553461Y-89685564D01*
X120731462Y-89256890D01*
X138258524Y-89256890D01*
X138428355Y-89666924D01*
X138818642Y-90095183D01*
X139343108Y-90341486D01*
X139573000Y-90220819D01*
X139573000Y-89027000D01*
X138379845Y-89027000D01*
X138258524Y-89256890D01*
X120731462Y-89256890D01*
X120764759Y-89176702D01*
X120765240Y-88625715D01*
X120554831Y-88116485D01*
X120182965Y-87743970D01*
X121605635Y-87743970D01*
X121765418Y-88062739D01*
X122556187Y-88372723D01*
X123405387Y-88356497D01*
X124114582Y-88062739D01*
X124274365Y-87743970D01*
X122940000Y-86409605D01*
X121605635Y-87743970D01*
X120182965Y-87743970D01*
X120165564Y-87726539D01*
X119656702Y-87515241D01*
X119105715Y-87514760D01*
X118596485Y-87725169D01*
X118206539Y-88114436D01*
X118110024Y-88346870D01*
X118014831Y-88116485D01*
X117625564Y-87726539D01*
X117116702Y-87515241D01*
X116565715Y-87514760D01*
X116056485Y-87725169D01*
X115824938Y-87956313D01*
X115595564Y-87726539D01*
X115086702Y-87515241D01*
X114535715Y-87514760D01*
X114026485Y-87725169D01*
X113636539Y-88114436D01*
X113546623Y-88330979D01*
X113482460Y-88176077D01*
X113241517Y-88108088D01*
X112449605Y-88900000D01*
X112090395Y-88900000D01*
X111298483Y-88108088D01*
X111057540Y-88176077D01*
X110872799Y-88695171D01*
X108077000Y-88695171D01*
X108077000Y-88075119D01*
X108836187Y-88372723D01*
X109685387Y-88356497D01*
X110394582Y-88062739D01*
X110461877Y-87928483D01*
X111478088Y-87928483D01*
X112270000Y-88720395D01*
X113061912Y-87928483D01*
X112993923Y-87687540D01*
X112474829Y-87502799D01*
X111924552Y-87530770D01*
X111546077Y-87687540D01*
X111478088Y-87928483D01*
X110461877Y-87928483D01*
X110554365Y-87743970D01*
X109220000Y-86409605D01*
X109205858Y-86423748D01*
X109026253Y-86244143D01*
X109040395Y-86230000D01*
X109399605Y-86230000D01*
X110733970Y-87564365D01*
X111052739Y-87404582D01*
X111362723Y-86613813D01*
X111348056Y-85846187D01*
X120797277Y-85846187D01*
X120813503Y-86695387D01*
X121107261Y-87404582D01*
X121426030Y-87564365D01*
X122760395Y-86230000D01*
X123119605Y-86230000D01*
X124453970Y-87564365D01*
X124772739Y-87404582D01*
X125042316Y-86716890D01*
X138258524Y-86716890D01*
X138428355Y-87126924D01*
X138818642Y-87555183D01*
X138977954Y-87630000D01*
X138818642Y-87704817D01*
X138428355Y-88133076D01*
X138258524Y-88543110D01*
X138379845Y-88773000D01*
X139573000Y-88773000D01*
X139573000Y-86487000D01*
X138379845Y-86487000D01*
X138258524Y-86716890D01*
X125042316Y-86716890D01*
X125082723Y-86613813D01*
X125066497Y-85764613D01*
X124772739Y-85055418D01*
X124453970Y-84895635D01*
X123119605Y-86230000D01*
X122760395Y-86230000D01*
X121426030Y-84895635D01*
X121107261Y-85055418D01*
X120797277Y-85846187D01*
X111348056Y-85846187D01*
X111346497Y-85764613D01*
X111052739Y-85055418D01*
X110733970Y-84895635D01*
X109399605Y-86230000D01*
X109040395Y-86230000D01*
X109026253Y-86215858D01*
X109205858Y-86036253D01*
X109220000Y-86050395D01*
X110554365Y-84716030D01*
X121605635Y-84716030D01*
X122940000Y-86050395D01*
X124274365Y-84716030D01*
X124114582Y-84397261D01*
X123323813Y-84087277D01*
X122474613Y-84103503D01*
X121765418Y-84397261D01*
X121605635Y-84716030D01*
X110554365Y-84716030D01*
X110394582Y-84397261D01*
X109603813Y-84087277D01*
X108754613Y-84103503D01*
X108077000Y-84384179D01*
X108077000Y-81657938D01*
X127090732Y-81657938D01*
X127274448Y-82031821D01*
X127598951Y-82319568D01*
X128008869Y-82461229D01*
X128183000Y-82312563D01*
X128183000Y-81487000D01*
X128437000Y-81487000D01*
X128437000Y-82312563D01*
X128611131Y-82461229D01*
X129021049Y-82319568D01*
X129345552Y-82031821D01*
X129529268Y-81657938D01*
X132090732Y-81657938D01*
X132274448Y-82031821D01*
X132598951Y-82319568D01*
X133008869Y-82461229D01*
X133183000Y-82312563D01*
X133183000Y-81487000D01*
X133437000Y-81487000D01*
X133437000Y-82312563D01*
X133611131Y-82461229D01*
X134021049Y-82319568D01*
X134345552Y-82031821D01*
X134529268Y-81657938D01*
X134402734Y-81487000D01*
X133437000Y-81487000D01*
X133183000Y-81487000D01*
X132217266Y-81487000D01*
X132090732Y-81657938D01*
X129529268Y-81657938D01*
X129402734Y-81487000D01*
X128437000Y-81487000D01*
X128183000Y-81487000D01*
X127217266Y-81487000D01*
X127090732Y-81657938D01*
X108077000Y-81657938D01*
X108077000Y-81062062D01*
X127090732Y-81062062D01*
X127217266Y-81233000D01*
X128183000Y-81233000D01*
X128183000Y-80407437D01*
X128437000Y-80407437D01*
X128437000Y-81233000D01*
X129402734Y-81233000D01*
X129529268Y-81062062D01*
X132090732Y-81062062D01*
X132217266Y-81233000D01*
X133183000Y-81233000D01*
X133183000Y-80407437D01*
X133437000Y-80407437D01*
X133437000Y-81233000D01*
X134402734Y-81233000D01*
X134529268Y-81062062D01*
X134345552Y-80688179D01*
X134021049Y-80400432D01*
X133611131Y-80258771D01*
X133437000Y-80407437D01*
X133183000Y-80407437D01*
X133008869Y-80258771D01*
X132598951Y-80400432D01*
X132274448Y-80688179D01*
X132090732Y-81062062D01*
X129529268Y-81062062D01*
X129345552Y-80688179D01*
X129021049Y-80400432D01*
X128611131Y-80258771D01*
X128437000Y-80407437D01*
X128183000Y-80407437D01*
X128008869Y-80258771D01*
X127598951Y-80400432D01*
X127274448Y-80688179D01*
X127090732Y-81062062D01*
X108077000Y-81062062D01*
X108077000Y-78787000D01*
X126175000Y-78787000D01*
X126175000Y-79062000D01*
X126309998Y-79486678D01*
X126597237Y-79827368D01*
X127008126Y-80029119D01*
X127183000Y-79902954D01*
X127183000Y-78787000D01*
X127437000Y-78787000D01*
X127437000Y-79902954D01*
X127611874Y-80029119D01*
X128022763Y-79827368D01*
X128310002Y-79486678D01*
X128445000Y-79062000D01*
X128445000Y-78787000D01*
X133175000Y-78787000D01*
X133175000Y-79062000D01*
X133309998Y-79486678D01*
X133597237Y-79827368D01*
X134008126Y-80029119D01*
X134183000Y-79902954D01*
X134183000Y-78787000D01*
X134437000Y-78787000D01*
X134437000Y-79902954D01*
X134611874Y-80029119D01*
X135022763Y-79827368D01*
X135310002Y-79486678D01*
X135445000Y-79062000D01*
X135445000Y-78787000D01*
X134437000Y-78787000D01*
X134183000Y-78787000D01*
X133175000Y-78787000D01*
X128445000Y-78787000D01*
X127437000Y-78787000D01*
X127183000Y-78787000D01*
X126175000Y-78787000D01*
X108077000Y-78787000D01*
X108077000Y-77597000D01*
X126509243Y-77597000D01*
X126309998Y-77833322D01*
X126309998Y-77833322D01*
G37*
X126309998Y-77833322D02*
X126175000Y-78258000D01*
X126175000Y-78533000D01*
X127183000Y-78533000D01*
X127183000Y-78513000D01*
X127437000Y-78513000D01*
X127437000Y-78533000D01*
X128445000Y-78533000D01*
X128445000Y-78258000D01*
X128310002Y-77833322D01*
X128110757Y-77597000D01*
X133509243Y-77597000D01*
X133309998Y-77833322D01*
X133175000Y-78258000D01*
X133175000Y-78533000D01*
X134183000Y-78533000D01*
X134183000Y-78513000D01*
X134437000Y-78513000D01*
X134437000Y-78533000D01*
X135445000Y-78533000D01*
X135445000Y-78258000D01*
X135310002Y-77833322D01*
X135110757Y-77597000D01*
X143383000Y-77597000D01*
X143383000Y-80325509D01*
X143319147Y-80229946D01*
X142837378Y-79908039D01*
X142269093Y-79795000D01*
X142210907Y-79795000D01*
X141642622Y-79908039D01*
X141160853Y-80229946D01*
X141160029Y-80231179D01*
X141153162Y-80194683D01*
X141014090Y-79978559D01*
X140801890Y-79833569D01*
X140550000Y-79782560D01*
X138850000Y-79782560D01*
X138614683Y-79826838D01*
X138398559Y-79965910D01*
X138253569Y-80178110D01*
X138202560Y-80430000D01*
X138202560Y-82130000D01*
X138246838Y-82365317D01*
X138385910Y-82581441D01*
X138598110Y-82726431D01*
X138665541Y-82740086D01*
X138620853Y-82769946D01*
X138298946Y-83251715D01*
X138185907Y-83820000D01*
X138298946Y-84388285D01*
X138620853Y-84870054D01*
X138961553Y-85097702D01*
X138818642Y-85164817D01*
X138428355Y-85593076D01*
X138258524Y-86003110D01*
X138379845Y-86233000D01*
X139573000Y-86233000D01*
X139573000Y-86213000D01*
X139827000Y-86213000D01*
X139827000Y-86233000D01*
X139847000Y-86233000D01*
X139847000Y-86487000D01*
X139827000Y-86487000D01*
X139827000Y-88773000D01*
X139847000Y-88773000D01*
X139847000Y-89027000D01*
X139827000Y-89027000D01*
X139827000Y-90220819D01*
X140056892Y-90341486D01*
X140581358Y-90095183D01*
X140971645Y-89666924D01*
X140971655Y-89666899D01*
X141160853Y-89950054D01*
X141642622Y-90271961D01*
X142210907Y-90385000D01*
X142269093Y-90385000D01*
X142837378Y-90271961D01*
X143319147Y-89950054D01*
X143383000Y-89854491D01*
X143383000Y-95104046D01*
X143216309Y-95035000D01*
X142525750Y-95035000D01*
X142367000Y-95193750D01*
X142367000Y-96393000D01*
X142387000Y-96393000D01*
X142387000Y-96647000D01*
X142367000Y-96647000D01*
X142367000Y-96667000D01*
X142113000Y-96667000D01*
X142113000Y-96647000D01*
X140913750Y-96647000D01*
X140755000Y-96805750D01*
X140755000Y-97496310D01*
X140851673Y-97729699D01*
X141030302Y-97908327D01*
X141204777Y-97980597D01*
X141160853Y-98009946D01*
X140838946Y-98491715D01*
X140725907Y-99060000D01*
X140838946Y-99628285D01*
X141160853Y-100110054D01*
X141490026Y-100330000D01*
X141160853Y-100549946D01*
X140838946Y-101031715D01*
X140725907Y-101600000D01*
X140838946Y-102168285D01*
X141160853Y-102650054D01*
X141490026Y-102870000D01*
X141160853Y-103089946D01*
X140838946Y-103571715D01*
X140725907Y-104140000D01*
X140838946Y-104708285D01*
X141160853Y-105190054D01*
X141490026Y-105410000D01*
X141160853Y-105629946D01*
X140838946Y-106111715D01*
X140725907Y-106680000D01*
X140838946Y-107248285D01*
X141160853Y-107730054D01*
X141490026Y-107950000D01*
X141160853Y-108169946D01*
X140838946Y-108651715D01*
X140725907Y-109220000D01*
X140838946Y-109788285D01*
X141160853Y-110270054D01*
X141490026Y-110490000D01*
X141160853Y-110709946D01*
X140838946Y-111191715D01*
X140725907Y-111760000D01*
X140838946Y-112328285D01*
X141160853Y-112810054D01*
X141490026Y-113030000D01*
X141160853Y-113249946D01*
X140838946Y-113731715D01*
X140725907Y-114300000D01*
X140838946Y-114868285D01*
X141160853Y-115350054D01*
X141490026Y-115570000D01*
X141160853Y-115789946D01*
X140838946Y-116271715D01*
X140725907Y-116840000D01*
X140838946Y-117408285D01*
X141160853Y-117890054D01*
X141490026Y-118110000D01*
X141160853Y-118329946D01*
X140838946Y-118811715D01*
X140725907Y-119380000D01*
X140838946Y-119948285D01*
X141160853Y-120430054D01*
X141490026Y-120650000D01*
X141160853Y-120869946D01*
X140838946Y-121351715D01*
X140725907Y-121920000D01*
X140838946Y-122488285D01*
X141160853Y-122970054D01*
X141490026Y-123190000D01*
X141160853Y-123409946D01*
X140838946Y-123891715D01*
X140725907Y-124460000D01*
X140838946Y-125028285D01*
X141160853Y-125510054D01*
X141490026Y-125730000D01*
X141160853Y-125949946D01*
X140838946Y-126431715D01*
X140725907Y-127000000D01*
X140838946Y-127568285D01*
X141160853Y-128050054D01*
X141490026Y-128270000D01*
X141160853Y-128489946D01*
X140838946Y-128971715D01*
X140725907Y-129540000D01*
X140838946Y-130108285D01*
X141160853Y-130590054D01*
X141490026Y-130810000D01*
X141160853Y-131029946D01*
X140838946Y-131511715D01*
X140725907Y-132080000D01*
X140838946Y-132648285D01*
X141160853Y-133130054D01*
X141490026Y-133350000D01*
X141160853Y-133569946D01*
X140838946Y-134051715D01*
X140725907Y-134620000D01*
X140838946Y-135188285D01*
X141160853Y-135670054D01*
X141299957Y-135763000D01*
X110160043Y-135763000D01*
X110299147Y-135670054D01*
X110621054Y-135188285D01*
X110734093Y-134620000D01*
X110621054Y-134051715D01*
X110299147Y-133569946D01*
X109969974Y-133350000D01*
X110299147Y-133130054D01*
X110621054Y-132648285D01*
X110734093Y-132080000D01*
X110621054Y-131511715D01*
X110299147Y-131029946D01*
X109969974Y-130810000D01*
X110299147Y-130590054D01*
X110621054Y-130108285D01*
X110734093Y-129540000D01*
X110621054Y-128971715D01*
X110299147Y-128489946D01*
X109969974Y-128270000D01*
X110299147Y-128050054D01*
X110621054Y-127568285D01*
X110734093Y-127000000D01*
X110621054Y-126431715D01*
X110299147Y-125949946D01*
X109969974Y-125730000D01*
X110299147Y-125510054D01*
X110621054Y-125028285D01*
X110734093Y-124460000D01*
X110621054Y-123891715D01*
X110299147Y-123409946D01*
X109969974Y-123190000D01*
X110299147Y-122970054D01*
X110621054Y-122488285D01*
X110734093Y-121920000D01*
X110621054Y-121351715D01*
X110299147Y-120869946D01*
X109969974Y-120650000D01*
X110299147Y-120430054D01*
X110621054Y-119948285D01*
X110734093Y-119380000D01*
X110621054Y-118811715D01*
X110299147Y-118329946D01*
X109969974Y-118110000D01*
X110299147Y-117890054D01*
X110621054Y-117408285D01*
X110734093Y-116840000D01*
X110621054Y-116271715D01*
X110299147Y-115789946D01*
X109969974Y-115570000D01*
X110299147Y-115350054D01*
X110621054Y-114868285D01*
X110734093Y-114300000D01*
X110621054Y-113731715D01*
X110299147Y-113249946D01*
X109969974Y-113030000D01*
X110299147Y-112810054D01*
X110621054Y-112328285D01*
X110734093Y-111760000D01*
X110621054Y-111191715D01*
X110299147Y-110709946D01*
X109969974Y-110490000D01*
X110299147Y-110270054D01*
X110621054Y-109788285D01*
X110734093Y-109220000D01*
X110621054Y-108651715D01*
X110299147Y-108169946D01*
X109969974Y-107950000D01*
X110299147Y-107730054D01*
X110621054Y-107248285D01*
X110734093Y-106680000D01*
X110621054Y-106111715D01*
X110299147Y-105629946D01*
X109969974Y-105410000D01*
X110299147Y-105190054D01*
X110621054Y-104708285D01*
X110734093Y-104140000D01*
X110621054Y-103571715D01*
X110299147Y-103089946D01*
X109969974Y-102870000D01*
X110299147Y-102650054D01*
X110621054Y-102168285D01*
X110734093Y-101600000D01*
X110728809Y-101573432D01*
X112981774Y-101573432D01*
X113180789Y-102055086D01*
X113439380Y-102314129D01*
X113182084Y-102570976D01*
X112982228Y-103052282D01*
X112981774Y-103573432D01*
X113180789Y-104055086D01*
X113439380Y-104314129D01*
X113182084Y-104570976D01*
X112982228Y-105052282D01*
X112981774Y-105573432D01*
X113180789Y-106055086D01*
X113439380Y-106314129D01*
X113182084Y-106570976D01*
X112982228Y-107052282D01*
X112981774Y-107573432D01*
X113180789Y-108055086D01*
X113439380Y-108314129D01*
X113182084Y-108570976D01*
X112982228Y-109052282D01*
X112981774Y-109573432D01*
X113180789Y-110055086D01*
X113439380Y-110314129D01*
X113182084Y-110570976D01*
X112982228Y-111052282D01*
X112981774Y-111573432D01*
X113180789Y-112055086D01*
X113439380Y-112314129D01*
X113182084Y-112570976D01*
X112982228Y-113052282D01*
X112981774Y-113573432D01*
X113180789Y-114055086D01*
X113439380Y-114314129D01*
X113182084Y-114570976D01*
X112982228Y-115052282D01*
X112981774Y-115573432D01*
X113180789Y-116055086D01*
X113439380Y-116314129D01*
X113182084Y-116570976D01*
X112982228Y-117052282D01*
X112981774Y-117573432D01*
X113180789Y-118055086D01*
X113439380Y-118314129D01*
X113182084Y-118570976D01*
X112982228Y-119052282D01*
X112981774Y-119573432D01*
X113180789Y-120055086D01*
X113439380Y-120314129D01*
X113182084Y-120570976D01*
X112982228Y-121052282D01*
X112981774Y-121573432D01*
X113180789Y-122055086D01*
X113439380Y-122314129D01*
X113182084Y-122570976D01*
X112982228Y-123052282D01*
X112981774Y-123573432D01*
X113180789Y-124055086D01*
X113439380Y-124314129D01*
X113182084Y-124570976D01*
X112982228Y-125052282D01*
X112981774Y-125573432D01*
X113180789Y-126055086D01*
X113439380Y-126314129D01*
X113182084Y-126570976D01*
X112982228Y-127052282D01*
X112981774Y-127573432D01*
X113180789Y-128055086D01*
X113439380Y-128314129D01*
X113182084Y-128570976D01*
X112982228Y-129052282D01*
X112981774Y-129573432D01*
X113180789Y-130055086D01*
X113548976Y-130423916D01*
X114030282Y-130623772D01*
X114551432Y-130624226D01*
X115033086Y-130425211D01*
X115401916Y-130057024D01*
X115601772Y-129575718D01*
X115602226Y-129054568D01*
X115403211Y-128572914D01*
X115144620Y-128313871D01*
X115401916Y-128057024D01*
X115601772Y-127575718D01*
X115602226Y-127054568D01*
X115403211Y-126572914D01*
X115144620Y-126313871D01*
X115401916Y-126057024D01*
X115601772Y-125575718D01*
X115602226Y-125054568D01*
X115403211Y-124572914D01*
X115144620Y-124313871D01*
X115401916Y-124057024D01*
X115601772Y-123575718D01*
X115602226Y-123054568D01*
X115403211Y-122572914D01*
X115144620Y-122313871D01*
X115401916Y-122057024D01*
X115601772Y-121575718D01*
X115602226Y-121054568D01*
X115403211Y-120572914D01*
X115144620Y-120313871D01*
X115401916Y-120057024D01*
X115601772Y-119575718D01*
X115602226Y-119054568D01*
X115403211Y-118572914D01*
X115144620Y-118313871D01*
X115401916Y-118057024D01*
X115601772Y-117575718D01*
X115602226Y-117054568D01*
X115403211Y-116572914D01*
X115144620Y-116313871D01*
X115401916Y-116057024D01*
X115601772Y-115575718D01*
X115602226Y-115054568D01*
X115403211Y-114572914D01*
X115144620Y-114313871D01*
X115401916Y-114057024D01*
X115601772Y-113575718D01*
X115602226Y-113054568D01*
X115403211Y-112572914D01*
X115144620Y-112313871D01*
X115401916Y-112057024D01*
X115601772Y-111575718D01*
X115602226Y-111054568D01*
X115403211Y-110572914D01*
X115144620Y-110313871D01*
X115401916Y-110057024D01*
X115601772Y-109575718D01*
X115602226Y-109054568D01*
X115403211Y-108572914D01*
X115144620Y-108313871D01*
X115401916Y-108057024D01*
X115601772Y-107575718D01*
X115602226Y-107054568D01*
X115403211Y-106572914D01*
X115144620Y-106313871D01*
X115401916Y-106057024D01*
X115593696Y-105595167D01*
X115904838Y-105595167D01*
X116046883Y-105938943D01*
X116080000Y-105972118D01*
X116080000Y-115007537D01*
X116047808Y-115039673D01*
X115905162Y-115383201D01*
X115904838Y-115755167D01*
X116046883Y-116098943D01*
X116309673Y-116362192D01*
X116653201Y-116504838D01*
X117025167Y-116505162D01*
X117350000Y-116370944D01*
X117350000Y-117547537D01*
X117317808Y-117579673D01*
X117175162Y-117923201D01*
X117174838Y-118295167D01*
X117316883Y-118638943D01*
X117579673Y-118902192D01*
X117923201Y-119044838D01*
X118295167Y-119045162D01*
X118638943Y-118903117D01*
X118902192Y-118640327D01*
X119044838Y-118296799D01*
X119045162Y-117924833D01*
X118903117Y-117581057D01*
X118870000Y-117547882D01*
X118870000Y-115100633D01*
X119193201Y-115234838D01*
X119565167Y-115235162D01*
X119908943Y-115093117D01*
X120172192Y-114830327D01*
X120314838Y-114486799D01*
X120315162Y-114114833D01*
X120173117Y-113771057D01*
X119910327Y-113507808D01*
X119566799Y-113365162D01*
X119519923Y-113365121D01*
X118870000Y-112715198D01*
X118870000Y-105972463D01*
X118902192Y-105940327D01*
X119044838Y-105596799D01*
X119045162Y-105224833D01*
X118903117Y-104881057D01*
X118640327Y-104617808D01*
X118296799Y-104475162D01*
X117924833Y-104474838D01*
X117581057Y-104616883D01*
X117475046Y-104722710D01*
X117370327Y-104617808D01*
X117026799Y-104475162D01*
X116654833Y-104474838D01*
X116311057Y-104616883D01*
X116047808Y-104879673D01*
X115905162Y-105223201D01*
X115904838Y-105595167D01*
X115593696Y-105595167D01*
X115601772Y-105575718D01*
X115602226Y-105054568D01*
X115403211Y-104572914D01*
X115144620Y-104313871D01*
X115401916Y-104057024D01*
X115601772Y-103575718D01*
X115602226Y-103054568D01*
X115403211Y-102572914D01*
X115144620Y-102313871D01*
X115401916Y-102057024D01*
X115601772Y-101575718D01*
X115601773Y-101573432D01*
X137381774Y-101573432D01*
X137580789Y-102055086D01*
X137839380Y-102314129D01*
X137582084Y-102570976D01*
X137382228Y-103052282D01*
X137381774Y-103573432D01*
X137580789Y-104055086D01*
X137839380Y-104314129D01*
X137582084Y-104570976D01*
X137382228Y-105052282D01*
X137381774Y-105573432D01*
X137580789Y-106055086D01*
X137839380Y-106314129D01*
X137582084Y-106570976D01*
X137382228Y-107052282D01*
X137381774Y-107573432D01*
X137580789Y-108055086D01*
X137839380Y-108314129D01*
X137582084Y-108570976D01*
X137382228Y-109052282D01*
X137381774Y-109573432D01*
X137580789Y-110055086D01*
X137839380Y-110314129D01*
X137582084Y-110570976D01*
X137382228Y-111052282D01*
X137381774Y-111573432D01*
X137580789Y-112055086D01*
X137839380Y-112314129D01*
X137582084Y-112570976D01*
X137382228Y-113052282D01*
X137381774Y-113573432D01*
X137580789Y-114055086D01*
X137839380Y-114314129D01*
X137582084Y-114570976D01*
X137382228Y-115052282D01*
X137381774Y-115573432D01*
X137580789Y-116055086D01*
X137839380Y-116314129D01*
X137582084Y-116570976D01*
X137382228Y-117052282D01*
X137381774Y-117573432D01*
X137580789Y-118055086D01*
X137839380Y-118314129D01*
X137582084Y-118570976D01*
X137382228Y-119052282D01*
X137381774Y-119573432D01*
X137580789Y-120055086D01*
X137839380Y-120314129D01*
X137582084Y-120570976D01*
X137382228Y-121052282D01*
X137381774Y-121573432D01*
X137580789Y-122055086D01*
X137839380Y-122314129D01*
X137582084Y-122570976D01*
X137382228Y-123052282D01*
X137381774Y-123573432D01*
X137580789Y-124055086D01*
X137839380Y-124314129D01*
X137582084Y-124570976D01*
X137382228Y-125052282D01*
X137381774Y-125573432D01*
X137580789Y-126055086D01*
X137839380Y-126314129D01*
X137582084Y-126570976D01*
X137382228Y-127052282D01*
X137381774Y-127573432D01*
X137580789Y-128055086D01*
X137839380Y-128314129D01*
X137582084Y-128570976D01*
X137382228Y-129052282D01*
X137381774Y-129573432D01*
X137580789Y-130055086D01*
X137948976Y-130423916D01*
X138430282Y-130623772D01*
X138951432Y-130624226D01*
X139433086Y-130425211D01*
X139801916Y-130057024D01*
X140001772Y-129575718D01*
X140002226Y-129054568D01*
X139803211Y-128572914D01*
X139544620Y-128313871D01*
X139801916Y-128057024D01*
X140001772Y-127575718D01*
X140002226Y-127054568D01*
X139803211Y-126572914D01*
X139544620Y-126313871D01*
X139801916Y-126057024D01*
X140001772Y-125575718D01*
X140002226Y-125054568D01*
X139803211Y-124572914D01*
X139544620Y-124313871D01*
X139801916Y-124057024D01*
X140001772Y-123575718D01*
X140002226Y-123054568D01*
X139803211Y-122572914D01*
X139544620Y-122313871D01*
X139801916Y-122057024D01*
X140001772Y-121575718D01*
X140002226Y-121054568D01*
X139803211Y-120572914D01*
X139544620Y-120313871D01*
X139801916Y-120057024D01*
X140001772Y-119575718D01*
X140002226Y-119054568D01*
X139803211Y-118572914D01*
X139544620Y-118313871D01*
X139801916Y-118057024D01*
X140001772Y-117575718D01*
X140002226Y-117054568D01*
X139803211Y-116572914D01*
X139544620Y-116313871D01*
X139801916Y-116057024D01*
X140001772Y-115575718D01*
X140002226Y-115054568D01*
X139803211Y-114572914D01*
X139544620Y-114313871D01*
X139801916Y-114057024D01*
X140001772Y-113575718D01*
X140002226Y-113054568D01*
X139803211Y-112572914D01*
X139544620Y-112313871D01*
X139801916Y-112057024D01*
X140001772Y-111575718D01*
X140002226Y-111054568D01*
X139803211Y-110572914D01*
X139544620Y-110313871D01*
X139801916Y-110057024D01*
X140001772Y-109575718D01*
X140002226Y-109054568D01*
X139803211Y-108572914D01*
X139544620Y-108313871D01*
X139801916Y-108057024D01*
X140001772Y-107575718D01*
X140002226Y-107054568D01*
X139803211Y-106572914D01*
X139544620Y-106313871D01*
X139801916Y-106057024D01*
X140001772Y-105575718D01*
X140002226Y-105054568D01*
X139803211Y-104572914D01*
X139544620Y-104313871D01*
X139801916Y-104057024D01*
X140001772Y-103575718D01*
X140002226Y-103054568D01*
X139803211Y-102572914D01*
X139544620Y-102313871D01*
X139801916Y-102057024D01*
X140001772Y-101575718D01*
X140002226Y-101054568D01*
X139803211Y-100572914D01*
X139742214Y-100511811D01*
X139905327Y-100348699D01*
X140002000Y-100115310D01*
X140002000Y-99599750D01*
X139843250Y-99441000D01*
X138819000Y-99441000D01*
X138819000Y-99461000D01*
X138565000Y-99461000D01*
X138565000Y-99441000D01*
X137540750Y-99441000D01*
X137382000Y-99599750D01*
X137382000Y-100115310D01*
X137478673Y-100348699D01*
X137641569Y-100511594D01*
X137582084Y-100570976D01*
X137382228Y-101052282D01*
X137381774Y-101573432D01*
X115601773Y-101573432D01*
X115602226Y-101054568D01*
X115403211Y-100572914D01*
X115342214Y-100511811D01*
X115505327Y-100348699D01*
X115602000Y-100115310D01*
X115602000Y-99599750D01*
X115443250Y-99441000D01*
X114419000Y-99441000D01*
X114419000Y-99461000D01*
X114165000Y-99461000D01*
X114165000Y-99441000D01*
X113140750Y-99441000D01*
X112982000Y-99599750D01*
X112982000Y-100115310D01*
X113078673Y-100348699D01*
X113241569Y-100511594D01*
X113182084Y-100570976D01*
X112982228Y-101052282D01*
X112981774Y-101573432D01*
X110728809Y-101573432D01*
X110621054Y-101031715D01*
X110299147Y-100549946D01*
X109969974Y-100330000D01*
X110299147Y-100110054D01*
X110621054Y-99628285D01*
X110734093Y-99060000D01*
X110625227Y-98512690D01*
X112982000Y-98512690D01*
X112982000Y-99028250D01*
X113140750Y-99187000D01*
X114165000Y-99187000D01*
X114165000Y-98162750D01*
X114419000Y-98162750D01*
X114419000Y-99187000D01*
X115443250Y-99187000D01*
X115602000Y-99028250D01*
X115602000Y-98512690D01*
X137382000Y-98512690D01*
X137382000Y-99028250D01*
X137540750Y-99187000D01*
X138565000Y-99187000D01*
X138565000Y-98162750D01*
X138819000Y-98162750D01*
X138819000Y-99187000D01*
X139843250Y-99187000D01*
X140002000Y-99028250D01*
X140002000Y-98512690D01*
X139905327Y-98279301D01*
X139726698Y-98100673D01*
X139493309Y-98004000D01*
X138977750Y-98004000D01*
X138819000Y-98162750D01*
X138565000Y-98162750D01*
X138406250Y-98004000D01*
X137890691Y-98004000D01*
X137657302Y-98100673D01*
X137478673Y-98279301D01*
X137382000Y-98512690D01*
X115602000Y-98512690D01*
X115505327Y-98279301D01*
X115326698Y-98100673D01*
X115093309Y-98004000D01*
X114577750Y-98004000D01*
X114419000Y-98162750D01*
X114165000Y-98162750D01*
X114006250Y-98004000D01*
X113490691Y-98004000D01*
X113257302Y-98100673D01*
X113078673Y-98279301D01*
X112982000Y-98512690D01*
X110625227Y-98512690D01*
X110621054Y-98491715D01*
X110299147Y-98009946D01*
X110255223Y-97980597D01*
X110429698Y-97908327D01*
X110608327Y-97729699D01*
X110705000Y-97496310D01*
X110705000Y-96805750D01*
X110546250Y-96647000D01*
X109347000Y-96647000D01*
X109347000Y-96667000D01*
X109093000Y-96667000D01*
X109093000Y-96647000D01*
X109073000Y-96647000D01*
X109073000Y-96393000D01*
X109093000Y-96393000D01*
X109093000Y-95193750D01*
X109347000Y-95193750D01*
X109347000Y-96393000D01*
X110546250Y-96393000D01*
X110705000Y-96234250D01*
X110705000Y-95543690D01*
X140755000Y-95543690D01*
X140755000Y-96234250D01*
X140913750Y-96393000D01*
X142113000Y-96393000D01*
X142113000Y-95193750D01*
X141954250Y-95035000D01*
X141263691Y-95035000D01*
X141030302Y-95131673D01*
X140851673Y-95310301D01*
X140755000Y-95543690D01*
X110705000Y-95543690D01*
X110608327Y-95310301D01*
X110429698Y-95131673D01*
X110196309Y-95035000D01*
X109505750Y-95035000D01*
X109347000Y-95193750D01*
X109093000Y-95193750D01*
X108934250Y-95035000D01*
X108243691Y-95035000D01*
X108077000Y-95104046D01*
X108077000Y-89871517D01*
X111478088Y-89871517D01*
X111546077Y-90112460D01*
X112065171Y-90297201D01*
X112615448Y-90269230D01*
X112993923Y-90112460D01*
X113061912Y-89871517D01*
X112270000Y-89079605D01*
X111478088Y-89871517D01*
X108077000Y-89871517D01*
X108077000Y-88695171D01*
X110872799Y-88695171D01*
X110900770Y-89245448D01*
X111057540Y-89623923D01*
X111298483Y-89691912D01*
X112090395Y-88900000D01*
X112449605Y-88900000D01*
X113241517Y-89691912D01*
X113482460Y-89623923D01*
X113541732Y-89457379D01*
X113635169Y-89683515D01*
X114024436Y-90073461D01*
X114533298Y-90284759D01*
X115084285Y-90285240D01*
X115593515Y-90074831D01*
X115825062Y-89843687D01*
X116054436Y-90073461D01*
X116563298Y-90284759D01*
X117114285Y-90285240D01*
X117623515Y-90074831D01*
X118013461Y-89685564D01*
X118109976Y-89453130D01*
X118205169Y-89683515D01*
X118594436Y-90073461D01*
X119103298Y-90284759D01*
X119654285Y-90285240D01*
X120163515Y-90074831D01*
X120553461Y-89685564D01*
X120731462Y-89256890D01*
X138258524Y-89256890D01*
X138428355Y-89666924D01*
X138818642Y-90095183D01*
X139343108Y-90341486D01*
X139573000Y-90220819D01*
X139573000Y-89027000D01*
X138379845Y-89027000D01*
X138258524Y-89256890D01*
X120731462Y-89256890D01*
X120764759Y-89176702D01*
X120765240Y-88625715D01*
X120554831Y-88116485D01*
X120182965Y-87743970D01*
X121605635Y-87743970D01*
X121765418Y-88062739D01*
X122556187Y-88372723D01*
X123405387Y-88356497D01*
X124114582Y-88062739D01*
X124274365Y-87743970D01*
X122940000Y-86409605D01*
X121605635Y-87743970D01*
X120182965Y-87743970D01*
X120165564Y-87726539D01*
X119656702Y-87515241D01*
X119105715Y-87514760D01*
X118596485Y-87725169D01*
X118206539Y-88114436D01*
X118110024Y-88346870D01*
X118014831Y-88116485D01*
X117625564Y-87726539D01*
X117116702Y-87515241D01*
X116565715Y-87514760D01*
X116056485Y-87725169D01*
X115824938Y-87956313D01*
X115595564Y-87726539D01*
X115086702Y-87515241D01*
X114535715Y-87514760D01*
X114026485Y-87725169D01*
X113636539Y-88114436D01*
X113546623Y-88330979D01*
X113482460Y-88176077D01*
X113241517Y-88108088D01*
X112449605Y-88900000D01*
X112090395Y-88900000D01*
X111298483Y-88108088D01*
X111057540Y-88176077D01*
X110872799Y-88695171D01*
X108077000Y-88695171D01*
X108077000Y-88075119D01*
X108836187Y-88372723D01*
X109685387Y-88356497D01*
X110394582Y-88062739D01*
X110461877Y-87928483D01*
X111478088Y-87928483D01*
X112270000Y-88720395D01*
X113061912Y-87928483D01*
X112993923Y-87687540D01*
X112474829Y-87502799D01*
X111924552Y-87530770D01*
X111546077Y-87687540D01*
X111478088Y-87928483D01*
X110461877Y-87928483D01*
X110554365Y-87743970D01*
X109220000Y-86409605D01*
X109205858Y-86423748D01*
X109026253Y-86244143D01*
X109040395Y-86230000D01*
X109399605Y-86230000D01*
X110733970Y-87564365D01*
X111052739Y-87404582D01*
X111362723Y-86613813D01*
X111348056Y-85846187D01*
X120797277Y-85846187D01*
X120813503Y-86695387D01*
X121107261Y-87404582D01*
X121426030Y-87564365D01*
X122760395Y-86230000D01*
X123119605Y-86230000D01*
X124453970Y-87564365D01*
X124772739Y-87404582D01*
X125042316Y-86716890D01*
X138258524Y-86716890D01*
X138428355Y-87126924D01*
X138818642Y-87555183D01*
X138977954Y-87630000D01*
X138818642Y-87704817D01*
X138428355Y-88133076D01*
X138258524Y-88543110D01*
X138379845Y-88773000D01*
X139573000Y-88773000D01*
X139573000Y-86487000D01*
X138379845Y-86487000D01*
X138258524Y-86716890D01*
X125042316Y-86716890D01*
X125082723Y-86613813D01*
X125066497Y-85764613D01*
X124772739Y-85055418D01*
X124453970Y-84895635D01*
X123119605Y-86230000D01*
X122760395Y-86230000D01*
X121426030Y-84895635D01*
X121107261Y-85055418D01*
X120797277Y-85846187D01*
X111348056Y-85846187D01*
X111346497Y-85764613D01*
X111052739Y-85055418D01*
X110733970Y-84895635D01*
X109399605Y-86230000D01*
X109040395Y-86230000D01*
X109026253Y-86215858D01*
X109205858Y-86036253D01*
X109220000Y-86050395D01*
X110554365Y-84716030D01*
X121605635Y-84716030D01*
X122940000Y-86050395D01*
X124274365Y-84716030D01*
X124114582Y-84397261D01*
X123323813Y-84087277D01*
X122474613Y-84103503D01*
X121765418Y-84397261D01*
X121605635Y-84716030D01*
X110554365Y-84716030D01*
X110394582Y-84397261D01*
X109603813Y-84087277D01*
X108754613Y-84103503D01*
X108077000Y-84384179D01*
X108077000Y-81657938D01*
X127090732Y-81657938D01*
X127274448Y-82031821D01*
X127598951Y-82319568D01*
X128008869Y-82461229D01*
X128183000Y-82312563D01*
X128183000Y-81487000D01*
X128437000Y-81487000D01*
X128437000Y-82312563D01*
X128611131Y-82461229D01*
X129021049Y-82319568D01*
X129345552Y-82031821D01*
X129529268Y-81657938D01*
X132090732Y-81657938D01*
X132274448Y-82031821D01*
X132598951Y-82319568D01*
X133008869Y-82461229D01*
X133183000Y-82312563D01*
X133183000Y-81487000D01*
X133437000Y-81487000D01*
X133437000Y-82312563D01*
X133611131Y-82461229D01*
X134021049Y-82319568D01*
X134345552Y-82031821D01*
X134529268Y-81657938D01*
X134402734Y-81487000D01*
X133437000Y-81487000D01*
X133183000Y-81487000D01*
X132217266Y-81487000D01*
X132090732Y-81657938D01*
X129529268Y-81657938D01*
X129402734Y-81487000D01*
X128437000Y-81487000D01*
X128183000Y-81487000D01*
X127217266Y-81487000D01*
X127090732Y-81657938D01*
X108077000Y-81657938D01*
X108077000Y-81062062D01*
X127090732Y-81062062D01*
X127217266Y-81233000D01*
X128183000Y-81233000D01*
X128183000Y-80407437D01*
X128437000Y-80407437D01*
X128437000Y-81233000D01*
X129402734Y-81233000D01*
X129529268Y-81062062D01*
X132090732Y-81062062D01*
X132217266Y-81233000D01*
X133183000Y-81233000D01*
X133183000Y-80407437D01*
X133437000Y-80407437D01*
X133437000Y-81233000D01*
X134402734Y-81233000D01*
X134529268Y-81062062D01*
X134345552Y-80688179D01*
X134021049Y-80400432D01*
X133611131Y-80258771D01*
X133437000Y-80407437D01*
X133183000Y-80407437D01*
X133008869Y-80258771D01*
X132598951Y-80400432D01*
X132274448Y-80688179D01*
X132090732Y-81062062D01*
X129529268Y-81062062D01*
X129345552Y-80688179D01*
X129021049Y-80400432D01*
X128611131Y-80258771D01*
X128437000Y-80407437D01*
X128183000Y-80407437D01*
X128008869Y-80258771D01*
X127598951Y-80400432D01*
X127274448Y-80688179D01*
X127090732Y-81062062D01*
X108077000Y-81062062D01*
X108077000Y-78787000D01*
X126175000Y-78787000D01*
X126175000Y-79062000D01*
X126309998Y-79486678D01*
X126597237Y-79827368D01*
X127008126Y-80029119D01*
X127183000Y-79902954D01*
X127183000Y-78787000D01*
X127437000Y-78787000D01*
X127437000Y-79902954D01*
X127611874Y-80029119D01*
X128022763Y-79827368D01*
X128310002Y-79486678D01*
X128445000Y-79062000D01*
X128445000Y-78787000D01*
X133175000Y-78787000D01*
X133175000Y-79062000D01*
X133309998Y-79486678D01*
X133597237Y-79827368D01*
X134008126Y-80029119D01*
X134183000Y-79902954D01*
X134183000Y-78787000D01*
X134437000Y-78787000D01*
X134437000Y-79902954D01*
X134611874Y-80029119D01*
X135022763Y-79827368D01*
X135310002Y-79486678D01*
X135445000Y-79062000D01*
X135445000Y-78787000D01*
X134437000Y-78787000D01*
X134183000Y-78787000D01*
X133175000Y-78787000D01*
X128445000Y-78787000D01*
X127437000Y-78787000D01*
X127183000Y-78787000D01*
X126175000Y-78787000D01*
X108077000Y-78787000D01*
X108077000Y-77597000D01*
X126509243Y-77597000D01*
X126309998Y-77833322D01*
M02*
