M48
;DRILL file {KiCad 4.0.5} date 02/22/17 14:43:12
;FORMAT={-:-/ absolute / inch / decimal}
FMAT,2
INCH,TZ
T1C0.016
T2C0.020
T3C0.022
T4C0.031
T5C0.039
T6C0.091
%
G90
G05
M72
T1
X4.6Y-4.15
X4.6Y-4.55
X4.65Y-4.15
X4.65Y-4.65
X4.7Y-3.7
X4.7Y-4.5
X4.75Y-4.4
X4.75Y-4.65
X5.05Y-3.9
X5.3Y-3.7
X5.35Y-4.45
X5.35Y-4.75
T4
X4.4997Y-3.91
X4.4997Y-3.9887
X4.4997Y-4.0675
X4.4997Y-4.1462
X4.4997Y-4.225
X4.4997Y-4.3037
X4.4997Y-4.3824
X4.4997Y-4.4612
X4.4997Y-4.5399
X4.4997Y-4.6187
X4.4997Y-4.6974
X4.4997Y-4.7761
X4.4997Y-4.8549
X4.4997Y-4.9336
X4.4997Y-5.0124
X4.4997Y-5.0911
X5.4603Y-3.91
X5.4603Y-3.9887
X5.4603Y-4.0675
X5.4603Y-4.1462
X5.4603Y-4.225
X5.4603Y-4.3037
X5.4603Y-4.3824
X5.4603Y-4.4612
X5.4603Y-4.5399
X5.4603Y-4.6187
X5.4603Y-4.6974
X5.4603Y-4.7761
X5.4603Y-4.8549
X5.4603Y-4.9336
X5.4603Y-5.0124
X5.4603Y-5.0911
T5
X4.3Y-3.8
X4.3Y-3.9
X4.3Y-4.
X4.3Y-4.1
X4.3Y-4.2
X4.3Y-4.3
X4.3Y-4.4
X4.3Y-4.5
X4.3Y-4.6
X4.3Y-4.7
X4.3Y-4.8
X4.3Y-4.9
X4.3Y-5.
X4.3Y-5.1
X4.3Y-5.2
X4.3Y-5.3
X4.4201Y-3.5
X4.5201Y-3.5
X4.6Y-3.5
X4.7Y-3.5
X5.5Y-3.2
X5.5Y-3.3
X5.5Y-3.4
X5.5Y-3.5
X5.6Y-3.2
X5.6Y-3.3
X5.6Y-3.4
X5.6Y-3.5
X5.6Y-3.8
X5.6Y-3.9
X5.6Y-4.
X5.6Y-4.1
X5.6Y-4.2
X5.6Y-4.3
X5.6Y-4.4
X5.6Y-4.5
X5.6Y-4.6
X5.6Y-4.7
X5.6Y-4.8
X5.6Y-4.9
X5.6Y-5.
X5.6Y-5.1
X5.6Y-5.2
X5.6Y-5.3
T6
X4.3Y-3.3949
X4.8402Y-3.3949
T2
X5.0122Y-3.0841G85X5.0122Y-3.1096
G05
X5.2878Y-3.0841G85X5.2878Y-3.1096
G05
T3
X5.0575Y-3.2031G85X5.0457Y-3.2031
G05
X5.2543Y-3.2031G85X5.2425Y-3.2031
G05
T0
M30
