G04 #@! TF.FileFunction,Soldermask,Top*
%FSLAX46Y46*%
G04 Gerber Fmt 4.6, Leading zero omitted, Abs format (unit mm)*
G04 Created by KiCad (PCBNEW 4.0.5) date 02/22/17 14:43:09*
%MOMM*%
%LPD*%
G01*
G04 APERTURE LIST*
%ADD10C,0.100000*%
%ADD11C,1.750000*%
%ADD12R,1.750000X1.750000*%
%ADD13R,1.900000X1.650000*%
%ADD14R,1.300000X1.200000*%
%ADD15R,0.800000X1.750000*%
%ADD16O,1.650000X1.350000*%
%ADD17O,1.400000X1.950000*%
%ADD18C,1.900000*%
%ADD19C,3.400000*%
%ADD20R,2.100000X2.100000*%
%ADD21O,2.100000X2.100000*%
%ADD22R,1.900000X1.700000*%
%ADD23R,4.200000X2.400000*%
%ADD24R,1.900000X2.400000*%
%ADD25R,3.600000X1.900000*%
%ADD26R,1.900000X3.600000*%
G04 APERTURE END LIST*
D10*
D11*
X138692000Y-129314000D03*
X138692000Y-127314000D03*
X138692000Y-125314000D03*
X138692000Y-123314000D03*
X138692000Y-121314000D03*
X138692000Y-119314000D03*
X138692000Y-117314000D03*
X138692000Y-115314000D03*
X138692000Y-113314000D03*
X138692000Y-111314000D03*
X138692000Y-109314000D03*
X138692000Y-107314000D03*
X138692000Y-105314000D03*
X138692000Y-103314000D03*
X138692000Y-101314000D03*
D12*
X138692000Y-99314000D03*
X114292000Y-99314000D03*
D11*
X114292000Y-101314000D03*
X114292000Y-103314000D03*
X114292000Y-105314000D03*
X114292000Y-107314000D03*
X114292000Y-109314000D03*
X114292000Y-111314000D03*
X114292000Y-113314000D03*
X114292000Y-115314000D03*
X114292000Y-117314000D03*
X114292000Y-119314000D03*
X114292000Y-121314000D03*
X114292000Y-123314000D03*
X114292000Y-125314000D03*
X114292000Y-127314000D03*
X114292000Y-129314000D03*
D13*
X133330000Y-113030000D03*
X130830000Y-113030000D03*
X133330000Y-124460000D03*
X130830000Y-124460000D03*
D14*
X120920000Y-113350000D03*
X120920000Y-115250000D03*
X122920000Y-114300000D03*
X120920000Y-119700000D03*
X120920000Y-121600000D03*
X122920000Y-120650000D03*
D15*
X132110000Y-81360000D03*
X131460000Y-81360000D03*
X130810000Y-81360000D03*
X130160000Y-81360000D03*
X129510000Y-81360000D03*
D16*
X133310000Y-81360000D03*
X128310000Y-81360000D03*
D17*
X134310000Y-78660000D03*
X127310000Y-78660000D03*
D18*
X112270000Y-88900000D03*
X114810000Y-88900000D03*
X116840000Y-88900000D03*
X119380000Y-88900000D03*
D19*
X109220000Y-86230000D03*
X122940000Y-86230000D03*
D20*
X109220000Y-96520000D03*
D21*
X109220000Y-99060000D03*
X109220000Y-101600000D03*
X109220000Y-104140000D03*
X109220000Y-106680000D03*
X109220000Y-109220000D03*
X109220000Y-111760000D03*
X109220000Y-114300000D03*
X109220000Y-116840000D03*
X109220000Y-119380000D03*
X109220000Y-121920000D03*
X109220000Y-124460000D03*
X109220000Y-127000000D03*
X109220000Y-129540000D03*
X109220000Y-132080000D03*
X109220000Y-134620000D03*
D20*
X142240000Y-96520000D03*
D21*
X142240000Y-99060000D03*
X142240000Y-101600000D03*
X142240000Y-104140000D03*
X142240000Y-106680000D03*
X142240000Y-109220000D03*
X142240000Y-111760000D03*
X142240000Y-114300000D03*
X142240000Y-116840000D03*
X142240000Y-119380000D03*
X142240000Y-121920000D03*
X142240000Y-124460000D03*
X142240000Y-127000000D03*
X142240000Y-129540000D03*
X142240000Y-132080000D03*
X142240000Y-134620000D03*
D22*
X133430000Y-116840000D03*
X130730000Y-116840000D03*
X133430000Y-120650000D03*
X130730000Y-120650000D03*
D23*
X125730000Y-107290000D03*
D24*
X125730000Y-100990000D03*
X123430000Y-100990000D03*
X128030000Y-100990000D03*
D25*
X123920000Y-96520000D03*
X119920000Y-96520000D03*
X130080000Y-96520000D03*
X134080000Y-96520000D03*
D26*
X132080000Y-106140000D03*
X132080000Y-102140000D03*
D20*
X139700000Y-81280000D03*
D21*
X142240000Y-81280000D03*
X139700000Y-83820000D03*
X142240000Y-83820000D03*
X139700000Y-86360000D03*
X142240000Y-86360000D03*
X139700000Y-88900000D03*
X142240000Y-88900000D03*
M02*
