G04 #@! TF.FileFunction,Legend,Bot*
%FSLAX46Y46*%
G04 Gerber Fmt 4.6, Leading zero omitted, Abs format (unit mm)*
G04 Created by KiCad (PCBNEW 4.0.5) date 02/24/17 16:37:27*
%MOMM*%
%LPD*%
G01*
G04 APERTURE LIST*
%ADD10C,0.100000*%
%ADD11C,0.200000*%
%ADD12C,0.300000*%
%ADD13C,0.010000*%
G04 APERTURE END LIST*
D10*
D11*
X121102381Y-102441904D02*
X120102381Y-102441904D01*
X120483333Y-102441904D02*
X120435714Y-102537142D01*
X120435714Y-102727619D01*
X120483333Y-102822857D01*
X120530952Y-102870476D01*
X120626190Y-102918095D01*
X120911905Y-102918095D01*
X121007143Y-102870476D01*
X121054762Y-102822857D01*
X121102381Y-102727619D01*
X121102381Y-102537142D01*
X121054762Y-102441904D01*
X120435714Y-103251428D02*
X121102381Y-103489523D01*
X120435714Y-103727619D02*
X121102381Y-103489523D01*
X121340476Y-103394285D01*
X121388095Y-103346666D01*
X121435714Y-103251428D01*
X120102381Y-104775238D02*
X121102381Y-105013333D01*
X120388095Y-105203810D01*
X121102381Y-105394286D01*
X120102381Y-105632381D01*
X121054762Y-106394286D02*
X121102381Y-106299048D01*
X121102381Y-106108571D01*
X121054762Y-106013333D01*
X120959524Y-105965714D01*
X120578571Y-105965714D01*
X120483333Y-106013333D01*
X120435714Y-106108571D01*
X120435714Y-106299048D01*
X120483333Y-106394286D01*
X120578571Y-106441905D01*
X120673810Y-106441905D01*
X120769048Y-105965714D01*
X121102381Y-106870476D02*
X120435714Y-106870476D01*
X120626190Y-106870476D02*
X120530952Y-106918095D01*
X120483333Y-106965714D01*
X120435714Y-107060952D01*
X120435714Y-107156191D01*
X121054762Y-107870477D02*
X121102381Y-107775239D01*
X121102381Y-107584762D01*
X121054762Y-107489524D01*
X120959524Y-107441905D01*
X120578571Y-107441905D01*
X120483333Y-107489524D01*
X120435714Y-107584762D01*
X120435714Y-107775239D01*
X120483333Y-107870477D01*
X120578571Y-107918096D01*
X120673810Y-107918096D01*
X120769048Y-107441905D01*
X121007143Y-108918096D02*
X121054762Y-108870477D01*
X121102381Y-108727620D01*
X121102381Y-108632382D01*
X121054762Y-108489524D01*
X120959524Y-108394286D01*
X120864286Y-108346667D01*
X120673810Y-108299048D01*
X120530952Y-108299048D01*
X120340476Y-108346667D01*
X120245238Y-108394286D01*
X120150000Y-108489524D01*
X120102381Y-108632382D01*
X120102381Y-108727620D01*
X120150000Y-108870477D01*
X120197619Y-108918096D01*
X121102381Y-109775239D02*
X120578571Y-109775239D01*
X120483333Y-109727620D01*
X120435714Y-109632382D01*
X120435714Y-109441905D01*
X120483333Y-109346667D01*
X121054762Y-109775239D02*
X121102381Y-109680001D01*
X121102381Y-109441905D01*
X121054762Y-109346667D01*
X120959524Y-109299048D01*
X120864286Y-109299048D01*
X120769048Y-109346667D01*
X120721429Y-109441905D01*
X120721429Y-109680001D01*
X120673810Y-109775239D01*
X120435714Y-110108572D02*
X120435714Y-110489524D01*
X120102381Y-110251429D02*
X120959524Y-110251429D01*
X121054762Y-110299048D01*
X121102381Y-110394286D01*
X121102381Y-110489524D01*
X120435714Y-110680001D02*
X120435714Y-111060953D01*
X121102381Y-110822858D02*
X120245238Y-110822858D01*
X120150000Y-110870477D01*
X120102381Y-110965715D01*
X120102381Y-111060953D01*
D12*
X117288571Y-99744286D02*
X117288571Y-100030000D01*
X117360000Y-100172858D01*
X117502857Y-100315715D01*
X117788571Y-100387143D01*
X118288571Y-100387143D01*
X118574286Y-100315715D01*
X118717143Y-100172858D01*
X118788571Y-100030000D01*
X118788571Y-99744286D01*
X118717143Y-99601429D01*
X118574286Y-99458572D01*
X118288571Y-99387143D01*
X117788571Y-99387143D01*
X117502857Y-99458572D01*
X117360000Y-99601429D01*
X117288571Y-99744286D01*
X118788571Y-101030001D02*
X117788571Y-101030001D01*
X117931429Y-101030001D02*
X117860000Y-101101429D01*
X117788571Y-101244287D01*
X117788571Y-101458572D01*
X117860000Y-101601429D01*
X118002857Y-101672858D01*
X118788571Y-101672858D01*
X118002857Y-101672858D02*
X117860000Y-101744287D01*
X117788571Y-101887144D01*
X117788571Y-102101429D01*
X117860000Y-102244287D01*
X118002857Y-102315715D01*
X118788571Y-102315715D01*
X118717143Y-103601429D02*
X118788571Y-103458572D01*
X118788571Y-103172858D01*
X118717143Y-103030001D01*
X118574286Y-102958572D01*
X118002857Y-102958572D01*
X117860000Y-103030001D01*
X117788571Y-103172858D01*
X117788571Y-103458572D01*
X117860000Y-103601429D01*
X118002857Y-103672858D01*
X118145714Y-103672858D01*
X118288571Y-102958572D01*
X117788571Y-104958572D02*
X119002857Y-104958572D01*
X119145714Y-104887143D01*
X119217143Y-104815715D01*
X119288571Y-104672858D01*
X119288571Y-104458572D01*
X119217143Y-104315715D01*
X118717143Y-104958572D02*
X118788571Y-104815715D01*
X118788571Y-104530001D01*
X118717143Y-104387143D01*
X118645714Y-104315715D01*
X118502857Y-104244286D01*
X118074286Y-104244286D01*
X117931429Y-104315715D01*
X117860000Y-104387143D01*
X117788571Y-104530001D01*
X117788571Y-104815715D01*
X117860000Y-104958572D01*
X118788571Y-106315715D02*
X118002857Y-106315715D01*
X117860000Y-106244286D01*
X117788571Y-106101429D01*
X117788571Y-105815715D01*
X117860000Y-105672858D01*
X118717143Y-106315715D02*
X118788571Y-106172858D01*
X118788571Y-105815715D01*
X118717143Y-105672858D01*
X118574286Y-105601429D01*
X118431429Y-105601429D01*
X118288571Y-105672858D01*
X118217143Y-105815715D01*
X118217143Y-106172858D01*
X118145714Y-106315715D01*
X117431429Y-106958572D02*
X117360000Y-107030001D01*
X117288571Y-107172858D01*
X117288571Y-107530001D01*
X117360000Y-107672858D01*
X117431429Y-107744287D01*
X117574286Y-107815715D01*
X117717143Y-107815715D01*
X117931429Y-107744287D01*
X118788571Y-106887144D01*
X118788571Y-107815715D01*
X118788571Y-109601429D02*
X117788571Y-109601429D01*
X117931429Y-109601429D02*
X117860000Y-109672857D01*
X117788571Y-109815715D01*
X117788571Y-110030000D01*
X117860000Y-110172857D01*
X118002857Y-110244286D01*
X118788571Y-110244286D01*
X118002857Y-110244286D02*
X117860000Y-110315715D01*
X117788571Y-110458572D01*
X117788571Y-110672857D01*
X117860000Y-110815715D01*
X118002857Y-110887143D01*
X118788571Y-110887143D01*
X118788571Y-111601429D02*
X117788571Y-111601429D01*
X117288571Y-111601429D02*
X117360000Y-111530000D01*
X117431429Y-111601429D01*
X117360000Y-111672857D01*
X117288571Y-111601429D01*
X117431429Y-111601429D01*
X117788571Y-112315715D02*
X118788571Y-112315715D01*
X117931429Y-112315715D02*
X117860000Y-112387143D01*
X117788571Y-112530001D01*
X117788571Y-112744286D01*
X117860000Y-112887143D01*
X118002857Y-112958572D01*
X118788571Y-112958572D01*
X118788571Y-113672858D02*
X117788571Y-113672858D01*
X117288571Y-113672858D02*
X117360000Y-113601429D01*
X117431429Y-113672858D01*
X117360000Y-113744286D01*
X117288571Y-113672858D01*
X117431429Y-113672858D01*
X118217143Y-114387144D02*
X118217143Y-115530001D01*
X118788571Y-116887144D02*
X117288571Y-116887144D01*
X118717143Y-116887144D02*
X118788571Y-116744287D01*
X118788571Y-116458573D01*
X118717143Y-116315715D01*
X118645714Y-116244287D01*
X118502857Y-116172858D01*
X118074286Y-116172858D01*
X117931429Y-116244287D01*
X117860000Y-116315715D01*
X117788571Y-116458573D01*
X117788571Y-116744287D01*
X117860000Y-116887144D01*
X118788571Y-117815716D02*
X118717143Y-117672858D01*
X118645714Y-117601430D01*
X118502857Y-117530001D01*
X118074286Y-117530001D01*
X117931429Y-117601430D01*
X117860000Y-117672858D01*
X117788571Y-117815716D01*
X117788571Y-118030001D01*
X117860000Y-118172858D01*
X117931429Y-118244287D01*
X118074286Y-118315716D01*
X118502857Y-118315716D01*
X118645714Y-118244287D01*
X118717143Y-118172858D01*
X118788571Y-118030001D01*
X118788571Y-117815716D01*
X118717143Y-119601430D02*
X118788571Y-119458573D01*
X118788571Y-119172859D01*
X118717143Y-119030001D01*
X118645714Y-118958573D01*
X118502857Y-118887144D01*
X118074286Y-118887144D01*
X117931429Y-118958573D01*
X117860000Y-119030001D01*
X117788571Y-119172859D01*
X117788571Y-119458573D01*
X117860000Y-119601430D01*
X118788571Y-120244287D02*
X117288571Y-120244287D01*
X118217143Y-120387144D02*
X118788571Y-120815715D01*
X117788571Y-120815715D02*
X118360000Y-120244287D01*
X117788571Y-122458573D02*
X118788571Y-122815716D01*
X117788571Y-123172858D01*
X118788571Y-124530001D02*
X118788571Y-123672858D01*
X118788571Y-124101430D02*
X117288571Y-124101430D01*
X117502857Y-123958573D01*
X117645714Y-123815715D01*
X117717143Y-123672858D01*
X118645714Y-125172858D02*
X118717143Y-125244286D01*
X118788571Y-125172858D01*
X118717143Y-125101429D01*
X118645714Y-125172858D01*
X118788571Y-125172858D01*
X117431429Y-125815715D02*
X117360000Y-125887144D01*
X117288571Y-126030001D01*
X117288571Y-126387144D01*
X117360000Y-126530001D01*
X117431429Y-126601430D01*
X117574286Y-126672858D01*
X117717143Y-126672858D01*
X117931429Y-126601430D01*
X118788571Y-125744287D01*
X118788571Y-126672858D01*
D13*
G36*
X120193710Y-115710708D02*
X120195636Y-115805146D01*
X120198854Y-115888176D01*
X120203388Y-115955391D01*
X120203450Y-115956080D01*
X120239085Y-116238430D01*
X120294382Y-116519308D01*
X120368681Y-116797009D01*
X120461328Y-117069828D01*
X120571664Y-117336062D01*
X120699032Y-117594005D01*
X120842775Y-117841953D01*
X121002236Y-118078203D01*
X121042901Y-118133143D01*
X121170468Y-118293209D01*
X121310874Y-118452692D01*
X121460314Y-118607806D01*
X121614981Y-118754764D01*
X121771071Y-118889782D01*
X121920000Y-119005586D01*
X122154375Y-119166660D01*
X122392048Y-119308966D01*
X122636011Y-119434056D01*
X122889256Y-119543481D01*
X123118880Y-119626951D01*
X123388162Y-119706912D01*
X123662247Y-119768241D01*
X123943484Y-119811429D01*
X124053600Y-119823272D01*
X124126295Y-119828607D01*
X124213754Y-119832443D01*
X124312153Y-119834821D01*
X124417671Y-119835785D01*
X124526486Y-119835375D01*
X124634776Y-119833634D01*
X124738720Y-119830603D01*
X124834495Y-119826324D01*
X124918279Y-119820840D01*
X124986251Y-119814191D01*
X124996037Y-119812938D01*
X125293204Y-119763547D01*
X125581132Y-119696089D01*
X125860040Y-119610482D01*
X126130150Y-119506645D01*
X126391679Y-119384495D01*
X126644847Y-119243951D01*
X126822920Y-119130757D01*
X127063570Y-118957212D01*
X127290560Y-118768724D01*
X127503471Y-118565761D01*
X127701882Y-118348795D01*
X127885374Y-118118296D01*
X128053528Y-117874732D01*
X128205923Y-117618575D01*
X128255582Y-117525800D01*
X128379798Y-117265152D01*
X128485866Y-116995934D01*
X128573426Y-116719389D01*
X128642122Y-116436765D01*
X128691595Y-116149305D01*
X128716830Y-115919886D01*
X128720589Y-115859102D01*
X128723289Y-115783153D01*
X128724962Y-115696026D01*
X128725635Y-115601709D01*
X128725338Y-115504189D01*
X128724102Y-115407453D01*
X128721955Y-115315488D01*
X128718926Y-115232282D01*
X128715046Y-115161821D01*
X128710872Y-115112800D01*
X128681401Y-114901626D01*
X128638526Y-114681924D01*
X128583641Y-114459091D01*
X128518138Y-114238526D01*
X128443409Y-114025628D01*
X128406018Y-113931022D01*
X128332502Y-113765368D01*
X128245743Y-113592966D01*
X128148791Y-113419211D01*
X128044694Y-113249500D01*
X127936504Y-113089228D01*
X127907837Y-113049437D01*
X127776732Y-112881056D01*
X127629831Y-112712101D01*
X127471135Y-112546576D01*
X127304646Y-112388489D01*
X127134363Y-112241846D01*
X126986458Y-112126850D01*
X126748819Y-111964141D01*
X126500244Y-111817850D01*
X126242191Y-111688537D01*
X125976122Y-111576762D01*
X125703494Y-111483086D01*
X125425768Y-111408068D01*
X125144403Y-111352268D01*
X124878639Y-111317911D01*
X124792578Y-111311469D01*
X124691305Y-111306853D01*
X124579844Y-111304064D01*
X124463220Y-111303100D01*
X124378845Y-111303723D01*
X124378845Y-111568609D01*
X124476258Y-111568942D01*
X124576133Y-111570612D01*
X124674249Y-111573538D01*
X124766387Y-111577640D01*
X124848326Y-111582835D01*
X124915844Y-111589043D01*
X124937520Y-111591743D01*
X125229304Y-111641426D01*
X125511299Y-111708909D01*
X125783608Y-111794243D01*
X126046336Y-111897480D01*
X126299587Y-112018670D01*
X126543466Y-112157866D01*
X126778076Y-112315119D01*
X127003522Y-112490480D01*
X127219907Y-112684001D01*
X127286366Y-112748885D01*
X127482419Y-112958353D01*
X127661519Y-113178972D01*
X127823491Y-113410427D01*
X127968158Y-113652404D01*
X128095345Y-113904588D01*
X128204875Y-114166665D01*
X128296571Y-114438319D01*
X128356574Y-114660680D01*
X128374507Y-114737695D01*
X128390218Y-114811542D01*
X128404215Y-114885539D01*
X128417007Y-114963009D01*
X128429103Y-115047272D01*
X128441012Y-115141648D01*
X128453243Y-115249459D01*
X128466305Y-115374026D01*
X128467120Y-115382040D01*
X128469469Y-115423285D01*
X128470166Y-115480733D01*
X128469371Y-115550345D01*
X128467239Y-115628085D01*
X128463930Y-115709915D01*
X128459602Y-115791797D01*
X128454413Y-115869695D01*
X128448520Y-115939571D01*
X128443457Y-115986560D01*
X128424760Y-116126974D01*
X128404445Y-116253844D01*
X128381287Y-116373937D01*
X128354064Y-116494026D01*
X128345325Y-116529454D01*
X128266306Y-116803436D01*
X128168894Y-117069093D01*
X128053467Y-117325883D01*
X127920404Y-117573262D01*
X127770083Y-117810684D01*
X127602883Y-118037607D01*
X127419183Y-118253486D01*
X127219360Y-118457778D01*
X127003794Y-118649938D01*
X126772863Y-118829423D01*
X126717397Y-118869007D01*
X126486159Y-119019007D01*
X126243733Y-119152216D01*
X125990760Y-119268365D01*
X125727881Y-119367185D01*
X125455736Y-119448406D01*
X125196600Y-119507577D01*
X124960362Y-119545202D01*
X124714888Y-119567885D01*
X124464713Y-119575625D01*
X124214371Y-119568423D01*
X123968397Y-119546278D01*
X123731326Y-119509189D01*
X123723400Y-119507651D01*
X123441781Y-119442746D01*
X123169598Y-119359971D01*
X122907038Y-119259406D01*
X122654290Y-119141128D01*
X122411542Y-119005216D01*
X122230003Y-118887524D01*
X121993420Y-118712526D01*
X121771751Y-118523988D01*
X121565302Y-118322233D01*
X121374382Y-118107587D01*
X121199297Y-117880374D01*
X121040354Y-117640917D01*
X121024378Y-117614687D01*
X120886686Y-117367273D01*
X120767765Y-117112089D01*
X120667610Y-116849124D01*
X120586219Y-116578367D01*
X120523588Y-116299809D01*
X120479714Y-116013438D01*
X120466480Y-115886410D01*
X120462301Y-115821695D01*
X120459705Y-115741846D01*
X120458612Y-115651085D01*
X120458941Y-115553637D01*
X120460610Y-115453727D01*
X120463538Y-115355577D01*
X120467645Y-115263412D01*
X120472848Y-115181457D01*
X120479067Y-115113935D01*
X120481743Y-115092480D01*
X120531308Y-114800981D01*
X120598484Y-114519596D01*
X120683344Y-114248168D01*
X120785964Y-113986544D01*
X120906419Y-113734568D01*
X121044784Y-113492086D01*
X121201133Y-113258943D01*
X121375541Y-113034984D01*
X121568083Y-112820055D01*
X121594788Y-112792423D01*
X121790413Y-112602736D01*
X121989670Y-112431709D01*
X122194728Y-112277738D01*
X122407754Y-112139214D01*
X122630916Y-112014532D01*
X122675126Y-111992032D01*
X122926953Y-111875581D01*
X123180227Y-111778323D01*
X123437327Y-111699584D01*
X123700630Y-111638692D01*
X123972516Y-111594973D01*
X124143589Y-111576451D01*
X124208290Y-111572282D01*
X124288116Y-111569696D01*
X124378845Y-111568609D01*
X124378845Y-111303723D01*
X124346459Y-111303963D01*
X124234585Y-111306653D01*
X124132623Y-111311169D01*
X124045599Y-111317511D01*
X124041360Y-111317911D01*
X123755470Y-111355449D01*
X123473025Y-111412746D01*
X123195005Y-111489389D01*
X122922387Y-111584968D01*
X122656151Y-111699072D01*
X122397275Y-111831289D01*
X122146737Y-111981207D01*
X121905518Y-112148416D01*
X121721880Y-112292721D01*
X121597540Y-112401507D01*
X121469230Y-112524201D01*
X121341302Y-112656175D01*
X121218109Y-112792799D01*
X121104006Y-112929445D01*
X121018881Y-113040160D01*
X120856263Y-113277982D01*
X120709956Y-113526646D01*
X120580536Y-113784652D01*
X120468578Y-114050503D01*
X120374656Y-114322702D01*
X120299348Y-114599751D01*
X120243226Y-114880152D01*
X120207911Y-115151360D01*
X120202600Y-115221679D01*
X120198434Y-115307037D01*
X120195438Y-115403027D01*
X120193636Y-115505241D01*
X120193052Y-115609270D01*
X120193710Y-115710708D01*
X120193710Y-115710708D01*
G37*
X120193710Y-115710708D02*
X120195636Y-115805146D01*
X120198854Y-115888176D01*
X120203388Y-115955391D01*
X120203450Y-115956080D01*
X120239085Y-116238430D01*
X120294382Y-116519308D01*
X120368681Y-116797009D01*
X120461328Y-117069828D01*
X120571664Y-117336062D01*
X120699032Y-117594005D01*
X120842775Y-117841953D01*
X121002236Y-118078203D01*
X121042901Y-118133143D01*
X121170468Y-118293209D01*
X121310874Y-118452692D01*
X121460314Y-118607806D01*
X121614981Y-118754764D01*
X121771071Y-118889782D01*
X121920000Y-119005586D01*
X122154375Y-119166660D01*
X122392048Y-119308966D01*
X122636011Y-119434056D01*
X122889256Y-119543481D01*
X123118880Y-119626951D01*
X123388162Y-119706912D01*
X123662247Y-119768241D01*
X123943484Y-119811429D01*
X124053600Y-119823272D01*
X124126295Y-119828607D01*
X124213754Y-119832443D01*
X124312153Y-119834821D01*
X124417671Y-119835785D01*
X124526486Y-119835375D01*
X124634776Y-119833634D01*
X124738720Y-119830603D01*
X124834495Y-119826324D01*
X124918279Y-119820840D01*
X124986251Y-119814191D01*
X124996037Y-119812938D01*
X125293204Y-119763547D01*
X125581132Y-119696089D01*
X125860040Y-119610482D01*
X126130150Y-119506645D01*
X126391679Y-119384495D01*
X126644847Y-119243951D01*
X126822920Y-119130757D01*
X127063570Y-118957212D01*
X127290560Y-118768724D01*
X127503471Y-118565761D01*
X127701882Y-118348795D01*
X127885374Y-118118296D01*
X128053528Y-117874732D01*
X128205923Y-117618575D01*
X128255582Y-117525800D01*
X128379798Y-117265152D01*
X128485866Y-116995934D01*
X128573426Y-116719389D01*
X128642122Y-116436765D01*
X128691595Y-116149305D01*
X128716830Y-115919886D01*
X128720589Y-115859102D01*
X128723289Y-115783153D01*
X128724962Y-115696026D01*
X128725635Y-115601709D01*
X128725338Y-115504189D01*
X128724102Y-115407453D01*
X128721955Y-115315488D01*
X128718926Y-115232282D01*
X128715046Y-115161821D01*
X128710872Y-115112800D01*
X128681401Y-114901626D01*
X128638526Y-114681924D01*
X128583641Y-114459091D01*
X128518138Y-114238526D01*
X128443409Y-114025628D01*
X128406018Y-113931022D01*
X128332502Y-113765368D01*
X128245743Y-113592966D01*
X128148791Y-113419211D01*
X128044694Y-113249500D01*
X127936504Y-113089228D01*
X127907837Y-113049437D01*
X127776732Y-112881056D01*
X127629831Y-112712101D01*
X127471135Y-112546576D01*
X127304646Y-112388489D01*
X127134363Y-112241846D01*
X126986458Y-112126850D01*
X126748819Y-111964141D01*
X126500244Y-111817850D01*
X126242191Y-111688537D01*
X125976122Y-111576762D01*
X125703494Y-111483086D01*
X125425768Y-111408068D01*
X125144403Y-111352268D01*
X124878639Y-111317911D01*
X124792578Y-111311469D01*
X124691305Y-111306853D01*
X124579844Y-111304064D01*
X124463220Y-111303100D01*
X124378845Y-111303723D01*
X124378845Y-111568609D01*
X124476258Y-111568942D01*
X124576133Y-111570612D01*
X124674249Y-111573538D01*
X124766387Y-111577640D01*
X124848326Y-111582835D01*
X124915844Y-111589043D01*
X124937520Y-111591743D01*
X125229304Y-111641426D01*
X125511299Y-111708909D01*
X125783608Y-111794243D01*
X126046336Y-111897480D01*
X126299587Y-112018670D01*
X126543466Y-112157866D01*
X126778076Y-112315119D01*
X127003522Y-112490480D01*
X127219907Y-112684001D01*
X127286366Y-112748885D01*
X127482419Y-112958353D01*
X127661519Y-113178972D01*
X127823491Y-113410427D01*
X127968158Y-113652404D01*
X128095345Y-113904588D01*
X128204875Y-114166665D01*
X128296571Y-114438319D01*
X128356574Y-114660680D01*
X128374507Y-114737695D01*
X128390218Y-114811542D01*
X128404215Y-114885539D01*
X128417007Y-114963009D01*
X128429103Y-115047272D01*
X128441012Y-115141648D01*
X128453243Y-115249459D01*
X128466305Y-115374026D01*
X128467120Y-115382040D01*
X128469469Y-115423285D01*
X128470166Y-115480733D01*
X128469371Y-115550345D01*
X128467239Y-115628085D01*
X128463930Y-115709915D01*
X128459602Y-115791797D01*
X128454413Y-115869695D01*
X128448520Y-115939571D01*
X128443457Y-115986560D01*
X128424760Y-116126974D01*
X128404445Y-116253844D01*
X128381287Y-116373937D01*
X128354064Y-116494026D01*
X128345325Y-116529454D01*
X128266306Y-116803436D01*
X128168894Y-117069093D01*
X128053467Y-117325883D01*
X127920404Y-117573262D01*
X127770083Y-117810684D01*
X127602883Y-118037607D01*
X127419183Y-118253486D01*
X127219360Y-118457778D01*
X127003794Y-118649938D01*
X126772863Y-118829423D01*
X126717397Y-118869007D01*
X126486159Y-119019007D01*
X126243733Y-119152216D01*
X125990760Y-119268365D01*
X125727881Y-119367185D01*
X125455736Y-119448406D01*
X125196600Y-119507577D01*
X124960362Y-119545202D01*
X124714888Y-119567885D01*
X124464713Y-119575625D01*
X124214371Y-119568423D01*
X123968397Y-119546278D01*
X123731326Y-119509189D01*
X123723400Y-119507651D01*
X123441781Y-119442746D01*
X123169598Y-119359971D01*
X122907038Y-119259406D01*
X122654290Y-119141128D01*
X122411542Y-119005216D01*
X122230003Y-118887524D01*
X121993420Y-118712526D01*
X121771751Y-118523988D01*
X121565302Y-118322233D01*
X121374382Y-118107587D01*
X121199297Y-117880374D01*
X121040354Y-117640917D01*
X121024378Y-117614687D01*
X120886686Y-117367273D01*
X120767765Y-117112089D01*
X120667610Y-116849124D01*
X120586219Y-116578367D01*
X120523588Y-116299809D01*
X120479714Y-116013438D01*
X120466480Y-115886410D01*
X120462301Y-115821695D01*
X120459705Y-115741846D01*
X120458612Y-115651085D01*
X120458941Y-115553637D01*
X120460610Y-115453727D01*
X120463538Y-115355577D01*
X120467645Y-115263412D01*
X120472848Y-115181457D01*
X120479067Y-115113935D01*
X120481743Y-115092480D01*
X120531308Y-114800981D01*
X120598484Y-114519596D01*
X120683344Y-114248168D01*
X120785964Y-113986544D01*
X120906419Y-113734568D01*
X121044784Y-113492086D01*
X121201133Y-113258943D01*
X121375541Y-113034984D01*
X121568083Y-112820055D01*
X121594788Y-112792423D01*
X121790413Y-112602736D01*
X121989670Y-112431709D01*
X122194728Y-112277738D01*
X122407754Y-112139214D01*
X122630916Y-112014532D01*
X122675126Y-111992032D01*
X122926953Y-111875581D01*
X123180227Y-111778323D01*
X123437327Y-111699584D01*
X123700630Y-111638692D01*
X123972516Y-111594973D01*
X124143589Y-111576451D01*
X124208290Y-111572282D01*
X124288116Y-111569696D01*
X124378845Y-111568609D01*
X124378845Y-111303723D01*
X124346459Y-111303963D01*
X124234585Y-111306653D01*
X124132623Y-111311169D01*
X124045599Y-111317511D01*
X124041360Y-111317911D01*
X123755470Y-111355449D01*
X123473025Y-111412746D01*
X123195005Y-111489389D01*
X122922387Y-111584968D01*
X122656151Y-111699072D01*
X122397275Y-111831289D01*
X122146737Y-111981207D01*
X121905518Y-112148416D01*
X121721880Y-112292721D01*
X121597540Y-112401507D01*
X121469230Y-112524201D01*
X121341302Y-112656175D01*
X121218109Y-112792799D01*
X121104006Y-112929445D01*
X121018881Y-113040160D01*
X120856263Y-113277982D01*
X120709956Y-113526646D01*
X120580536Y-113784652D01*
X120468578Y-114050503D01*
X120374656Y-114322702D01*
X120299348Y-114599751D01*
X120243226Y-114880152D01*
X120207911Y-115151360D01*
X120202600Y-115221679D01*
X120198434Y-115307037D01*
X120195438Y-115403027D01*
X120193636Y-115505241D01*
X120193052Y-115609270D01*
X120193710Y-115710708D01*
G36*
X121986210Y-115797226D02*
X121993984Y-115832413D01*
X122007746Y-115881315D01*
X122026810Y-115941318D01*
X122031754Y-115956063D01*
X122051942Y-116018596D01*
X122071371Y-116083881D01*
X122088190Y-116145359D01*
X122100553Y-116196470D01*
X122103355Y-116210028D01*
X122126974Y-116370126D01*
X122138756Y-116542867D01*
X122138775Y-116724431D01*
X122127105Y-116911001D01*
X122103822Y-117098755D01*
X122083779Y-117213100D01*
X122073656Y-117260642D01*
X122062932Y-117304168D01*
X122053187Y-117337544D01*
X122048416Y-117350260D01*
X122031701Y-117390888D01*
X122025127Y-117417975D01*
X122028137Y-117435257D01*
X122034621Y-117442726D01*
X122047294Y-117452640D01*
X122073129Y-117472648D01*
X122109173Y-117500469D01*
X122152471Y-117533822D01*
X122190482Y-117563058D01*
X122258919Y-117616368D01*
X122313250Y-117660626D01*
X122356053Y-117698382D01*
X122389902Y-117732187D01*
X122417375Y-117764592D01*
X122441049Y-117798145D01*
X122460756Y-117830600D01*
X122508335Y-117911715D01*
X122548572Y-117976228D01*
X122582965Y-118025832D01*
X122613010Y-118062221D01*
X122640203Y-118087091D01*
X122666042Y-118102135D01*
X122692024Y-118109048D01*
X122707563Y-118109999D01*
X122735997Y-118105985D01*
X122753574Y-118099596D01*
X122768725Y-118081847D01*
X122783904Y-118046175D01*
X122798497Y-117994965D01*
X122811890Y-117930603D01*
X122823470Y-117855476D01*
X122829471Y-117804530D01*
X122836997Y-117765181D01*
X122849543Y-117728165D01*
X122857256Y-117713090D01*
X122874307Y-117682529D01*
X122892757Y-117644586D01*
X122900730Y-117626371D01*
X122921513Y-117586352D01*
X122953311Y-117537343D01*
X122993434Y-117482474D01*
X123039191Y-117424876D01*
X123087891Y-117367681D01*
X123136845Y-117314018D01*
X123183360Y-117267019D01*
X123224747Y-117229815D01*
X123258314Y-117205537D01*
X123265839Y-117201532D01*
X123285146Y-117194934D01*
X123314423Y-117189323D01*
X123356109Y-117184429D01*
X123412645Y-117179979D01*
X123486470Y-117175702D01*
X123507229Y-117174661D01*
X123614866Y-117169092D01*
X123704407Y-117163714D01*
X123778069Y-117158279D01*
X123838070Y-117152537D01*
X123886629Y-117146240D01*
X123925964Y-117139140D01*
X123958293Y-117130988D01*
X123985834Y-117121536D01*
X123987560Y-117120851D01*
X124042107Y-117100712D01*
X124080810Y-117090569D01*
X124105373Y-117090176D01*
X124117502Y-117099287D01*
X124118517Y-117101987D01*
X124120010Y-117115883D01*
X124121995Y-117147679D01*
X124124366Y-117194962D01*
X124127016Y-117255322D01*
X124129840Y-117326347D01*
X124132731Y-117405625D01*
X124135403Y-117485160D01*
X124138269Y-117586204D01*
X124140477Y-117689438D01*
X124142037Y-117792701D01*
X124142960Y-117893836D01*
X124143257Y-117990685D01*
X124142939Y-118081090D01*
X124142017Y-118162893D01*
X124140502Y-118233935D01*
X124138404Y-118292059D01*
X124135735Y-118335107D01*
X124132505Y-118360919D01*
X124130960Y-118366153D01*
X124114937Y-118384087D01*
X124105003Y-118389208D01*
X124085276Y-118404963D01*
X124070539Y-118434429D01*
X124063873Y-118471085D01*
X124063759Y-118476455D01*
X124069647Y-118502944D01*
X124088298Y-118517856D01*
X124103929Y-118527646D01*
X124114381Y-118542632D01*
X124120646Y-118566592D01*
X124123715Y-118603305D01*
X124124581Y-118656100D01*
X124124720Y-118739920D01*
X124204425Y-118739920D01*
X124236821Y-118740042D01*
X124262709Y-118739046D01*
X124282816Y-118734889D01*
X124297871Y-118725526D01*
X124308600Y-118708913D01*
X124315733Y-118683006D01*
X124319997Y-118645762D01*
X124322121Y-118595137D01*
X124322831Y-118529086D01*
X124322858Y-118445566D01*
X124322840Y-118407472D01*
X124322840Y-118117991D01*
X124388393Y-118078307D01*
X124429882Y-118055439D01*
X124473775Y-118034738D01*
X124507897Y-118021617D01*
X124543038Y-118007549D01*
X124572772Y-117987290D01*
X124604325Y-117955687D01*
X124611026Y-117948085D01*
X124647052Y-117910501D01*
X124689752Y-117871835D01*
X124734977Y-117835260D01*
X124778576Y-117803952D01*
X124816400Y-117781087D01*
X124843884Y-117769925D01*
X124876440Y-117755388D01*
X124898515Y-117726672D01*
X124911676Y-117681544D01*
X124913263Y-117671189D01*
X124912594Y-117610246D01*
X124894601Y-117556794D01*
X124861593Y-117513090D01*
X124815880Y-117481393D01*
X124759774Y-117463959D01*
X124699818Y-117462575D01*
X124652005Y-117471054D01*
X124610089Y-117487629D01*
X124568259Y-117515322D01*
X124523976Y-117554050D01*
X124496977Y-117577871D01*
X124475469Y-117593688D01*
X124463583Y-117598518D01*
X124462910Y-117598137D01*
X124462225Y-117585437D01*
X124468206Y-117560721D01*
X124474294Y-117543216D01*
X124495758Y-117483371D01*
X124507343Y-117438528D01*
X124508634Y-117405707D01*
X124499213Y-117381927D01*
X124478665Y-117364209D01*
X124447283Y-117349836D01*
X124415728Y-117337058D01*
X124397742Y-117326861D01*
X124394345Y-117318920D01*
X124406556Y-117312913D01*
X124435393Y-117308515D01*
X124481877Y-117305403D01*
X124547026Y-117303254D01*
X124597160Y-117302264D01*
X124692365Y-117299761D01*
X124770067Y-117295403D01*
X124833036Y-117288719D01*
X124884040Y-117279235D01*
X124925850Y-117266479D01*
X124961234Y-117249978D01*
X124982998Y-117236405D01*
X125017112Y-117210253D01*
X125037490Y-117185339D01*
X125046791Y-117155554D01*
X125047673Y-117114791D01*
X125046061Y-117091573D01*
X125035955Y-117028015D01*
X125017990Y-116978337D01*
X124993151Y-116944800D01*
X124977563Y-116934357D01*
X124933144Y-116917833D01*
X124875627Y-116902952D01*
X124812234Y-116891318D01*
X124754640Y-116884841D01*
X124713858Y-116881474D01*
X124678270Y-116877794D01*
X124655163Y-116874560D01*
X124654197Y-116874369D01*
X124629954Y-116869398D01*
X124659277Y-116838341D01*
X124677917Y-116820021D01*
X124708044Y-116792005D01*
X124745751Y-116757863D01*
X124787134Y-116721165D01*
X124794354Y-116714842D01*
X124874055Y-116640367D01*
X124940537Y-116566594D01*
X124996781Y-116489059D01*
X125045764Y-116403299D01*
X125090467Y-116304848D01*
X125121051Y-116225320D01*
X125154245Y-116133880D01*
X125161260Y-115874800D01*
X125164345Y-115780216D01*
X125167999Y-115702416D01*
X125172159Y-115642307D01*
X125176766Y-115600796D01*
X125181215Y-115580160D01*
X125189895Y-115558460D01*
X125205132Y-115522513D01*
X125225088Y-115476574D01*
X125247924Y-115424901D01*
X125258877Y-115400405D01*
X125281201Y-115349842D01*
X125300194Y-115305245D01*
X125314406Y-115270144D01*
X125322389Y-115248067D01*
X125323600Y-115242789D01*
X125330050Y-115224098D01*
X125347370Y-115194843D01*
X125372514Y-115159268D01*
X125402436Y-115121615D01*
X125434089Y-115086130D01*
X125441591Y-115078422D01*
X125479780Y-115043303D01*
X125522502Y-115009372D01*
X125565576Y-114979411D01*
X125604821Y-114956207D01*
X125636058Y-114942541D01*
X125649307Y-114940080D01*
X125691255Y-114945849D01*
X125746802Y-114962483D01*
X125813058Y-114988967D01*
X125882233Y-115021792D01*
X125937191Y-115050256D01*
X126000287Y-115083929D01*
X126069228Y-115121494D01*
X126141721Y-115161638D01*
X126215472Y-115203044D01*
X126288188Y-115244396D01*
X126357575Y-115284379D01*
X126421341Y-115321678D01*
X126477190Y-115354976D01*
X126522831Y-115382958D01*
X126555969Y-115404308D01*
X126574312Y-115417712D01*
X126576743Y-115420188D01*
X126587105Y-115441277D01*
X126598857Y-115476298D01*
X126610063Y-115519135D01*
X126614348Y-115539010D01*
X126623981Y-115581880D01*
X126634045Y-115618245D01*
X126642951Y-115642671D01*
X126646383Y-115648601D01*
X126670361Y-115667114D01*
X126704923Y-115682694D01*
X126740363Y-115691299D01*
X126750396Y-115691920D01*
X126769823Y-115688057D01*
X126783509Y-115674307D01*
X126793130Y-115647424D01*
X126800361Y-115604164D01*
X126801760Y-115592453D01*
X126809281Y-115549573D01*
X126823155Y-115512499D01*
X126847110Y-115471590D01*
X126850471Y-115466516D01*
X126876117Y-115423777D01*
X126890392Y-115387264D01*
X126896252Y-115351917D01*
X126897572Y-115326764D01*
X126894979Y-115307236D01*
X126885883Y-115289935D01*
X126867695Y-115271462D01*
X126837827Y-115248417D01*
X126793884Y-115217539D01*
X126762094Y-115191711D01*
X126743661Y-115165271D01*
X126735714Y-115142814D01*
X126728572Y-115107252D01*
X126731959Y-115085632D01*
X126747563Y-115073599D01*
X126764323Y-115069003D01*
X126793716Y-115057777D01*
X126821275Y-115039618D01*
X126847996Y-115016280D01*
X126851595Y-114813080D01*
X126855874Y-114686262D01*
X126864136Y-114576379D01*
X126876759Y-114480365D01*
X126894120Y-114395156D01*
X126910332Y-114336966D01*
X126921745Y-114297467D01*
X126926656Y-114268046D01*
X126925706Y-114239757D01*
X126919778Y-114204886D01*
X126913503Y-114165461D01*
X126909176Y-114123017D01*
X126907046Y-114082951D01*
X126907361Y-114050661D01*
X126910366Y-114031546D01*
X126911735Y-114029278D01*
X126921650Y-114032573D01*
X126944837Y-114045349D01*
X126977825Y-114065569D01*
X127016778Y-114090950D01*
X127057945Y-114117313D01*
X127094772Y-114138772D01*
X127123065Y-114153014D01*
X127138047Y-114157760D01*
X127166114Y-114149783D01*
X127185539Y-114125262D01*
X127196799Y-114083310D01*
X127200096Y-114042561D01*
X127199919Y-114001250D01*
X127197238Y-113963865D01*
X127192830Y-113939320D01*
X127177814Y-113913553D01*
X127152414Y-113888364D01*
X127145643Y-113883440D01*
X127123605Y-113867011D01*
X127090711Y-113840563D01*
X127051251Y-113807623D01*
X127009515Y-113771719D01*
X127005742Y-113768417D01*
X126920471Y-113695544D01*
X126845377Y-113635582D01*
X126777258Y-113586144D01*
X126712916Y-113544843D01*
X126682500Y-113527244D01*
X126641854Y-113502632D01*
X126614861Y-113482187D01*
X126603887Y-113467734D01*
X126603760Y-113466515D01*
X126606601Y-113447419D01*
X126613835Y-113417543D01*
X126618890Y-113399914D01*
X126630846Y-113353653D01*
X126633103Y-113320319D01*
X126624847Y-113294566D01*
X126605264Y-113271046D01*
X126598326Y-113264732D01*
X126562402Y-113240359D01*
X126529409Y-113233728D01*
X126498535Y-113245365D01*
X126468963Y-113275798D01*
X126439880Y-113325551D01*
X126415008Y-113383236D01*
X126377660Y-113479625D01*
X126291229Y-113472612D01*
X126191188Y-113461664D01*
X126072439Y-113443531D01*
X125934892Y-113418199D01*
X125782616Y-113386518D01*
X125782616Y-113754060D01*
X126127353Y-113840660D01*
X126219884Y-113864010D01*
X126294568Y-113883163D01*
X126353309Y-113898703D01*
X126398007Y-113911217D01*
X126430567Y-113921292D01*
X126452890Y-113929514D01*
X126466878Y-113936469D01*
X126474434Y-113942743D01*
X126477368Y-113948530D01*
X126478716Y-113968238D01*
X126477626Y-114001772D01*
X126474352Y-114042817D01*
X126473065Y-114054921D01*
X126468780Y-114110454D01*
X126469851Y-114151289D01*
X126473342Y-114168321D01*
X126490568Y-114194368D01*
X126520663Y-114220529D01*
X126556772Y-114242039D01*
X126592039Y-114254129D01*
X126597918Y-114254952D01*
X126620513Y-114257315D01*
X126631645Y-114258698D01*
X126631700Y-114258711D01*
X126633981Y-114268864D01*
X126634655Y-114294633D01*
X126633898Y-114331392D01*
X126631889Y-114374516D01*
X126628805Y-114419380D01*
X126624823Y-114461358D01*
X126623475Y-114472744D01*
X126618280Y-114511972D01*
X126613711Y-114542526D01*
X126610515Y-114559566D01*
X126609819Y-114561486D01*
X126599450Y-114560160D01*
X126599056Y-114560046D01*
X126599056Y-114802421D01*
X126605336Y-114812998D01*
X126613518Y-114842333D01*
X126619746Y-114871548D01*
X126628508Y-114918924D01*
X126632476Y-114948984D01*
X126631769Y-114964127D01*
X126626508Y-114966754D01*
X126624456Y-114965712D01*
X126613812Y-114950040D01*
X126604122Y-114920310D01*
X126596910Y-114882777D01*
X126593700Y-114843694D01*
X126593656Y-114839326D01*
X126595042Y-114811048D01*
X126599056Y-114802421D01*
X126599056Y-114560046D01*
X126576543Y-114553477D01*
X126563427Y-114549028D01*
X126531628Y-114538668D01*
X126507894Y-114534866D01*
X126490193Y-114539891D01*
X126476490Y-114556013D01*
X126464753Y-114585503D01*
X126452947Y-114630632D01*
X126440672Y-114686080D01*
X126421899Y-114760825D01*
X126402027Y-114815625D01*
X126380909Y-114850829D01*
X126367859Y-114862519D01*
X126355504Y-114867026D01*
X126338516Y-114866553D01*
X126315038Y-114860277D01*
X126283215Y-114847373D01*
X126241189Y-114827016D01*
X126187105Y-114798384D01*
X126119107Y-114760651D01*
X126050040Y-114721413D01*
X125955656Y-114667158D01*
X125877130Y-114621391D01*
X125812471Y-114582890D01*
X125759684Y-114550433D01*
X125716780Y-114522799D01*
X125681764Y-114498765D01*
X125656340Y-114479966D01*
X125632351Y-114459040D01*
X125621222Y-114439478D01*
X125618268Y-114412391D01*
X125618240Y-114407670D01*
X125621332Y-114372248D01*
X125629202Y-114330318D01*
X125634679Y-114309464D01*
X125641026Y-114284385D01*
X125645086Y-114257109D01*
X125647032Y-114223568D01*
X125647036Y-114179692D01*
X125645271Y-114121414D01*
X125643977Y-114090123D01*
X125641494Y-114020465D01*
X125640993Y-113968720D01*
X125642538Y-113932570D01*
X125646190Y-113909700D01*
X125649005Y-113902163D01*
X125661654Y-113883945D01*
X125684498Y-113856594D01*
X125713222Y-113825200D01*
X125721895Y-113816210D01*
X125782616Y-113754060D01*
X125782616Y-113386518D01*
X125778458Y-113385652D01*
X125755756Y-113380675D01*
X125684462Y-113365521D01*
X125610813Y-113350845D01*
X125540455Y-113337707D01*
X125479032Y-113327162D01*
X125435182Y-113320648D01*
X125387279Y-113314102D01*
X125345842Y-113307804D01*
X125315603Y-113302514D01*
X125301901Y-113299254D01*
X125287746Y-113287706D01*
X125268224Y-113264426D01*
X125253347Y-113243178D01*
X125216147Y-113195378D01*
X125166680Y-113145221D01*
X125111281Y-113098526D01*
X125056286Y-113061109D01*
X125052912Y-113059157D01*
X125023767Y-113039873D01*
X125002707Y-113021053D01*
X124995652Y-113010123D01*
X124986167Y-112996827D01*
X124963415Y-112988462D01*
X124941219Y-112984928D01*
X124904844Y-112979164D01*
X124859482Y-112970172D01*
X124820680Y-112961272D01*
X124769217Y-112951650D01*
X124706327Y-112945901D01*
X124628034Y-112943688D01*
X124612400Y-112943640D01*
X124554762Y-112944000D01*
X124512670Y-112945483D01*
X124481356Y-112948691D01*
X124456052Y-112954226D01*
X124431992Y-112962691D01*
X124419360Y-112968025D01*
X124395873Y-112977517D01*
X124373228Y-112984230D01*
X124347187Y-112988671D01*
X124313510Y-112991347D01*
X124267959Y-112992764D01*
X124206846Y-112993425D01*
X124142198Y-112994331D01*
X124095817Y-112996200D01*
X124065667Y-112999205D01*
X124049713Y-113003521D01*
X124045980Y-113007140D01*
X124034936Y-113018959D01*
X124030561Y-113019840D01*
X124015394Y-113023995D01*
X123989582Y-113034544D01*
X123974840Y-113041399D01*
X123944546Y-113053271D01*
X123910158Y-113060119D01*
X123864994Y-113063048D01*
X123841974Y-113063372D01*
X123795125Y-113062081D01*
X123756661Y-113058149D01*
X123732157Y-113052181D01*
X123730251Y-113051268D01*
X123708601Y-113043925D01*
X123692410Y-113050742D01*
X123672469Y-113057701D01*
X123642806Y-113058153D01*
X123639719Y-113057793D01*
X123604245Y-113059423D01*
X123553945Y-113070766D01*
X123491340Y-113090946D01*
X123418946Y-113119088D01*
X123339282Y-113154315D01*
X123280622Y-113182680D01*
X123183299Y-113237097D01*
X123093127Y-113298671D01*
X123014442Y-113364140D01*
X122951661Y-113430142D01*
X122919464Y-113479043D01*
X122894004Y-113536097D01*
X122878410Y-113593215D01*
X122875040Y-113628133D01*
X122873880Y-113647542D01*
X122868668Y-113664195D01*
X122856798Y-113681204D01*
X122835667Y-113701680D01*
X122802673Y-113728736D01*
X122768995Y-113754895D01*
X122746471Y-113775864D01*
X122736481Y-113793125D01*
X122736731Y-113797750D01*
X122736047Y-113813664D01*
X122732350Y-113817677D01*
X122724295Y-113830395D01*
X122714954Y-113855790D01*
X122710781Y-113870735D01*
X122695595Y-113908640D01*
X122667440Y-113956415D01*
X122636687Y-113999672D01*
X122567427Y-114095876D01*
X122514522Y-114180878D01*
X122477728Y-114255199D01*
X122456801Y-114319359D01*
X122451498Y-114373879D01*
X122453333Y-114391048D01*
X122455995Y-114418383D01*
X122450620Y-114433513D01*
X122440135Y-114441182D01*
X122434696Y-114444559D01*
X122429834Y-114449660D01*
X122425130Y-114458364D01*
X122420167Y-114472549D01*
X122414524Y-114494093D01*
X122407783Y-114524874D01*
X122399525Y-114566771D01*
X122389331Y-114621661D01*
X122376782Y-114691423D01*
X122361458Y-114777935D01*
X122348108Y-114853720D01*
X122333817Y-114944508D01*
X122322126Y-115037776D01*
X122314036Y-115124919D01*
X122311414Y-115168680D01*
X122308741Y-115222726D01*
X122305809Y-115271493D01*
X122302934Y-115310365D01*
X122300429Y-115334727D01*
X122299886Y-115338070D01*
X122299061Y-115358500D01*
X122310338Y-115367063D01*
X122318146Y-115368550D01*
X122337188Y-115379843D01*
X122346258Y-115401262D01*
X122342617Y-115423944D01*
X122337420Y-115430963D01*
X122329741Y-115448177D01*
X122326404Y-115474551D01*
X122326400Y-115475511D01*
X122323178Y-115498530D01*
X122315666Y-115509423D01*
X122307094Y-115504878D01*
X122304192Y-115498298D01*
X122294102Y-115492861D01*
X122278070Y-115496385D01*
X122266506Y-115505763D01*
X122265439Y-115509866D01*
X122273502Y-115520023D01*
X122293402Y-115533846D01*
X122298459Y-115536711D01*
X122331480Y-115554745D01*
X122238239Y-115559939D01*
X122196445Y-115562996D01*
X122162558Y-115566834D01*
X122141560Y-115570826D01*
X122137486Y-115572646D01*
X122138660Y-115579063D01*
X122145738Y-115580160D01*
X122162243Y-115587982D01*
X122178053Y-115605418D01*
X122200635Y-115632172D01*
X122230307Y-115650964D01*
X122271985Y-115664255D01*
X122309799Y-115671426D01*
X122366769Y-115677189D01*
X122424312Y-115675158D01*
X122460463Y-115670696D01*
X122504891Y-115665104D01*
X122534765Y-115664007D01*
X122555366Y-115667472D01*
X122565964Y-115672030D01*
X122586215Y-115687539D01*
X122588529Y-115701347D01*
X122575272Y-115712557D01*
X122548811Y-115720274D01*
X122511511Y-115723600D01*
X122465740Y-115721639D01*
X122442666Y-115718741D01*
X122404661Y-115714649D01*
X122353063Y-115711347D01*
X122294598Y-115709170D01*
X122235986Y-115708449D01*
X122234960Y-115708452D01*
X122176856Y-115709003D01*
X122134348Y-115710685D01*
X122102718Y-115714084D01*
X122077247Y-115719788D01*
X122053218Y-115728381D01*
X122044324Y-115732160D01*
X122006019Y-115752822D01*
X121986984Y-115773195D01*
X121985110Y-115778366D01*
X121986210Y-115797226D01*
X121986210Y-115797226D01*
G37*
X121986210Y-115797226D02*
X121993984Y-115832413D01*
X122007746Y-115881315D01*
X122026810Y-115941318D01*
X122031754Y-115956063D01*
X122051942Y-116018596D01*
X122071371Y-116083881D01*
X122088190Y-116145359D01*
X122100553Y-116196470D01*
X122103355Y-116210028D01*
X122126974Y-116370126D01*
X122138756Y-116542867D01*
X122138775Y-116724431D01*
X122127105Y-116911001D01*
X122103822Y-117098755D01*
X122083779Y-117213100D01*
X122073656Y-117260642D01*
X122062932Y-117304168D01*
X122053187Y-117337544D01*
X122048416Y-117350260D01*
X122031701Y-117390888D01*
X122025127Y-117417975D01*
X122028137Y-117435257D01*
X122034621Y-117442726D01*
X122047294Y-117452640D01*
X122073129Y-117472648D01*
X122109173Y-117500469D01*
X122152471Y-117533822D01*
X122190482Y-117563058D01*
X122258919Y-117616368D01*
X122313250Y-117660626D01*
X122356053Y-117698382D01*
X122389902Y-117732187D01*
X122417375Y-117764592D01*
X122441049Y-117798145D01*
X122460756Y-117830600D01*
X122508335Y-117911715D01*
X122548572Y-117976228D01*
X122582965Y-118025832D01*
X122613010Y-118062221D01*
X122640203Y-118087091D01*
X122666042Y-118102135D01*
X122692024Y-118109048D01*
X122707563Y-118109999D01*
X122735997Y-118105985D01*
X122753574Y-118099596D01*
X122768725Y-118081847D01*
X122783904Y-118046175D01*
X122798497Y-117994965D01*
X122811890Y-117930603D01*
X122823470Y-117855476D01*
X122829471Y-117804530D01*
X122836997Y-117765181D01*
X122849543Y-117728165D01*
X122857256Y-117713090D01*
X122874307Y-117682529D01*
X122892757Y-117644586D01*
X122900730Y-117626371D01*
X122921513Y-117586352D01*
X122953311Y-117537343D01*
X122993434Y-117482474D01*
X123039191Y-117424876D01*
X123087891Y-117367681D01*
X123136845Y-117314018D01*
X123183360Y-117267019D01*
X123224747Y-117229815D01*
X123258314Y-117205537D01*
X123265839Y-117201532D01*
X123285146Y-117194934D01*
X123314423Y-117189323D01*
X123356109Y-117184429D01*
X123412645Y-117179979D01*
X123486470Y-117175702D01*
X123507229Y-117174661D01*
X123614866Y-117169092D01*
X123704407Y-117163714D01*
X123778069Y-117158279D01*
X123838070Y-117152537D01*
X123886629Y-117146240D01*
X123925964Y-117139140D01*
X123958293Y-117130988D01*
X123985834Y-117121536D01*
X123987560Y-117120851D01*
X124042107Y-117100712D01*
X124080810Y-117090569D01*
X124105373Y-117090176D01*
X124117502Y-117099287D01*
X124118517Y-117101987D01*
X124120010Y-117115883D01*
X124121995Y-117147679D01*
X124124366Y-117194962D01*
X124127016Y-117255322D01*
X124129840Y-117326347D01*
X124132731Y-117405625D01*
X124135403Y-117485160D01*
X124138269Y-117586204D01*
X124140477Y-117689438D01*
X124142037Y-117792701D01*
X124142960Y-117893836D01*
X124143257Y-117990685D01*
X124142939Y-118081090D01*
X124142017Y-118162893D01*
X124140502Y-118233935D01*
X124138404Y-118292059D01*
X124135735Y-118335107D01*
X124132505Y-118360919D01*
X124130960Y-118366153D01*
X124114937Y-118384087D01*
X124105003Y-118389208D01*
X124085276Y-118404963D01*
X124070539Y-118434429D01*
X124063873Y-118471085D01*
X124063759Y-118476455D01*
X124069647Y-118502944D01*
X124088298Y-118517856D01*
X124103929Y-118527646D01*
X124114381Y-118542632D01*
X124120646Y-118566592D01*
X124123715Y-118603305D01*
X124124581Y-118656100D01*
X124124720Y-118739920D01*
X124204425Y-118739920D01*
X124236821Y-118740042D01*
X124262709Y-118739046D01*
X124282816Y-118734889D01*
X124297871Y-118725526D01*
X124308600Y-118708913D01*
X124315733Y-118683006D01*
X124319997Y-118645762D01*
X124322121Y-118595137D01*
X124322831Y-118529086D01*
X124322858Y-118445566D01*
X124322840Y-118407472D01*
X124322840Y-118117991D01*
X124388393Y-118078307D01*
X124429882Y-118055439D01*
X124473775Y-118034738D01*
X124507897Y-118021617D01*
X124543038Y-118007549D01*
X124572772Y-117987290D01*
X124604325Y-117955687D01*
X124611026Y-117948085D01*
X124647052Y-117910501D01*
X124689752Y-117871835D01*
X124734977Y-117835260D01*
X124778576Y-117803952D01*
X124816400Y-117781087D01*
X124843884Y-117769925D01*
X124876440Y-117755388D01*
X124898515Y-117726672D01*
X124911676Y-117681544D01*
X124913263Y-117671189D01*
X124912594Y-117610246D01*
X124894601Y-117556794D01*
X124861593Y-117513090D01*
X124815880Y-117481393D01*
X124759774Y-117463959D01*
X124699818Y-117462575D01*
X124652005Y-117471054D01*
X124610089Y-117487629D01*
X124568259Y-117515322D01*
X124523976Y-117554050D01*
X124496977Y-117577871D01*
X124475469Y-117593688D01*
X124463583Y-117598518D01*
X124462910Y-117598137D01*
X124462225Y-117585437D01*
X124468206Y-117560721D01*
X124474294Y-117543216D01*
X124495758Y-117483371D01*
X124507343Y-117438528D01*
X124508634Y-117405707D01*
X124499213Y-117381927D01*
X124478665Y-117364209D01*
X124447283Y-117349836D01*
X124415728Y-117337058D01*
X124397742Y-117326861D01*
X124394345Y-117318920D01*
X124406556Y-117312913D01*
X124435393Y-117308515D01*
X124481877Y-117305403D01*
X124547026Y-117303254D01*
X124597160Y-117302264D01*
X124692365Y-117299761D01*
X124770067Y-117295403D01*
X124833036Y-117288719D01*
X124884040Y-117279235D01*
X124925850Y-117266479D01*
X124961234Y-117249978D01*
X124982998Y-117236405D01*
X125017112Y-117210253D01*
X125037490Y-117185339D01*
X125046791Y-117155554D01*
X125047673Y-117114791D01*
X125046061Y-117091573D01*
X125035955Y-117028015D01*
X125017990Y-116978337D01*
X124993151Y-116944800D01*
X124977563Y-116934357D01*
X124933144Y-116917833D01*
X124875627Y-116902952D01*
X124812234Y-116891318D01*
X124754640Y-116884841D01*
X124713858Y-116881474D01*
X124678270Y-116877794D01*
X124655163Y-116874560D01*
X124654197Y-116874369D01*
X124629954Y-116869398D01*
X124659277Y-116838341D01*
X124677917Y-116820021D01*
X124708044Y-116792005D01*
X124745751Y-116757863D01*
X124787134Y-116721165D01*
X124794354Y-116714842D01*
X124874055Y-116640367D01*
X124940537Y-116566594D01*
X124996781Y-116489059D01*
X125045764Y-116403299D01*
X125090467Y-116304848D01*
X125121051Y-116225320D01*
X125154245Y-116133880D01*
X125161260Y-115874800D01*
X125164345Y-115780216D01*
X125167999Y-115702416D01*
X125172159Y-115642307D01*
X125176766Y-115600796D01*
X125181215Y-115580160D01*
X125189895Y-115558460D01*
X125205132Y-115522513D01*
X125225088Y-115476574D01*
X125247924Y-115424901D01*
X125258877Y-115400405D01*
X125281201Y-115349842D01*
X125300194Y-115305245D01*
X125314406Y-115270144D01*
X125322389Y-115248067D01*
X125323600Y-115242789D01*
X125330050Y-115224098D01*
X125347370Y-115194843D01*
X125372514Y-115159268D01*
X125402436Y-115121615D01*
X125434089Y-115086130D01*
X125441591Y-115078422D01*
X125479780Y-115043303D01*
X125522502Y-115009372D01*
X125565576Y-114979411D01*
X125604821Y-114956207D01*
X125636058Y-114942541D01*
X125649307Y-114940080D01*
X125691255Y-114945849D01*
X125746802Y-114962483D01*
X125813058Y-114988967D01*
X125882233Y-115021792D01*
X125937191Y-115050256D01*
X126000287Y-115083929D01*
X126069228Y-115121494D01*
X126141721Y-115161638D01*
X126215472Y-115203044D01*
X126288188Y-115244396D01*
X126357575Y-115284379D01*
X126421341Y-115321678D01*
X126477190Y-115354976D01*
X126522831Y-115382958D01*
X126555969Y-115404308D01*
X126574312Y-115417712D01*
X126576743Y-115420188D01*
X126587105Y-115441277D01*
X126598857Y-115476298D01*
X126610063Y-115519135D01*
X126614348Y-115539010D01*
X126623981Y-115581880D01*
X126634045Y-115618245D01*
X126642951Y-115642671D01*
X126646383Y-115648601D01*
X126670361Y-115667114D01*
X126704923Y-115682694D01*
X126740363Y-115691299D01*
X126750396Y-115691920D01*
X126769823Y-115688057D01*
X126783509Y-115674307D01*
X126793130Y-115647424D01*
X126800361Y-115604164D01*
X126801760Y-115592453D01*
X126809281Y-115549573D01*
X126823155Y-115512499D01*
X126847110Y-115471590D01*
X126850471Y-115466516D01*
X126876117Y-115423777D01*
X126890392Y-115387264D01*
X126896252Y-115351917D01*
X126897572Y-115326764D01*
X126894979Y-115307236D01*
X126885883Y-115289935D01*
X126867695Y-115271462D01*
X126837827Y-115248417D01*
X126793884Y-115217539D01*
X126762094Y-115191711D01*
X126743661Y-115165271D01*
X126735714Y-115142814D01*
X126728572Y-115107252D01*
X126731959Y-115085632D01*
X126747563Y-115073599D01*
X126764323Y-115069003D01*
X126793716Y-115057777D01*
X126821275Y-115039618D01*
X126847996Y-115016280D01*
X126851595Y-114813080D01*
X126855874Y-114686262D01*
X126864136Y-114576379D01*
X126876759Y-114480365D01*
X126894120Y-114395156D01*
X126910332Y-114336966D01*
X126921745Y-114297467D01*
X126926656Y-114268046D01*
X126925706Y-114239757D01*
X126919778Y-114204886D01*
X126913503Y-114165461D01*
X126909176Y-114123017D01*
X126907046Y-114082951D01*
X126907361Y-114050661D01*
X126910366Y-114031546D01*
X126911735Y-114029278D01*
X126921650Y-114032573D01*
X126944837Y-114045349D01*
X126977825Y-114065569D01*
X127016778Y-114090950D01*
X127057945Y-114117313D01*
X127094772Y-114138772D01*
X127123065Y-114153014D01*
X127138047Y-114157760D01*
X127166114Y-114149783D01*
X127185539Y-114125262D01*
X127196799Y-114083310D01*
X127200096Y-114042561D01*
X127199919Y-114001250D01*
X127197238Y-113963865D01*
X127192830Y-113939320D01*
X127177814Y-113913553D01*
X127152414Y-113888364D01*
X127145643Y-113883440D01*
X127123605Y-113867011D01*
X127090711Y-113840563D01*
X127051251Y-113807623D01*
X127009515Y-113771719D01*
X127005742Y-113768417D01*
X126920471Y-113695544D01*
X126845377Y-113635582D01*
X126777258Y-113586144D01*
X126712916Y-113544843D01*
X126682500Y-113527244D01*
X126641854Y-113502632D01*
X126614861Y-113482187D01*
X126603887Y-113467734D01*
X126603760Y-113466515D01*
X126606601Y-113447419D01*
X126613835Y-113417543D01*
X126618890Y-113399914D01*
X126630846Y-113353653D01*
X126633103Y-113320319D01*
X126624847Y-113294566D01*
X126605264Y-113271046D01*
X126598326Y-113264732D01*
X126562402Y-113240359D01*
X126529409Y-113233728D01*
X126498535Y-113245365D01*
X126468963Y-113275798D01*
X126439880Y-113325551D01*
X126415008Y-113383236D01*
X126377660Y-113479625D01*
X126291229Y-113472612D01*
X126191188Y-113461664D01*
X126072439Y-113443531D01*
X125934892Y-113418199D01*
X125782616Y-113386518D01*
X125782616Y-113754060D01*
X126127353Y-113840660D01*
X126219884Y-113864010D01*
X126294568Y-113883163D01*
X126353309Y-113898703D01*
X126398007Y-113911217D01*
X126430567Y-113921292D01*
X126452890Y-113929514D01*
X126466878Y-113936469D01*
X126474434Y-113942743D01*
X126477368Y-113948530D01*
X126478716Y-113968238D01*
X126477626Y-114001772D01*
X126474352Y-114042817D01*
X126473065Y-114054921D01*
X126468780Y-114110454D01*
X126469851Y-114151289D01*
X126473342Y-114168321D01*
X126490568Y-114194368D01*
X126520663Y-114220529D01*
X126556772Y-114242039D01*
X126592039Y-114254129D01*
X126597918Y-114254952D01*
X126620513Y-114257315D01*
X126631645Y-114258698D01*
X126631700Y-114258711D01*
X126633981Y-114268864D01*
X126634655Y-114294633D01*
X126633898Y-114331392D01*
X126631889Y-114374516D01*
X126628805Y-114419380D01*
X126624823Y-114461358D01*
X126623475Y-114472744D01*
X126618280Y-114511972D01*
X126613711Y-114542526D01*
X126610515Y-114559566D01*
X126609819Y-114561486D01*
X126599450Y-114560160D01*
X126599056Y-114560046D01*
X126599056Y-114802421D01*
X126605336Y-114812998D01*
X126613518Y-114842333D01*
X126619746Y-114871548D01*
X126628508Y-114918924D01*
X126632476Y-114948984D01*
X126631769Y-114964127D01*
X126626508Y-114966754D01*
X126624456Y-114965712D01*
X126613812Y-114950040D01*
X126604122Y-114920310D01*
X126596910Y-114882777D01*
X126593700Y-114843694D01*
X126593656Y-114839326D01*
X126595042Y-114811048D01*
X126599056Y-114802421D01*
X126599056Y-114560046D01*
X126576543Y-114553477D01*
X126563427Y-114549028D01*
X126531628Y-114538668D01*
X126507894Y-114534866D01*
X126490193Y-114539891D01*
X126476490Y-114556013D01*
X126464753Y-114585503D01*
X126452947Y-114630632D01*
X126440672Y-114686080D01*
X126421899Y-114760825D01*
X126402027Y-114815625D01*
X126380909Y-114850829D01*
X126367859Y-114862519D01*
X126355504Y-114867026D01*
X126338516Y-114866553D01*
X126315038Y-114860277D01*
X126283215Y-114847373D01*
X126241189Y-114827016D01*
X126187105Y-114798384D01*
X126119107Y-114760651D01*
X126050040Y-114721413D01*
X125955656Y-114667158D01*
X125877130Y-114621391D01*
X125812471Y-114582890D01*
X125759684Y-114550433D01*
X125716780Y-114522799D01*
X125681764Y-114498765D01*
X125656340Y-114479966D01*
X125632351Y-114459040D01*
X125621222Y-114439478D01*
X125618268Y-114412391D01*
X125618240Y-114407670D01*
X125621332Y-114372248D01*
X125629202Y-114330318D01*
X125634679Y-114309464D01*
X125641026Y-114284385D01*
X125645086Y-114257109D01*
X125647032Y-114223568D01*
X125647036Y-114179692D01*
X125645271Y-114121414D01*
X125643977Y-114090123D01*
X125641494Y-114020465D01*
X125640993Y-113968720D01*
X125642538Y-113932570D01*
X125646190Y-113909700D01*
X125649005Y-113902163D01*
X125661654Y-113883945D01*
X125684498Y-113856594D01*
X125713222Y-113825200D01*
X125721895Y-113816210D01*
X125782616Y-113754060D01*
X125782616Y-113386518D01*
X125778458Y-113385652D01*
X125755756Y-113380675D01*
X125684462Y-113365521D01*
X125610813Y-113350845D01*
X125540455Y-113337707D01*
X125479032Y-113327162D01*
X125435182Y-113320648D01*
X125387279Y-113314102D01*
X125345842Y-113307804D01*
X125315603Y-113302514D01*
X125301901Y-113299254D01*
X125287746Y-113287706D01*
X125268224Y-113264426D01*
X125253347Y-113243178D01*
X125216147Y-113195378D01*
X125166680Y-113145221D01*
X125111281Y-113098526D01*
X125056286Y-113061109D01*
X125052912Y-113059157D01*
X125023767Y-113039873D01*
X125002707Y-113021053D01*
X124995652Y-113010123D01*
X124986167Y-112996827D01*
X124963415Y-112988462D01*
X124941219Y-112984928D01*
X124904844Y-112979164D01*
X124859482Y-112970172D01*
X124820680Y-112961272D01*
X124769217Y-112951650D01*
X124706327Y-112945901D01*
X124628034Y-112943688D01*
X124612400Y-112943640D01*
X124554762Y-112944000D01*
X124512670Y-112945483D01*
X124481356Y-112948691D01*
X124456052Y-112954226D01*
X124431992Y-112962691D01*
X124419360Y-112968025D01*
X124395873Y-112977517D01*
X124373228Y-112984230D01*
X124347187Y-112988671D01*
X124313510Y-112991347D01*
X124267959Y-112992764D01*
X124206846Y-112993425D01*
X124142198Y-112994331D01*
X124095817Y-112996200D01*
X124065667Y-112999205D01*
X124049713Y-113003521D01*
X124045980Y-113007140D01*
X124034936Y-113018959D01*
X124030561Y-113019840D01*
X124015394Y-113023995D01*
X123989582Y-113034544D01*
X123974840Y-113041399D01*
X123944546Y-113053271D01*
X123910158Y-113060119D01*
X123864994Y-113063048D01*
X123841974Y-113063372D01*
X123795125Y-113062081D01*
X123756661Y-113058149D01*
X123732157Y-113052181D01*
X123730251Y-113051268D01*
X123708601Y-113043925D01*
X123692410Y-113050742D01*
X123672469Y-113057701D01*
X123642806Y-113058153D01*
X123639719Y-113057793D01*
X123604245Y-113059423D01*
X123553945Y-113070766D01*
X123491340Y-113090946D01*
X123418946Y-113119088D01*
X123339282Y-113154315D01*
X123280622Y-113182680D01*
X123183299Y-113237097D01*
X123093127Y-113298671D01*
X123014442Y-113364140D01*
X122951661Y-113430142D01*
X122919464Y-113479043D01*
X122894004Y-113536097D01*
X122878410Y-113593215D01*
X122875040Y-113628133D01*
X122873880Y-113647542D01*
X122868668Y-113664195D01*
X122856798Y-113681204D01*
X122835667Y-113701680D01*
X122802673Y-113728736D01*
X122768995Y-113754895D01*
X122746471Y-113775864D01*
X122736481Y-113793125D01*
X122736731Y-113797750D01*
X122736047Y-113813664D01*
X122732350Y-113817677D01*
X122724295Y-113830395D01*
X122714954Y-113855790D01*
X122710781Y-113870735D01*
X122695595Y-113908640D01*
X122667440Y-113956415D01*
X122636687Y-113999672D01*
X122567427Y-114095876D01*
X122514522Y-114180878D01*
X122477728Y-114255199D01*
X122456801Y-114319359D01*
X122451498Y-114373879D01*
X122453333Y-114391048D01*
X122455995Y-114418383D01*
X122450620Y-114433513D01*
X122440135Y-114441182D01*
X122434696Y-114444559D01*
X122429834Y-114449660D01*
X122425130Y-114458364D01*
X122420167Y-114472549D01*
X122414524Y-114494093D01*
X122407783Y-114524874D01*
X122399525Y-114566771D01*
X122389331Y-114621661D01*
X122376782Y-114691423D01*
X122361458Y-114777935D01*
X122348108Y-114853720D01*
X122333817Y-114944508D01*
X122322126Y-115037776D01*
X122314036Y-115124919D01*
X122311414Y-115168680D01*
X122308741Y-115222726D01*
X122305809Y-115271493D01*
X122302934Y-115310365D01*
X122300429Y-115334727D01*
X122299886Y-115338070D01*
X122299061Y-115358500D01*
X122310338Y-115367063D01*
X122318146Y-115368550D01*
X122337188Y-115379843D01*
X122346258Y-115401262D01*
X122342617Y-115423944D01*
X122337420Y-115430963D01*
X122329741Y-115448177D01*
X122326404Y-115474551D01*
X122326400Y-115475511D01*
X122323178Y-115498530D01*
X122315666Y-115509423D01*
X122307094Y-115504878D01*
X122304192Y-115498298D01*
X122294102Y-115492861D01*
X122278070Y-115496385D01*
X122266506Y-115505763D01*
X122265439Y-115509866D01*
X122273502Y-115520023D01*
X122293402Y-115533846D01*
X122298459Y-115536711D01*
X122331480Y-115554745D01*
X122238239Y-115559939D01*
X122196445Y-115562996D01*
X122162558Y-115566834D01*
X122141560Y-115570826D01*
X122137486Y-115572646D01*
X122138660Y-115579063D01*
X122145738Y-115580160D01*
X122162243Y-115587982D01*
X122178053Y-115605418D01*
X122200635Y-115632172D01*
X122230307Y-115650964D01*
X122271985Y-115664255D01*
X122309799Y-115671426D01*
X122366769Y-115677189D01*
X122424312Y-115675158D01*
X122460463Y-115670696D01*
X122504891Y-115665104D01*
X122534765Y-115664007D01*
X122555366Y-115667472D01*
X122565964Y-115672030D01*
X122586215Y-115687539D01*
X122588529Y-115701347D01*
X122575272Y-115712557D01*
X122548811Y-115720274D01*
X122511511Y-115723600D01*
X122465740Y-115721639D01*
X122442666Y-115718741D01*
X122404661Y-115714649D01*
X122353063Y-115711347D01*
X122294598Y-115709170D01*
X122235986Y-115708449D01*
X122234960Y-115708452D01*
X122176856Y-115709003D01*
X122134348Y-115710685D01*
X122102718Y-115714084D01*
X122077247Y-115719788D01*
X122053218Y-115728381D01*
X122044324Y-115732160D01*
X122006019Y-115752822D01*
X121986984Y-115773195D01*
X121985110Y-115778366D01*
X121986210Y-115797226D01*
G36*
X121581938Y-116486138D02*
X121582770Y-116489480D01*
X121593899Y-116538351D01*
X121603682Y-116589698D01*
X121610076Y-116632750D01*
X121610251Y-116634322D01*
X121621209Y-116689315D01*
X121639787Y-116731133D01*
X121640683Y-116732476D01*
X121653392Y-116755362D01*
X121666697Y-116788230D01*
X121681253Y-116833226D01*
X121697717Y-116892495D01*
X121716742Y-116968183D01*
X121731107Y-117028542D01*
X121748747Y-117096404D01*
X121767279Y-117149580D01*
X121789248Y-117193636D01*
X121817197Y-117234140D01*
X121834807Y-117255495D01*
X121873308Y-117300150D01*
X121896958Y-117225015D01*
X121920033Y-117139845D01*
X121940963Y-117039776D01*
X121959268Y-116929355D01*
X121974465Y-116813131D01*
X121986075Y-116695653D01*
X121993614Y-116581469D01*
X121996603Y-116475127D01*
X121994559Y-116381176D01*
X121991049Y-116335777D01*
X121988150Y-116310988D01*
X121984234Y-116284467D01*
X121978801Y-116253940D01*
X121971355Y-116217135D01*
X121961399Y-116171777D01*
X121948433Y-116115593D01*
X121931962Y-116046311D01*
X121911487Y-115961655D01*
X121889042Y-115869692D01*
X121876750Y-115823178D01*
X121863015Y-115776825D01*
X121850642Y-115740058D01*
X121849718Y-115737612D01*
X121830293Y-115686840D01*
X121818304Y-115717320D01*
X121812202Y-115748852D01*
X121811728Y-115793495D01*
X121816649Y-115844901D01*
X121824514Y-115887500D01*
X121826540Y-115908138D01*
X121818146Y-115915222D01*
X121814504Y-115915440D01*
X121801185Y-115923984D01*
X121798080Y-115942414D01*
X121797034Y-115960995D01*
X121790455Y-115961749D01*
X121777760Y-115951000D01*
X121763046Y-115938775D01*
X121757992Y-115940832D01*
X121757440Y-115952473D01*
X121763198Y-115975224D01*
X121769340Y-115984236D01*
X121773764Y-115995792D01*
X121762684Y-116010344D01*
X121754264Y-116017356D01*
X121736720Y-116032988D01*
X121733708Y-116045325D01*
X121742916Y-116062427D01*
X121751431Y-116083155D01*
X121746047Y-116093303D01*
X121729134Y-116089239D01*
X121726474Y-116087645D01*
X121695104Y-116077549D01*
X121665051Y-116087516D01*
X121636589Y-116117315D01*
X121609993Y-116166716D01*
X121598800Y-116195023D01*
X121573182Y-116292243D01*
X121567596Y-116388644D01*
X121581938Y-116486138D01*
X121581938Y-116486138D01*
G37*
X121581938Y-116486138D02*
X121582770Y-116489480D01*
X121593899Y-116538351D01*
X121603682Y-116589698D01*
X121610076Y-116632750D01*
X121610251Y-116634322D01*
X121621209Y-116689315D01*
X121639787Y-116731133D01*
X121640683Y-116732476D01*
X121653392Y-116755362D01*
X121666697Y-116788230D01*
X121681253Y-116833226D01*
X121697717Y-116892495D01*
X121716742Y-116968183D01*
X121731107Y-117028542D01*
X121748747Y-117096404D01*
X121767279Y-117149580D01*
X121789248Y-117193636D01*
X121817197Y-117234140D01*
X121834807Y-117255495D01*
X121873308Y-117300150D01*
X121896958Y-117225015D01*
X121920033Y-117139845D01*
X121940963Y-117039776D01*
X121959268Y-116929355D01*
X121974465Y-116813131D01*
X121986075Y-116695653D01*
X121993614Y-116581469D01*
X121996603Y-116475127D01*
X121994559Y-116381176D01*
X121991049Y-116335777D01*
X121988150Y-116310988D01*
X121984234Y-116284467D01*
X121978801Y-116253940D01*
X121971355Y-116217135D01*
X121961399Y-116171777D01*
X121948433Y-116115593D01*
X121931962Y-116046311D01*
X121911487Y-115961655D01*
X121889042Y-115869692D01*
X121876750Y-115823178D01*
X121863015Y-115776825D01*
X121850642Y-115740058D01*
X121849718Y-115737612D01*
X121830293Y-115686840D01*
X121818304Y-115717320D01*
X121812202Y-115748852D01*
X121811728Y-115793495D01*
X121816649Y-115844901D01*
X121824514Y-115887500D01*
X121826540Y-115908138D01*
X121818146Y-115915222D01*
X121814504Y-115915440D01*
X121801185Y-115923984D01*
X121798080Y-115942414D01*
X121797034Y-115960995D01*
X121790455Y-115961749D01*
X121777760Y-115951000D01*
X121763046Y-115938775D01*
X121757992Y-115940832D01*
X121757440Y-115952473D01*
X121763198Y-115975224D01*
X121769340Y-115984236D01*
X121773764Y-115995792D01*
X121762684Y-116010344D01*
X121754264Y-116017356D01*
X121736720Y-116032988D01*
X121733708Y-116045325D01*
X121742916Y-116062427D01*
X121751431Y-116083155D01*
X121746047Y-116093303D01*
X121729134Y-116089239D01*
X121726474Y-116087645D01*
X121695104Y-116077549D01*
X121665051Y-116087516D01*
X121636589Y-116117315D01*
X121609993Y-116166716D01*
X121598800Y-116195023D01*
X121573182Y-116292243D01*
X121567596Y-116388644D01*
X121581938Y-116486138D01*
G36*
X121943508Y-117363498D02*
X121949184Y-117370860D01*
X121964013Y-117386655D01*
X121970633Y-117386586D01*
X121970800Y-117384804D01*
X121963856Y-117376323D01*
X121953020Y-117367024D01*
X121940985Y-117358237D01*
X121943508Y-117363498D01*
X121943508Y-117363498D01*
G37*
X121943508Y-117363498D02*
X121949184Y-117370860D01*
X121964013Y-117386655D01*
X121970633Y-117386586D01*
X121970800Y-117384804D01*
X121963856Y-117376323D01*
X121953020Y-117367024D01*
X121940985Y-117358237D01*
X121943508Y-117363498D01*
G36*
X121887615Y-115668380D02*
X121903493Y-115669591D01*
X121907088Y-115667578D01*
X121904058Y-115662960D01*
X121893753Y-115662242D01*
X121882912Y-115664723D01*
X121887615Y-115668380D01*
X121887615Y-115668380D01*
G37*
X121887615Y-115668380D02*
X121903493Y-115669591D01*
X121907088Y-115667578D01*
X121904058Y-115662960D01*
X121893753Y-115662242D01*
X121882912Y-115664723D01*
X121887615Y-115668380D01*
M02*
