G04 #@! TF.FileFunction,Soldermask,Bot*
%FSLAX46Y46*%
G04 Gerber Fmt 4.6, Leading zero omitted, Abs format (unit mm)*
G04 Created by KiCad (PCBNEW 4.0.5) date 02/24/17 16:37:27*
%MOMM*%
%LPD*%
G01*
G04 APERTURE LIST*
%ADD10C,0.100000*%
%ADD11O,1.650000X1.350000*%
%ADD12O,1.400000X1.950000*%
%ADD13C,1.900000*%
%ADD14C,3.400000*%
%ADD15R,2.100000X2.100000*%
%ADD16O,2.100000X2.100000*%
%ADD17C,1.750000*%
%ADD18R,1.750000X1.750000*%
G04 APERTURE END LIST*
D10*
D11*
X133310000Y-81360000D03*
X128310000Y-81360000D03*
D12*
X134310000Y-78660000D03*
X127310000Y-78660000D03*
D13*
X112270000Y-88900000D03*
X114810000Y-88900000D03*
X116840000Y-88900000D03*
X119380000Y-88900000D03*
D14*
X109220000Y-86230000D03*
X122940000Y-86230000D03*
D15*
X109220000Y-96520000D03*
D16*
X109220000Y-99060000D03*
X109220000Y-101600000D03*
X109220000Y-104140000D03*
X109220000Y-106680000D03*
X109220000Y-109220000D03*
X109220000Y-111760000D03*
X109220000Y-114300000D03*
X109220000Y-116840000D03*
X109220000Y-119380000D03*
X109220000Y-121920000D03*
X109220000Y-124460000D03*
X109220000Y-127000000D03*
X109220000Y-129540000D03*
X109220000Y-132080000D03*
X109220000Y-134620000D03*
D15*
X142240000Y-96520000D03*
D16*
X142240000Y-99060000D03*
X142240000Y-101600000D03*
X142240000Y-104140000D03*
X142240000Y-106680000D03*
X142240000Y-109220000D03*
X142240000Y-111760000D03*
X142240000Y-114300000D03*
X142240000Y-116840000D03*
X142240000Y-119380000D03*
X142240000Y-121920000D03*
X142240000Y-124460000D03*
X142240000Y-127000000D03*
X142240000Y-129540000D03*
X142240000Y-132080000D03*
X142240000Y-134620000D03*
D15*
X139700000Y-81280000D03*
D16*
X142240000Y-81280000D03*
X139700000Y-83820000D03*
X142240000Y-83820000D03*
X139700000Y-86360000D03*
X142240000Y-86360000D03*
X139700000Y-88900000D03*
X142240000Y-88900000D03*
D17*
X138692000Y-129314000D03*
X138692000Y-127314000D03*
X138692000Y-125314000D03*
X138692000Y-123314000D03*
X138692000Y-121314000D03*
X138692000Y-119314000D03*
X138692000Y-117314000D03*
X138692000Y-115314000D03*
X138692000Y-113314000D03*
X138692000Y-111314000D03*
X138692000Y-109314000D03*
X138692000Y-107314000D03*
X138692000Y-105314000D03*
X138692000Y-103314000D03*
X138692000Y-101314000D03*
D18*
X138692000Y-99314000D03*
X114292000Y-99314000D03*
D17*
X114292000Y-101314000D03*
X114292000Y-103314000D03*
X114292000Y-105314000D03*
X114292000Y-107314000D03*
X114292000Y-109314000D03*
X114292000Y-111314000D03*
X114292000Y-113314000D03*
X114292000Y-115314000D03*
X114292000Y-117314000D03*
X114292000Y-119314000D03*
X114292000Y-121314000D03*
X114292000Y-123314000D03*
X114292000Y-125314000D03*
X114292000Y-127314000D03*
X114292000Y-129314000D03*
M02*
